<svg width="12" height="12" viewBox="0 0 19 18" fill="none" xmlns="http://www.w3.org/2000/svg">
<path d="M7.94785 0.238209C8.73122 -0.0794029 9.6075 -0.0794029 10.3909 0.238209L16.8912 2.8737C17.1712 2.98711 17.4109 3.18153 17.5797 3.43205C17.7485 3.68256 17.8387 3.97778 17.8387 4.27987V9.16592C17.4518 8.79425 17.014 8.47957 16.5383 8.23136V4.79829L9.81957 7.39217V9.38525C9.2108 10.0356 8.76512 10.8212 8.51916 11.6774V7.3913L1.8004 4.77922V12.6493C1.80052 12.6923 1.81344 12.7343 1.83753 12.77C1.86161 12.8057 1.89577 12.8334 1.93565 12.8495L8.4368 15.485C8.46368 15.4963 8.49142 15.5067 8.51916 15.5162L8.68301 15.5821C8.73416 15.6029 8.78531 15.6203 8.83819 15.6341C9.05319 16.0901 9.32801 16.5132 9.65312 16.8921C9.07686 16.9788 8.4879 16.909 7.94785 16.6901L1.44669 14.0546C1.16686 13.941 0.927288 13.7466 0.758636 13.496C0.589983 13.2455 0.499928 12.9504 0.5 12.6484V4.28073C0.499928 3.97874 0.589983 3.6836 0.758636 3.43309C0.927288 3.18259 1.16686 2.98811 1.44669 2.87456L7.94872 0.239076L7.94785 0.238209ZM9.90193 1.44325C9.43211 1.25287 8.90662 1.25287 8.4368 1.44325L6.77749 2.11599L13.3029 4.65352L15.6176 3.76057L9.90193 1.44325ZM2.74536 3.75103L9.17023 6.24955L11.5023 5.34793L5.02194 2.82861L2.74536 3.75103ZM13.9375 18C15.2021 18 16.4149 17.4976 17.3091 16.6034C18.2033 15.7092 18.7057 14.4964 18.7057 13.2319C18.7057 11.9673 18.2033 10.7545 17.3091 9.86026C16.4149 8.96606 15.2021 8.4637 13.9375 8.4637C12.6729 8.4637 11.4601 8.96606 10.5659 9.86026C9.67172 10.7545 9.16936 11.9673 9.16936 13.2319C9.16936 14.4964 9.67172 15.7092 10.5659 16.6034C11.4601 17.4976 12.6729 18 13.9375 18ZM13.0706 14.3528L16.2314 11.1911C16.2717 11.1508 16.3196 11.1189 16.3722 11.0972C16.4248 11.0754 16.4812 11.0642 16.5382 11.0643C16.5952 11.0643 16.6515 11.0756 16.7041 11.0974C16.7568 11.1192 16.8045 11.1512 16.8448 11.1915C16.885 11.2318 16.9169 11.2797 16.9387 11.3323C16.9605 11.3849 16.9716 11.4413 16.9716 11.4983C16.9716 11.5552 16.9603 11.6116 16.9385 11.6642C16.9166 11.7168 16.8847 11.7646 16.8444 11.8049L13.3766 15.2726C13.2953 15.3539 13.1851 15.3995 13.0701 15.3995C12.9552 15.3995 12.845 15.3539 12.7637 15.2726L11.0298 13.5387C10.9484 13.4575 10.9026 13.3472 10.9026 13.2322C10.9025 13.1171 10.9481 13.0068 11.0294 12.9254C11.1107 12.844 11.2209 12.7982 11.336 12.7981C11.451 12.7981 11.5613 12.8437 11.6427 12.925L13.0706 14.3528Z" fill="white"/>
</svg>
