<svg width="72" height="72" viewBox="0 0 72 72" fill="none" xmlns="http://www.w3.org/2000/svg">
<path d="M61.875 10.125H25.875C24.6324 10.125 23.625 11.1324 23.625 12.375V59.625C23.625 60.8676 24.6324 61.875 25.875 61.875H61.875C63.1176 61.875 64.125 60.8676 64.125 59.625V12.375C64.125 11.1324 63.1176 10.125 61.875 10.125Z" fill="#F8C460"/>
<path d="M63 58.5C61.827 58.5 60.6675 58.4445 59.5215 58.3335C54.5769 57.7932 50.0088 55.4368 46.7024 51.7207C43.396 48.0047 41.5867 43.1936 41.625 38.2196V28.125C41.625 27.5283 41.3879 26.956 40.966 26.534C40.544 26.1121 39.9717 25.875 39.375 25.875H29.2714C28.693 25.8779 28.1358 25.6571 27.7165 25.2588C27.2972 24.8604 27.0481 24.3153 27.0214 23.7375C27.0079 23.3258 27 10.125 27 10.125H25.875C25.2783 10.125 24.706 10.3621 24.284 10.784C23.8621 11.206 23.625 11.7783 23.625 12.375V59.625C23.625 60.2217 23.8621 60.794 24.284 61.216C24.706 61.6379 25.2783 61.875 25.875 61.875H61.875C62.4717 61.875 63.044 61.6379 63.466 61.216C63.8879 60.794 64.125 60.2217 64.125 59.625V58.5H63Z" fill="#EAAC47"/>
<path d="M37.125 28.125H3.375C2.13236 28.125 1.125 29.1324 1.125 30.375V59.625C1.125 60.8676 2.13236 61.875 3.375 61.875H37.125C38.3676 61.875 39.375 60.8676 39.375 59.625V30.375C39.375 29.1324 38.3676 28.125 37.125 28.125Z" fill="#F8C460"/>
<path d="M15.75 28.125H24.75V41.625C24.75 42.2217 24.5129 42.794 24.091 43.216C23.669 43.6379 23.0967 43.875 22.5 43.875H18C17.4033 43.875 16.831 43.6379 16.409 43.216C15.9871 42.794 15.75 42.2217 15.75 41.625V28.125Z" fill="#F97878"/>
<path d="M39.375 10.125H48.375V23.625C48.375 24.2217 48.1379 24.794 47.716 25.216C47.294 25.6379 46.7217 25.875 46.125 25.875H41.625C41.0283 25.875 40.456 25.6379 40.034 25.216C39.6121 24.794 39.375 24.2217 39.375 23.625V10.125Z" fill="#F97878"/>
<path d="M32.625 34.875C32.0283 34.875 31.456 35.1121 31.034 35.534C30.6121 35.956 30.375 36.5283 30.375 37.125V52.7062C30.375 53.4205 30.2052 54.1245 29.8797 54.7602C29.5542 55.3959 29.0823 55.9452 28.5028 56.3627C27.9233 56.7802 27.2529 57.054 26.5469 57.1616C25.8408 57.2691 25.1192 57.2073 24.4417 56.9813C18.6315 55.0309 13.5808 51.3047 10.0026 46.3288C6.4244 41.353 4.49961 35.3788 4.5 29.25V28.125H3.375C2.77826 28.125 2.20597 28.3621 1.78401 28.784C1.36205 29.206 1.125 29.7783 1.125 30.375V59.625C1.125 60.2217 1.36205 60.794 1.78401 61.216C2.20597 61.6379 2.77826 61.875 3.375 61.875H37.125C37.7217 61.875 38.294 61.6379 38.716 61.216C39.1379 60.794 39.375 60.2217 39.375 59.625V34.875H32.625Z" fill="#EAAC47"/>
<path d="M32.625 52.875H25.875V57.375H32.625V52.875Z" fill="#F97878"/>
<path d="M68.625 34.875H34.875C33.6324 34.875 32.625 35.8824 32.625 37.125V59.625C32.625 60.8676 33.6324 61.875 34.875 61.875H68.625C69.8676 61.875 70.875 60.8676 70.875 59.625V37.125C70.875 35.8824 69.8676 34.875 68.625 34.875Z" fill="#F8C460"/>
<path d="M58.5 58.5C52.5326 58.5 46.8097 56.1295 42.5901 51.9099C38.3705 47.6903 36 41.9674 36 36V34.875H34.875C34.2783 34.875 33.706 35.1121 33.284 35.534C32.8621 35.956 32.625 36.5283 32.625 37.125V59.625C32.625 60.2217 32.8621 60.794 33.284 61.216C33.706 61.6379 34.2783 61.875 34.875 61.875H68.625C69.2217 61.875 69.794 61.6379 70.216 61.216C70.6379 60.794 70.875 60.2217 70.875 59.625V58.5H58.5Z" fill="#EAAC47"/>
<path d="M47.25 34.875H56.25V43.875C56.25 44.4717 56.0129 45.044 55.591 45.466C55.169 45.8879 54.5967 46.125 54 46.125H49.5C48.9033 46.125 48.331 45.8879 47.909 45.466C47.4871 45.044 47.25 44.4717 47.25 43.875V34.875Z" fill="#F97878"/>
<path d="M66.375 52.875H57.375V57.375H66.375V52.875Z" fill="#F97878"/>
<path d="M61.875 13.5H58.5C58.2016 13.5 57.9155 13.3815 57.7045 13.1705C57.4935 12.9595 57.375 12.6734 57.375 12.375C57.375 12.0766 57.4935 11.7905 57.7045 11.5795C57.9155 11.3685 58.2016 11.25 58.5 11.25H61.875C62.1734 11.25 62.4595 11.3685 62.6705 11.5795C62.8815 11.7905 63 12.0766 63 12.375C63 12.6734 62.8815 12.9595 62.6705 13.1705C62.4595 13.3815 62.1734 13.5 61.875 13.5Z" fill="white"/>
</svg>
