<svg width="35" height="32" viewBox="0 0 35 32" fill="none" xmlns="http://www.w3.org/2000/svg">
<path d="M21.2655 0.00142225C22.3693 0.00142225 23.3962 0.570362 23.9808 1.50769L26.1442 4.97538H29.5137C30.7397 4.97538 31.9155 5.4624 32.7824 6.32931C33.6493 7.19623 34.1364 8.37201 34.1364 9.59801V27.3774C34.1364 28.6034 33.6493 29.7792 32.7824 30.6461C31.9155 31.513 30.7397 32 29.5137 32H4.62263C3.39663 32 2.22085 31.513 1.35394 30.6461C0.487026 29.7792 0 28.6034 0 27.3774V9.59801C0 8.37201 0.487026 7.19623 1.35394 6.32931C2.22085 5.4624 3.39663 4.97538 4.62263 4.97538H8.27665L10.2409 1.59303C10.5223 1.10859 10.9259 0.706495 11.4113 0.426939C11.8968 0.147384 12.4472 0.000164802 13.0074 0H21.2641L21.2655 0.00142225ZM17.0682 9.95786C14.9934 9.95786 13.0036 10.7821 11.5365 12.2491C10.0695 13.7162 9.24527 15.706 9.24527 17.7808C9.24527 19.8555 10.0695 21.8453 11.5365 23.3124C13.0036 24.7795 14.9934 25.6037 17.0682 25.6037C19.143 25.6037 21.1327 24.7795 22.5998 23.3124C24.0669 21.8453 24.8911 19.8555 24.8911 17.7808C24.8911 15.706 24.0669 13.7162 22.5998 12.2491C21.1327 10.7821 19.143 9.95786 17.0682 9.95786ZM17.0682 12.0914C18.5771 12.0914 20.0242 12.6908 21.0912 13.7578C22.1582 14.8247 22.7576 16.2719 22.7576 17.7808C22.7576 19.2897 22.1582 20.7368 21.0912 21.8038C20.0242 22.8708 18.5771 23.4702 17.0682 23.4702C15.5593 23.4702 14.1121 22.8708 13.0452 21.8038C11.9782 20.7368 11.3788 19.2897 11.3788 17.7808C11.3788 16.2719 11.9782 14.8247 13.0452 13.7578C14.1121 12.6908 15.5593 12.0914 17.0682 12.0914Z" fill="#006397"/>
</svg>
