<svg width="32" height="14" viewBox="0 0 32 14" fill="none" xmlns="http://www.w3.org/2000/svg">
<path d="M7.78896 14C6.53632 13.9997 5.30669 13.6634 4.22835 13.0259C3.15002 12.3885 2.26249 11.4734 1.65834 10.3761C1.0542 9.27873 0.755579 8.03939 0.793638 6.78733C0.831696 5.53526 1.20504 4.31634 1.87471 3.25773C2.54439 2.19913 3.48586 1.33961 4.60092 0.768855C5.71598 0.198099 6.96377 -0.0629857 8.21412 0.0128374C9.46447 0.0886604 10.6716 0.498613 11.7095 1.19993C12.7474 1.90124 13.5781 2.86823 14.115 4H28.789L31.789 7L28.789 10L26.789 8L24.789 10L22.789 8L20.789 10L18.789 8L16.789 10H14.115C13.5471 11.1971 12.6513 12.2084 11.5315 12.9165C10.4116 13.6245 9.11386 14.0003 7.78896 14ZM5.78896 9C6.31939 9 6.8281 8.78929 7.20318 8.41422C7.57825 8.03914 7.78896 7.53044 7.78896 7C7.78896 6.46957 7.57825 5.96086 7.20318 5.58579C6.8281 5.21072 6.31939 5 5.78896 5C5.25853 5 4.74982 5.21072 4.37475 5.58579C3.99967 5.96086 3.78896 6.46957 3.78896 7C3.78896 7.53044 3.99967 8.03914 4.37475 8.41422C4.74982 8.78929 5.25853 9 5.78896 9Z" fill="#006397"/>
</svg>
