<svg width="21" height="20" viewBox="0 0 21 20" fill="none" xmlns="http://www.w3.org/2000/svg">
<path d="M8.98195 0.264676C9.84254 -0.0882254 10.8052 -0.0882254 11.6658 0.264676L18.8067 3.19299C19.1143 3.31901 19.3777 3.53503 19.5631 3.81338C19.7486 4.09174 19.8477 4.41975 19.8477 4.75541V10.1844C19.4226 9.77139 18.9416 9.42174 18.4191 9.14596V5.33144L11.0381 8.21352V10.4281C10.3694 11.1507 9.87977 12.0236 9.60957 12.9749V8.21256L2.22862 5.31025V14.0547C2.22874 14.1026 2.24294 14.1493 2.2694 14.1889C2.29586 14.2285 2.33338 14.2593 2.37719 14.2773L9.5191 17.2056C9.54862 17.2181 9.5791 17.2297 9.60957 17.2403L9.78957 17.3135C9.84576 17.3366 9.90195 17.3558 9.96005 17.3713C10.1962 17.8779 10.4981 18.348 10.8553 18.7689C10.2222 18.8653 9.57522 18.7878 8.98195 18.5445L1.84005 15.6162C1.53264 15.49 1.26945 15.2739 1.08418 14.9956C0.898901 14.7173 0.79997 14.3893 0.800049 14.0538V4.75637C0.79997 4.42083 0.898901 4.09289 1.08418 3.81455C1.26945 3.53621 1.53264 3.32012 1.84005 3.19396L8.98291 0.265639L8.98195 0.264676ZM11.1286 1.60361C10.6125 1.39208 10.0352 1.39208 9.5191 1.60361L7.69624 2.3511L14.8648 5.17057L17.4077 4.17841L11.1286 1.60361ZM3.26672 4.16782L10.3248 6.94394L12.8867 5.94215L5.76767 3.1429L3.26672 4.16782ZM15.562 20C16.9512 20 18.2835 19.4418 19.2658 18.4483C20.2482 17.4547 20.8 16.1072 20.8 14.7021C20.8 13.297 20.2482 11.9494 19.2658 10.9558C18.2835 9.96229 16.9512 9.40411 15.562 9.40411C14.1727 9.40411 12.8404 9.96229 11.8581 10.9558C10.8757 11.9494 10.3239 13.297 10.3239 14.7021C10.3239 16.1072 10.8757 17.4547 11.8581 18.4483C12.8404 19.4418 14.1727 20 15.562 20ZM14.6096 15.9476L18.082 12.4345C18.1262 12.3898 18.1788 12.3544 18.2366 12.3302C18.2944 12.306 18.3564 12.2936 18.419 12.2936C18.4815 12.2937 18.5435 12.3062 18.6013 12.3304C18.6591 12.3547 18.7116 12.3902 18.7558 12.435C18.8 12.4798 18.835 12.5329 18.8589 12.5914C18.8828 12.6499 18.8951 12.7126 18.8951 12.7759C18.895 12.8392 18.8827 12.9018 18.8587 12.9603C18.8347 13.0187 18.7996 13.0718 18.7553 13.1165L14.9458 16.9696C14.8565 17.0599 14.7354 17.1106 14.6091 17.1106C14.4828 17.1106 14.3617 17.0599 14.2724 16.9696L12.3677 15.0431C12.2783 14.9527 12.228 14.8302 12.2279 14.7024C12.2278 14.5746 12.2779 14.452 12.3672 14.3615C12.4565 14.2711 12.5776 14.2202 12.704 14.2202C12.8304 14.2201 12.9516 14.2708 13.041 14.3611L14.6096 15.9476Z" fill="#41474D"/>
</svg>
