<svg width="16" height="16" viewBox="0 0 16 16" fill="none" xmlns="http://www.w3.org/2000/svg">
<path d="M6.2837 0.209349C6.94463 -0.069783 7.68394 -0.069783 8.34487 0.209349L13.8291 2.52554C14.0653 2.62521 14.2676 2.79608 14.4101 3.01624C14.5525 3.23641 14.6286 3.49586 14.6286 3.76135V8.05544C14.3021 7.7288 13.9327 7.45225 13.5314 7.23411V4.21697L7.86286 6.49659V8.24821C7.34925 8.81979 6.97322 9.51021 6.76571 10.2627V6.49582L1.09714 4.20021V11.1168C1.09724 11.1546 1.10814 11.1915 1.12846 11.2229C1.14878 11.2542 1.1776 11.2786 1.21125 11.2928L6.69623 13.609C6.7189 13.6189 6.74231 13.628 6.76571 13.6364L6.90395 13.6943C6.94711 13.7126 6.99026 13.7278 7.03488 13.74C7.21627 14.1408 7.44814 14.5126 7.72242 14.8455C7.23624 14.9218 6.73933 14.8604 6.2837 14.668L0.79872 12.3518C0.562629 12.252 0.3605 12.0811 0.218209 11.861C0.0759181 11.6408 -6.04677e-05 11.3814 3.61075e-08 11.116V3.76211C-6.04677e-05 3.49671 0.0759181 3.23732 0.218209 3.01717C0.3605 2.79701 0.562629 2.62609 0.79872 2.5263L6.28443 0.210111L6.2837 0.209349ZM7.93234 1.2684C7.53596 1.10108 7.09261 1.10108 6.69623 1.2684L5.29627 1.85963L10.8017 4.08973L12.7547 3.30497L7.93234 1.2684ZM1.8944 3.29659L7.31502 5.4924L9.28256 4.70002L3.81513 2.48592L1.8944 3.29659ZM11.3371 15.8193C12.4041 15.8193 13.4273 15.3778 14.1817 14.5919C14.9362 13.806 15.36 12.7402 15.36 11.6288C15.36 10.5174 14.9362 9.45153 14.1817 8.66566C13.4273 7.8798 12.4041 7.4383 11.3371 7.4383C10.2702 7.4383 9.24698 7.8798 8.49255 8.66566C7.73812 9.45153 7.31429 10.5174 7.31429 11.6288C7.31429 12.7402 7.73812 13.806 8.49255 14.5919C9.24698 15.3778 10.2702 15.8193 11.3371 15.8193ZM10.6057 12.6139L13.2725 9.83525C13.3065 9.79988 13.3469 9.77184 13.3913 9.75272C13.4357 9.73359 13.4833 9.72377 13.5313 9.7238C13.5794 9.72384 13.6269 9.73373 13.6713 9.75292C13.7157 9.77211 13.756 9.80022 13.79 9.83563C13.8239 9.87105 13.8509 9.91309 13.8692 9.95935C13.8876 10.0056 13.897 10.0552 13.897 10.1052C13.8969 10.1553 13.8874 10.2049 13.869 10.2511C13.8506 10.2973 13.8236 10.3393 13.7896 10.3747L10.8639 13.4223C10.7953 13.4937 10.7023 13.5338 10.6053 13.5338C10.5084 13.5338 10.4154 13.4937 10.3468 13.4223L8.88393 11.8985C8.81526 11.8271 8.77664 11.7301 8.77657 11.629C8.7765 11.528 8.81499 11.431 8.88356 11.3594C8.95214 11.2879 9.04519 11.2477 9.14223 11.2476C9.23928 11.2475 9.33238 11.2876 9.40105 11.3591L10.6057 12.6139Z" fill="#0081C1"/>
</svg>
