<svg width="17" height="18" viewBox="0 0 17 18" fill="none" xmlns="http://www.w3.org/2000/svg">
<g clip-path="url(#clip0_204_1313)">
<path d="M9.18056 1.23603C8.48423 0.953712 7.70531 0.953712 7.00898 1.23603L5.32135 1.92033L12.713 4.79471L15.3131 3.79061C15.2065 3.70215 15.087 3.63067 14.9586 3.57869L9.18056 1.23603ZM15.8009 4.84095L8.67273 7.59511V9.36751C9.14076 8.86503 9.70737 8.46445 10.3372 8.19078C10.967 7.91712 11.6464 7.77625 12.3331 7.77697C13.6794 7.77697 14.9008 8.30792 15.8009 9.17178V4.84095ZM7.51682 7.59511V11.4058C7.38863 11.8546 7.32379 12.3192 7.32416 12.7859C7.32416 13.2645 7.39121 13.7276 7.51682 14.1653V16.0125C7.3432 15.977 7.17321 15.9257 7.00898 15.8591L1.23095 13.5165C0.982067 13.4157 0.768947 13.2428 0.61889 13.0202C0.468833 12.7975 0.38867 12.5351 0.388672 12.2665V4.84095L7.51682 7.59511ZM0.876468 3.79061L8.09477 6.57944L11.1133 5.41274L3.75932 2.55378L1.23095 3.57869C1.09994 3.63186 0.981271 3.70353 0.876468 3.79061ZM12.3331 17.0243C13.4572 17.0243 14.5353 16.5778 15.3301 15.7829C16.1249 14.9881 16.5715 13.91 16.5715 12.7859C16.5715 11.6619 16.1249 10.5838 15.3301 9.78897C14.5353 8.99412 13.4572 8.54758 12.3331 8.54758C11.209 8.54758 10.131 8.99412 9.33616 9.78897C8.54131 10.5838 8.09477 11.6619 8.09477 12.7859C8.09477 13.91 8.54131 14.9881 9.33616 15.7829C10.131 16.5778 11.209 17.0243 12.3331 17.0243ZM14.3722 10.9719C14.4445 10.8996 14.5426 10.8589 14.645 10.8589C14.7473 10.8589 14.8454 10.8996 14.9178 10.9719C14.9901 11.0443 15.0308 11.1424 15.0308 11.2447C15.0308 11.347 14.9901 11.4452 14.9178 11.5175L11.8353 14.6C11.7995 14.6358 11.757 14.6643 11.7102 14.6837C11.6634 14.7032 11.6132 14.7132 11.5625 14.7132C11.5118 14.7132 11.4617 14.7032 11.4148 14.6837C11.368 14.6643 11.3255 14.6358 11.2897 14.6L9.7485 13.0587C9.67615 12.9864 9.63551 12.8883 9.63551 12.7859C9.63551 12.6836 9.67615 12.5855 9.7485 12.5131C9.82085 12.4408 9.91898 12.4001 10.0213 12.4001C10.1236 12.4001 10.2217 12.4408 10.2941 12.5131L11.5625 13.7823L14.3722 10.9719Z" fill="#0D1D2A"/>
</g>
<defs>
<clipPath id="clip0_204_1313">
<rect width="17" height="17" fill="white" transform="translate(0 0.5)"/>
</clipPath>
</defs>
</svg>
