<svg width="20" height="21" viewBox="0 0 20 21" fill="none" xmlns="http://www.w3.org/2000/svg">
<path d="M18.1424 3.52527L14.5588 4.97792L5.73529 1.39997L7.88235 0.529334C8.86414 0.131173 9.95939 0.131173 10.9412 0.529334L17.7141 3.27601C17.8677 3.33834 18.0118 3.42225 18.1424 3.52527ZM9.41294 7.06505L12.9753 5.62076L4.15176 2.04281L1.10941 3.27601C0.955835 3.33831 0.811675 3.42222 0.681176 3.52527L9.41177 7.06386L9.41294 7.06505ZM0 4.93737C0 4.80618 0.0141177 4.67498 0.0411766 4.55095L8.82353 8.11101V12.1267C8.43461 12.9852 8.23392 13.919 8.23529 14.8638C8.23529 15.8418 8.44706 16.7673 8.82353 17.6009V18.7196C8.50353 18.6719 8.18824 18.5884 7.88235 18.4632L1.10941 15.7165C0.782246 15.5839 0.50174 15.355 0.304018 15.0593C0.106296 14.7637 0.00041105 14.4148 0 14.0576V4.93737ZM18.8235 4.93737V9.80338C17.6655 8.83211 16.2089 8.3018 14.7059 8.30422C13.8245 8.30315 12.9522 8.48515 12.1428 8.83898C11.3335 9.19282 10.6042 9.71099 10 10.3615V8.11101L18.7824 4.55095C18.8094 4.67618 18.8235 4.80498 18.8235 4.93737ZM14.7059 20.2307C16.11 20.2307 17.4565 19.6653 18.4494 18.6588C19.4422 17.6523 20 16.2872 20 14.8638C20 13.4404 19.4422 12.0753 18.4494 11.0688C17.4565 10.0623 16.11 9.49687 14.7059 9.49687C13.3018 9.49687 11.9552 10.0623 10.9624 11.0688C9.96954 12.0753 9.41177 13.4404 9.41177 14.8638C9.41177 16.2872 9.96954 17.6523 10.9624 18.6588C11.9552 19.6653 13.3018 20.2307 14.7059 20.2307ZM13.5294 15.8096L16.6424 12.6526C16.7528 12.5406 16.9026 12.4777 17.0588 12.4777C17.215 12.4777 17.3648 12.5406 17.4753 12.6526C17.5858 12.7646 17.6478 12.9165 17.6478 13.0748C17.6478 13.2332 17.5858 13.385 17.4753 13.497L13.9459 17.075C13.8912 17.1305 13.8263 17.1746 13.7549 17.2046C13.6834 17.2347 13.6068 17.2502 13.5294 17.2502C13.452 17.2502 13.3754 17.2347 13.304 17.2046C13.2325 17.1746 13.1676 17.1305 13.1129 17.075L11.9365 15.8823C11.826 15.7703 11.764 15.6185 11.764 15.4601C11.764 15.3018 11.826 15.1499 11.9365 15.0379C12.0469 14.9259 12.1967 14.863 12.3529 14.863C12.5091 14.863 12.659 14.9259 12.7694 15.0379L13.5294 15.8096Z" fill="#41474D"/>
</svg>
