<svg width="20" height="21" viewBox="0 0 20 21" fill="none" xmlns="http://www.w3.org/2000/svg">
<path d="M18.1399 3.52519L14.5569 4.9778L5.73453 1.39994L7.8813 0.529327C8.86295 0.131175 9.95805 0.131175 10.9397 0.529327L17.7117 3.27593C17.8653 3.33826 18.0094 3.42217 18.1399 3.52519ZM9.41168 7.06489L12.9735 5.62062L4.15122 2.04276L1.10928 3.27593C0.955721 3.33823 0.81158 3.42214 0.6811 3.52519L9.4105 7.06369L9.41168 7.06489ZM0.0400104 4.55084C0.0128817 4.67779 -0.000528804 4.80736 1.59505e-05 4.93725V14.056C-4.29649e-05 14.4136 0.105608 14.763 0.303333 15.0592C0.501059 15.3553 0.781784 15.5846 1.10928 15.7173L7.8813 18.4628C8.0201 18.52 8.16244 18.5677 8.30477 18.6083L8.74236 16.8372C8.76588 16.7418 8.79176 16.6488 8.82235 16.5569V8.11081L0.0411869 4.55084H0.0400104ZM18.821 4.93725V8.46383C18.2311 8.27411 17.6012 8.25241 17 8.40112C16.3988 8.54982 15.8495 8.8632 15.412 9.30701L9.99866 14.7954V8.11081L18.7798 4.55084C18.8069 4.67607 18.821 4.80487 18.821 4.93725ZM10.5633 15.9094L16.2449 10.149C16.4492 9.94195 16.6918 9.77775 16.9588 9.66575C17.2258 9.55376 17.5119 9.49617 17.8008 9.49628C18.0897 9.49639 18.3758 9.5542 18.6426 9.6664C18.9095 9.77859 19.152 9.94299 19.3562 10.1502C19.5604 10.3574 19.7224 10.6034 19.8328 10.874C19.9433 11.1447 20.0001 11.4348 20 11.7277C19.9999 12.0206 19.9429 12.3106 19.8322 12.5812C19.7215 12.8518 19.5594 13.0976 19.355 13.3047L13.6735 19.0638C13.3425 19.3996 12.9278 19.6378 12.4736 19.7532L10.7115 20.1992C10.5363 20.2435 10.3528 20.2411 10.1787 20.1922C10.0047 20.1433 9.84615 20.0496 9.7184 19.9202C9.59066 19.7908 9.4981 19.6301 9.44971 19.4537C9.40133 19.2773 9.39876 19.0912 9.44226 18.9136L9.88338 17.127C9.9963 16.6667 10.2316 16.2445 10.5633 15.9105V15.9094Z" fill="#41474D"/>
</svg>
