<svg width="21" height="20" viewBox="0 0 21 20" fill="none" xmlns="http://www.w3.org/2000/svg">
<path d="M11.7334 0.298614C10.7523 -0.0995379 9.65781 -0.0995379 8.67673 0.298614L1.90866 3.04522C1.58136 3.17801 1.3008 3.40726 1.10319 3.70339C0.905579 3.99952 0.79999 4.34894 0.800049 4.70654V13.8253C0.79999 14.1829 0.905579 14.5323 1.10319 14.8285C1.3008 15.1246 1.58136 15.3538 1.90866 15.4866L8.67673 18.232C8.81545 18.2893 8.9577 18.337 9.09995 18.3775L9.38563 17.2207C9.29364 17.1934 9.20301 17.1615 9.11406 17.1253L2.34482 14.3787C2.23585 14.3344 2.14246 14.258 2.07667 14.1594C2.01088 14.0608 1.9757 13.9444 1.97567 13.8253V4.77929L9.61723 7.8801V16.3262C9.8018 15.7657 10.111 15.2553 10.526 14.8355L10.7929 14.5647V7.8801L18.4344 4.77929V8.07688C18.8322 8.05802 19.2302 8.11051 19.61 8.23192V4.70773C19.6101 4.35013 19.5045 4.00071 19.3069 3.70458C19.1093 3.40845 18.8287 3.1792 18.5014 3.04641L11.7334 0.298614ZM9.11406 1.40656C9.81478 1.12221 10.5965 1.12221 11.2972 1.40656L17.4398 3.89913L14.7606 4.98561L7.52579 2.05057L9.11289 1.40656H9.11406ZM5.9434 2.6922L13.1782 5.62843L10.205 6.83298L2.97025 3.89913L5.9434 2.6922ZM11.3572 15.6798L17.0354 9.91948C17.239 9.70979 17.4815 9.54306 17.7489 9.4289C18.0164 9.31474 18.3034 9.25541 18.5935 9.25432C18.8837 9.25324 19.1711 9.31043 19.4394 9.42259C19.7076 9.53475 19.9513 9.69966 20.1564 9.90782C20.3616 10.116 20.524 10.3633 20.6345 10.6354C20.7449 10.9076 20.8012 11.1992 20.8 11.4936C20.7989 11.7879 20.7403 12.0791 20.6276 12.3503C20.515 12.6216 20.3505 12.8675 20.1438 13.074L14.4655 18.8331C14.1347 19.1688 13.7202 19.4071 13.2664 19.5225L11.5053 19.9685C11.3302 20.0128 11.1467 20.0103 10.9728 19.9614C10.7989 19.9125 10.6404 19.8189 10.5128 19.6895C10.3851 19.5601 10.2926 19.3994 10.2442 19.223C10.1959 19.0466 10.1933 18.8605 10.2368 18.6829L10.6776 16.8963C10.7905 16.436 11.0256 16.0138 11.3572 15.6798Z" fill="#41474D"/>
</svg>
