<svg width="35" height="34" viewBox="0 0 35 34" fill="none" xmlns="http://www.w3.org/2000/svg">
<g filter="url(#filter0_dd_97_416)">
<circle cx="17.8291" cy="15" r="9" fill="#1BA169"/>
<path d="M17.8291 10.8036C19.7523 10.8036 21.3112 12.3625 21.3112 14.2857C21.3112 15.7572 20.2773 17.3607 18.2362 19.1136C18.1227 19.2111 17.978 19.2646 17.8284 19.2645C17.6788 19.2644 17.5342 19.2106 17.4209 19.1129L17.2859 18.9957C15.3351 17.2886 14.3469 15.7243 14.3469 14.2857C14.3469 12.3625 15.9059 10.8036 17.8291 10.8036ZM17.8291 12.9464C17.4739 12.9464 17.1332 13.0875 16.882 13.3387C16.6309 13.5899 16.4898 13.9305 16.4898 14.2857C16.4898 14.6409 16.6309 14.9816 16.882 15.2327C17.1332 15.4839 17.4739 15.625 17.8291 15.625C18.1843 15.625 18.5249 15.4839 18.7761 15.2327C19.0272 14.9816 19.1684 14.6409 19.1684 14.2857C19.1684 13.9305 19.0272 13.5899 18.7761 13.3387C18.5249 13.0875 18.1843 12.9464 17.8291 12.9464Z" fill="white"/>
</g>
<defs>
<filter id="filter0_dd_97_416" x="0.829102" y="0" width="34" height="34" filterUnits="userSpaceOnUse" color-interpolation-filters="sRGB">
<feFlood flood-opacity="0" result="BackgroundImageFix"/>
<feColorMatrix in="SourceAlpha" type="matrix" values="0 0 0 0 0 0 0 0 0 0 0 0 0 0 0 0 0 0 127 0" result="hardAlpha"/>
<feMorphology radius="2" operator="dilate" in="SourceAlpha" result="effect1_dropShadow_97_416"/>
<feOffset dy="2"/>
<feGaussianBlur stdDeviation="3"/>
<feColorMatrix type="matrix" values="0 0 0 0 0 0 0 0 0 0 0 0 0 0 0 0 0 0 0.15 0"/>
<feBlend mode="normal" in2="BackgroundImageFix" result="effect1_dropShadow_97_416"/>
<feColorMatrix in="SourceAlpha" type="matrix" values="0 0 0 0 0 0 0 0 0 0 0 0 0 0 0 0 0 0 127 0" result="hardAlpha"/>
<feOffset dy="1"/>
<feGaussianBlur stdDeviation="1"/>
<feColorMatrix type="matrix" values="0 0 0 0 0 0 0 0 0 0 0 0 0 0 0 0 0 0 0.3 0"/>
<feBlend mode="normal" in2="effect1_dropShadow_97_416" result="effect2_dropShadow_97_416"/>
<feBlend mode="normal" in="SourceGraphic" in2="effect2_dropShadow_97_416" result="shape"/>
</filter>
</defs>
</svg>
