<svg width="13" height="9" viewBox="0 0 13 9" fill="none" xmlns="http://www.w3.org/2000/svg">
<path d="M0.25 6.79394C0.25 6.90934 0.338889 6.99992 0.465736 6.99992H0.81018C1.04162 6.53544 1.56856 6.18396 2.18039 6.18396C2.79225 6.18396 3.31907 6.53544 3.55063 6.99992H8.02778V5.33325H0.25V6.79394Z" fill="#FCFCFF"/>
<path d="M2.47244 7C1.85878 7 1.36133 7.37309 1.36133 7.83333C1.36133 8.29358 1.85878 8.66667 2.47244 8.66667C3.0858 8.66615 3.58286 8.29336 3.58355 7.83333C3.58355 7.37311 3.0861 7 2.47244 7Z" fill="#FCFCFF"/>
<path d="M12.3472 4.13851L11.4332 3.66675H8.58337V7.00008H9.13654C9.35545 6.43341 9.85338 6.00461 10.4317 6.00461C11.01 6.00461 11.5081 6.43341 11.7269 7.00008H12.2682C12.3881 7.00008 12.4721 6.88958 12.4721 6.74878V4.38098C12.4751 4.27821 12.4261 4.18308 12.3472 4.13851Z" fill="#FCFCFF"/>
<path d="M10.6857 2.38106C10.5602 2.14326 10.3096 1.99583 10.0381 2.00009H8.58337V3.66667H11.3612L10.6857 2.38106Z" fill="#FCFCFF"/>
<path d="M7.33812 0.333374H0.936001C0.549848 0.333374 0.25 0.653434 0.25 1.04222V4.77782H8.02772V1.04222C8.02772 1.04113 8.02775 1.04004 8.02775 1.03895C8.03085 0.652407 7.72208 0.336488 7.33812 0.333374Z" fill="#FCFCFF"/>
<path d="M10.25 7C9.63634 7.00002 9.13888 7.37311 9.13892 7.83336C9.13895 8.2936 9.6364 8.66669 10.2501 8.66667C10.8634 8.66615 11.3604 8.29336 11.3611 7.83333V7.83331C11.3611 7.37309 10.8637 7 10.25 7Z" fill="#FCFCFF"/>
</svg>
