<svg width="26" height="21" viewBox="0 0 26 21" fill="none" xmlns="http://www.w3.org/2000/svg">
<path d="M25.3681 4.36659L16.1373 0.0961462C16.001 0.0330729 15.848 0 15.6924 0C15.5368 0 15.3838 0.0330729 15.2475 0.0961462L6.01669 4.36659C5.87196 4.43361 5.75127 4.53209 5.66722 4.65172C5.58316 4.77136 5.53882 4.90778 5.53882 5.04675C5.53882 5.18572 5.58316 5.32214 5.66722 5.44178C5.75127 5.56142 5.87196 5.65989 6.01669 5.72692L14.7693 9.77607V18.0988L11.9668 16.8021L11.077 18.1617L15.2475 20.0911C15.3837 20.1543 15.5368 20.1875 15.6924 20.1875C15.848 20.1875 16.0011 20.1543 16.1373 20.0911L25.3681 15.8207C25.5129 15.7537 25.6336 15.6552 25.7177 15.5356C25.8018 15.416 25.8462 15.2795 25.8463 15.1405V5.04675C25.8462 4.90776 25.8018 4.77132 25.7177 4.65168C25.6336 4.53204 25.5129 4.43358 25.3681 4.36659ZM15.6924 1.66301L23.0078 5.04675L15.6924 8.4305L8.377 5.04675L15.6924 1.66301ZM24.0001 14.6816L16.6155 18.098V9.7753L24.0001 6.35894V14.6816Z" fill="#72777E"/>
<path d="M7.38464 10.0937H0V8.54077H7.38464V10.0937Z" fill="#72777E"/>
<path d="M9.23083 16.3051H1.84619V14.7522H9.23083V16.3051Z" fill="#72777E"/>
<path d="M11.0768 13.1994H3.69214V11.6465H11.0768V13.1994Z" fill="#72777E"/>
</svg>
