<svg width="37" height="23" viewBox="0 0 37 23" fill="none" xmlns="http://www.w3.org/2000/svg">
<g clip-path="url(#clip0_872_3392)">
<path d="M0.788956 20.2991V2.70112C0.788956 1.29712 1.93796 0.151123 3.33896 0.151123H34.239C35.643 0.151123 36.789 1.30012 36.789 2.70112V20.3021C36.789 21.7061 35.64 22.8521 34.239 22.8521H3.33896C1.93796 22.8521 0.788956 21.7031 0.788956 20.2991Z" fill="#B9E4EA"/>
<path d="M12.318 19.039H4.14596C3.89096 19.039 3.68396 18.832 3.68396 18.577V7.47103C3.68396 7.21603 3.89096 7.00903 4.14596 7.00903H12.318C12.573 7.00903 12.78 7.21603 12.78 7.47103V18.58C12.78 18.832 12.573 19.039 12.318 19.039Z" fill="white"/>
<path d="M12.75 18.685V19.039H3.71396V18.685C3.71396 17.296 5.47496 16.624 7.42796 16.483V16.387C6.60596 16.138 5.87096 15.52 5.50796 14.503C5.13596 14.371 4.92296 13.15 5.02196 12.991C4.94996 12.478 4.46396 8.45498 8.23196 8.42798C11.991 8.44598 11.511 12.46 11.433 12.982C11.529 13.141 11.319 14.362 10.947 14.494C10.593 15.511 9.85796 16.138 9.03596 16.387V16.474C11.001 16.633 12.75 17.377 12.75 18.685Z" fill="url(#paint0_linear_872_3392)"/>
<path d="M34.239 0.148193H3.33896C1.93496 0.148193 0.788956 1.29719 0.788956 2.69819V4.29719H36.789V2.69819C36.789 1.29719 35.64 0.148193 34.239 0.148193Z" fill="#2F7889"/>
<path d="M23.316 8.4281H15.888C15.495 8.4281 15.177 8.1101 15.177 7.7171C15.177 7.3241 15.495 7.0061 15.888 7.0061H23.316C23.709 7.0061 24.027 7.3241 24.027 7.7171C24.0261 7.9054 23.9509 8.08575 23.8178 8.2189C23.6846 8.35205 23.5043 8.42724 23.316 8.4281ZM25.977 11.9651H15.888C15.495 11.9651 15.177 11.6471 15.177 11.2541C15.177 10.8611 15.495 10.5431 15.888 10.5431H25.977C26.37 10.5431 26.688 10.8611 26.688 11.2541C26.6871 11.4424 26.6119 11.6227 26.4787 11.7559C26.3456 11.889 26.1653 11.9642 25.977 11.9651ZM22.17 15.5021H15.888C15.495 15.5021 15.177 15.1841 15.177 14.7911C15.177 14.3981 15.495 14.0801 15.888 14.0801H22.17C22.563 14.0801 22.881 14.3981 22.881 14.7911C22.8801 14.9794 22.8049 15.1597 22.6718 15.2929C22.5386 15.426 22.3583 15.5012 22.17 15.5021ZM20.46 19.0391H15.888C15.495 19.0391 15.177 18.7211 15.177 18.3281C15.177 17.9351 15.495 17.6171 15.888 17.6171H20.46C20.853 17.6171 21.171 17.9351 21.171 18.3281C21.171 18.7211 20.853 19.0391 20.46 19.0391Z" fill="#82AEC0"/>
<path d="M36.789 8.43698C36.738 8.43398 36.687 8.42798 36.633 8.42798C34.281 8.42798 32.376 10.333 32.376 12.685C32.376 15.037 34.281 16.942 36.633 16.942C36.684 16.942 36.735 16.936 36.789 16.933V8.43698Z" fill="#94D1E0"/>
</g>
<defs>
<linearGradient id="paint0_linear_872_3392" x1="8.23286" y1="8.42888" x2="8.23286" y2="19.0393" gradientUnits="userSpaceOnUse">
<stop offset="0.153" stop-color="#1E88E5"/>
<stop offset="1" stop-color="#1565C0"/>
</linearGradient>
<clipPath id="clip0_872_3392">
<rect width="36" height="22.8" fill="white" transform="translate(0.788956 0.100098)"/>
</clipPath>
</defs>
</svg>
