<svg width="18" height="18" viewBox="0 0 18 18" fill="none" xmlns="http://www.w3.org/2000/svg">
<circle cx="9" cy="9" r="9" fill="#1BA169"/>
<path d="M8.99996 4.80359C10.9232 4.80359 12.4821 6.36252 12.4821 8.28573C12.4821 9.75716 11.4482 11.3607 9.40711 13.1136C9.29362 13.2111 9.14891 13.2646 8.9993 13.2645C8.84968 13.2644 8.70507 13.2106 8.59175 13.1129L8.45675 12.9957C6.50604 11.2886 5.51782 9.7243 5.51782 8.28573C5.51782 6.36252 7.07675 4.80359 8.99996 4.80359ZM8.99996 6.94645C8.64476 6.94645 8.30411 7.08755 8.05295 7.33871C7.80178 7.58988 7.66068 7.93053 7.66068 8.28573C7.66068 8.64093 7.80178 8.98159 8.05295 9.23275C8.30411 9.48391 8.64476 9.62502 8.99996 9.62502C9.35517 9.62502 9.69582 9.48391 9.94698 9.23275C10.1981 8.98159 10.3393 8.64093 10.3393 8.28573C10.3393 7.93053 10.1981 7.58988 9.94698 7.33871C9.69582 7.08755 9.35517 6.94645 8.99996 6.94645Z" fill="white"/>
</svg>
