<svg width="32" height="32" viewBox="0 0 32 32" fill="none" xmlns="http://www.w3.org/2000/svg">
<g clip-path="url(#clip0_204_1068)">
<path d="M28.1431 7H8.875C6.75 7 5 8.71938 5 10.8331V26.1669C5 28.2806 6.75 30 8.875 30H28.125C30.25 30 32 28.3638 32 26.25V10.8331C32 8.71938 30.27 7 28.1431 7ZM23.3213 10.8337C23.8891 10.8372 24.4432 11.0088 24.9137 11.3268C25.3842 11.6448 25.75 12.095 25.9649 12.6206C26.1798 13.1462 26.2343 13.7237 26.1214 14.2803C26.0085 14.8368 25.7333 15.3475 25.3305 15.7478C24.9277 16.1481 24.4154 16.4202 23.8582 16.5297C23.301 16.6392 22.7239 16.5813 22.1995 16.3632C21.6752 16.1451 21.2272 15.7766 20.9121 15.3042C20.5969 14.8318 20.4288 14.2766 20.4287 13.7087C20.4317 12.9441 20.738 12.2118 21.2803 11.6727C21.8225 11.1336 22.5566 10.8316 23.3213 10.8331V10.8337ZM8.84937 28.0837C7.78687 28.0837 6.98313 27.2244 6.98313 26.1675V22.1156L12.6369 17.0662C13.1896 16.5801 13.9061 16.3215 14.6419 16.3427C15.3777 16.364 16.0781 16.6634 16.6019 17.1806L20.5169 21.0625L13.4544 28.0831L8.84937 28.0837ZM30 26.1669C29.9999 26.4188 29.9502 26.6682 29.8537 26.9008C29.7571 27.1335 29.6157 27.3448 29.4375 27.5228C29.2592 27.7008 29.0476 27.8418 28.8148 27.938C28.582 28.0341 28.3325 28.0835 28.0806 28.0831H16.1875L23.505 20.8125C24.0243 20.3744 24.6813 20.1333 25.3607 20.1315C26.0401 20.1297 26.6984 20.3672 27.22 20.8025L30 23.1619V26.1669Z" fill="#006397"/>
<path d="M24 2H4C2.93913 2 1.92172 2.42143 1.17157 3.17157C0.421427 3.92172 0 4.93913 0 6L0 22C0.000731573 22.8868 0.295649 23.7484 0.838543 24.4496C1.38144 25.1508 2.14163 25.6522 3 25.875V9.5C3 8.30653 3.47411 7.16193 4.31802 6.31802C5.16193 5.47411 6.30653 5 7.5 5H27.875C27.6522 4.14163 27.1508 3.38144 26.4496 2.83854C25.7484 2.29565 24.8868 2.00073 24 2Z" fill="#006397"/>
</g>
<defs>
<clipPath id="clip0_204_1068">
<rect width="32" height="32" fill="white"/>
</clipPath>
</defs>
</svg>
