<svg width="33" height="24" viewBox="0 0 33 24" fill="none" xmlns="http://www.w3.org/2000/svg">
<path d="M25.5 21.75C26.745 21.75 27.75 20.745 27.75 19.5C27.75 18.255 26.745 17.25 25.5 17.25C24.255 17.25 23.25 18.255 23.25 19.5C23.25 20.745 24.255 21.75 25.5 21.75ZM27.75 8.25H24V12H30.69L27.75 8.25ZM7.5 21.75C8.745 21.75 9.75 20.745 9.75 19.5C9.75 18.255 8.745 17.25 7.5 17.25C6.255 17.25 5.25 18.255 5.25 19.5C5.25 20.745 6.255 21.75 7.5 21.75ZM28.5 6L33 12V19.5H30C30 21.99 27.99 24 25.5 24C23.01 24 21 21.99 21 19.5H12C12 21.99 9.99 24 7.5 24C5.01 24 3 21.99 3 19.5H0V3C0 1.335 1.335 0 3 0H24V6H28.5ZM3 3V16.5H4.14C4.965 15.585 6.165 15 7.5 15C8.835 15 10.035 15.585 10.86 16.5H21V3H3ZM6 9.75L8.25 7.5L10.5 9.75L15.75 4.5L18 6.75L10.5 14.25L6 9.75Z" fill="#19B986"/>
</svg>
