<svg width="34" height="27" viewBox="0 0 34 27" fill="none" xmlns="http://www.w3.org/2000/svg">
<path d="M28.7942 1.82874C28.5002 1.4244 28.0855 1.08972 27.5901 0.856982C27.0948 0.624242 26.5354 0.501295 25.9661 0.5H8.0339C6.8822 0.5 5.79815 1.00905 5.2058 1.82874L0.735951 8.00579C0.581272 8.21846 0.499678 8.46216 0.500001 8.71053C0.506591 10.0313 1.09317 11.3049 2.15 12.2931V23.7632C2.15 25.2725 3.63005 26.5 5.45 26.5H28.55C30.3699 26.5 31.85 25.2725 31.85 23.7632V12.2931C32.9068 11.3049 33.4934 10.0313 33.5 8.71053C33.5003 8.46216 33.4187 8.21846 33.264 8.00579L28.7942 1.82874ZM30.1736 9.054C30.0718 9.7147 29.6833 10.322 29.0808 10.7625C28.4784 11.203 27.7031 11.4464 26.9 11.4474C25.08 11.4474 23.6 10.2199 23.6 8.71053C23.6 8.61747 23.5588 8.53537 23.5357 8.44779L23.5686 8.44232L22.313 3.23684H25.9661L30.1736 9.054ZM15.0514 3.23684H18.947L20.2885 8.79947C20.2307 10.2664 18.782 11.4474 17 11.4474C15.218 11.4474 13.7693 10.2664 13.7116 8.79947L15.0514 3.23684ZM8.0339 3.23684H11.687L10.433 8.44232L10.466 8.44779C10.4412 8.53537 10.4 8.61747 10.4 8.71053C10.4 10.2199 8.91995 11.4474 7.1 11.4474C6.29686 11.4464 5.52162 11.203 4.91916 10.7625C4.3167 10.322 3.92825 9.7147 3.8264 9.054L8.0339 3.23684ZM13.7 23.7632V19.6579H20.3V23.7632H13.7ZM23.6 23.7632V19.6579C23.6 18.1485 22.1199 16.9211 20.3 16.9211H13.7C11.8801 16.9211 10.4 18.1485 10.4 19.6579V23.7632H5.45V13.9899C5.97965 14.1035 6.5258 14.1842 7.1 14.1842C8.0369 14.1846 8.9631 14.0192 9.81673 13.6989C10.6704 13.3787 11.4317 12.9111 12.05 12.3273C13.2594 13.4658 15.0316 14.1842 17 14.1842C18.9685 14.1842 20.7405 13.4658 21.95 12.3273C22.5683 12.9111 23.3296 13.3787 24.1833 13.6989C25.0369 14.0192 25.9631 14.1846 26.9 14.1842C27.4742 14.1842 28.0203 14.1035 28.55 13.9899V23.7632H23.6Z" fill="#19B986"/>
</svg>
