<svg width="27" height="18" viewBox="0 0 27 18" fill="none" xmlns="http://www.w3.org/2000/svg">
<path d="M3.73563 10.6875L2.92563 8.99997H8.59563L7.94763 7.31247H2.65563L1.84563 5.62498H10.2696L9.62162 3.93748H1.69443L0.765625 2.24999H4.81563C4.81563 1.65326 5.0432 1.08096 5.44827 0.659007C5.85335 0.237052 6.40276 0 6.97563 0H19.9356V4.49998H23.1756L26.4156 8.99997V14.6249H24.2556C24.2556 15.52 23.9143 16.3785 23.3067 17.0114C22.699 17.6444 21.8749 17.9999 21.0156 17.9999C20.1563 17.9999 19.3322 17.6444 18.7246 17.0114C18.117 16.3785 17.7756 15.52 17.7756 14.6249H13.4556C13.4556 15.52 13.1143 16.3785 12.5067 17.0114C11.899 17.6444 11.0749 17.9999 10.2156 17.9999C9.35632 17.9999 8.53222 17.6444 7.9246 17.0114C7.31698 16.3785 6.97563 15.52 6.97563 14.6249H4.81563V10.6875H3.73563ZM21.0156 16.3124C21.4453 16.3124 21.8573 16.1346 22.1611 15.8182C22.4649 15.5017 22.6356 15.0725 22.6356 14.6249C22.6356 14.1774 22.4649 13.7482 22.1611 13.4317C21.8573 13.1152 21.4453 12.9375 21.0156 12.9375C20.586 12.9375 20.1739 13.1152 19.8701 13.4317C19.5663 13.7482 19.3956 14.1774 19.3956 14.6249C19.3956 15.0725 19.5663 15.5017 19.8701 15.8182C20.1739 16.1346 20.586 16.3124 21.0156 16.3124ZM22.6356 6.18748H19.9356V8.99997H24.7524L22.6356 6.18748ZM10.2156 16.3124C10.6453 16.3124 11.0573 16.1346 11.3611 15.8182C11.6649 15.5017 11.8356 15.0725 11.8356 14.6249C11.8356 14.1774 11.6649 13.7482 11.3611 13.4317C11.0573 13.1152 10.6453 12.9375 10.2156 12.9375C9.78597 12.9375 9.37392 13.1152 9.07011 13.4317C8.7663 13.7482 8.59563 14.1774 8.59563 14.6249C8.59563 15.0725 8.7663 15.5017 9.07011 15.8182C9.37392 16.1346 9.78597 16.3124 10.2156 16.3124Z" fill="#006397"/>
</svg>
