<svg width="96" height="96" viewBox="0 0 96 96" fill="none" xmlns="http://www.w3.org/2000/svg">
<path d="M91.7191 29.3865C89.2828 29.3865 86.8771 29.3865 84.4611 29.3865C83.7272 29.3865 83.0034 29.3559 82.2695 29.3967C81.8311 29.4273 81.6069 29.2743 81.3928 28.897C78.0798 23.1045 73.5742 18.4541 67.8758 14.9766C63.1255 12.0803 57.9878 10.3262 52.4526 9.69396C32.6257 7.42999 15.3879 20.4326 10.9435 38.2282C7.67124 51.292 10.4134 63.1626 19.18 73.4525C24.8376 80.1016 32.0446 84.3645 40.638 85.9146C54.3996 88.3927 66.2754 84.5684 76.0003 74.4825C81.4132 68.8633 84.665 62.0918 85.929 54.3922C87.0198 47.7635 86.4285 41.2673 84.1859 34.9241C84.1451 34.8017 84.0942 34.6691 84.0534 34.5467C84.2063 34.4346 84.3592 34.4855 84.5121 34.4855C87.3868 34.4855 90.2512 34.4855 93.1259 34.4753C93.4928 34.4753 93.6458 34.5671 93.7477 34.9343C95.2768 40.38 95.8374 45.9278 95.4399 51.5674C94.2268 68.5574 83.8189 83.8443 68.5282 91.1258C62.8605 93.8181 56.9175 95.4294 50.6585 95.6843C34.9906 96.3166 22.0037 90.6465 11.7691 78.7963C6.22372 72.3715 2.82918 64.8759 1.3205 56.5338C0.403053 51.4654 0.32151 46.3765 1.05547 41.2673C2.3093 32.5785 5.65287 24.7973 11.1983 17.9952C18.548 8.9903 27.9365 3.24876 39.3943 1.16835C52.9725 -1.28939 65.3885 1.64767 76.4896 9.85713C83.1767 14.8032 88.1411 21.177 91.5152 28.795C91.5764 28.9378 91.6376 29.0704 91.6885 29.2131C91.7089 29.2437 91.6987 29.2845 91.7191 29.3865Z" fill="#0080C0"/>
</svg>
