<svg width="54" height="38" viewBox="0 0 54 38" fill="none" xmlns="http://www.w3.org/2000/svg">
<path d="M42.0826 37.1939C39.9929 37.1939 37.9032 37.1837 35.8134 37.2041C35.4465 37.2041 35.2732 37.0817 35.1509 36.7452C34.8145 35.8681 34.4577 35.0115 34.0907 34.1549C32.3781 30.1368 27.1283 29.1068 24.0498 32.207C22.5717 33.7062 21.165 35.2767 19.748 36.837C19.5136 37.1021 19.2689 37.2041 18.9121 37.2041C12.8163 37.1939 6.72036 37.1939 0.624476 37.2041C0.155562 37.2041 0.0434337 37.0613 0.074015 36.6228C0.11479 36.0619 0.104596 35.501 0.074015 34.9401C0.0536275 34.522 0.206532 34.4302 0.593896 34.4302C3.92727 34.4404 7.25044 34.3996 10.5838 34.4608C11.644 34.4812 12.3473 34.1753 13.0609 33.3798C17.3729 28.5357 21.7562 23.7426 26.1192 18.9495C26.3026 18.7455 26.3434 18.5926 26.2313 18.3274C24.111 13.3303 21.9907 8.32306 19.8907 3.31579C19.7582 2.99965 19.5747 2.89767 19.2383 2.89767C16.8938 2.90787 14.5492 2.89767 12.2046 2.91807C11.8173 2.91807 11.6644 2.82628 11.6847 2.40816C11.7153 1.79627 11.7051 1.18439 11.6847 0.572502C11.6745 0.276757 11.7561 0.154379 12.0823 0.154379C16.0069 0.164577 19.9315 0.133984 23.8459 0.174776C26.0376 0.195172 27.5667 1.29657 28.4331 3.30559C30.5636 8.21088 32.7043 13.106 34.8145 18.0215C35.0285 18.511 35.263 18.6945 35.8134 18.6843C39.3609 18.6537 42.9083 18.6639 46.466 18.6741C47.6281 18.6741 48.1581 19.184 48.2907 20.3364C48.729 24.1811 49.1877 28.0258 49.6464 31.8705C49.7891 33.0637 49.9319 34.267 50.0644 35.4602C50.1561 36.2965 49.5649 37.0613 48.7188 37.1429C48.1174 37.2041 47.4955 37.1837 46.8839 37.1837C45.2835 37.1939 43.6831 37.1939 42.0826 37.1939Z" fill="#0080C0"/>
<path d="M53.5812 0.205343C52.7351 1.12317 51.9603 1.96962 51.1754 2.81606C46.7003 7.64996 42.2253 12.4839 37.7604 17.3382C37.4444 17.6747 37.3424 17.6441 37.1691 17.2362C36.2109 14.9926 35.2323 12.749 34.2537 10.5156C34.1212 10.2199 34.1722 10.0465 34.376 9.81196C37.1997 6.71174 40.0132 3.60131 42.8267 0.490891C43.0102 0.297127 43.1835 0.164551 43.4791 0.164551C46.7411 0.174749 50.0031 0.17475 53.255 0.17475C53.3263 0.164551 53.3875 0.174748 53.5812 0.205343Z" fill="#0081C0"/>
</svg>
