<svg width="219" height="59" viewBox="0 0 219 59" fill="none" xmlns="http://www.w3.org/2000/svg">
<path d="M16.5588 20.4843L13.6753 20.5724C13.0591 20.6357 12.4366 20.5681 11.8484 20.3738C11.4135 20.2097 11.1684 19.7479 11.2762 19.2957C11.4081 18.6062 11.9217 18.2832 12.8172 18.3269H24.6809L26.111 12.494H13.9175C8.69362 12.1862 5.43609 14.1599 4.14487 18.4151C3.68967 20.8659 4.0565 22.7956 5.24536 24.2042C6.41899 25.5983 8.12116 26.3171 10.3519 26.3608H13.5871C15.0249 26.2734 15.7292 26.699 15.7001 27.6375C15.4509 28.5038 14.7172 28.8854 13.4991 28.7822H2.03201L0.534912 34.8575H13.7195C18.7817 35.0181 21.7606 32.927 22.656 28.5843C23.0662 26.1629 22.8314 24.2334 21.9514 22.7957C21.0707 21.3423 19.2732 20.5718 16.5588 20.4842" fill="#0082C2"/>
<path d="M61.3064 5.14307H54.065L52.7007 10.4256H59.9417L61.3064 5.14307Z" fill="#0082C2"/>
<path d="M52.2383 12.3628L46.6912 34.8572H54.0433L59.5018 12.3628H52.2383Z" fill="#0082C2"/>
<path d="M104.635 34.8576H111.855L115.574 20.0664C116.053 18.2297 115.663 16.2749 114.517 14.762C113.416 13.2633 111.644 12.4061 109.785 12.4723L86.5203 12.4948L81.084 34.8576H88.3252L92.2432 18.6356H95.3691C95.7368 18.6224 96.0886 18.7861 96.3154 19.0758C96.5354 19.3556 96.6238 19.7167 96.5577 20.0664L92.8596 34.8576H100.079L103.799 20.0664C103.914 19.5976 103.98 19.1181 103.997 18.6356H107.144C107.512 18.6221 107.864 18.7859 108.09 19.0759C108.31 19.3554 108.399 19.7167 108.333 20.0664L104.635 34.8576Z" fill="#828282"/>
<path d="M136.121 12.5166H128.835C123.523 12.8395 119.693 15.2094 117.345 19.6262C115.6 23.4997 115.337 26.9552 116.554 29.9928C117.049 31.318 117.907 32.4774 119.029 33.3386C120.123 34.1605 121.733 34.6373 123.861 34.7689L137.111 34.8569L138.652 28.4737H125.996C123.12 28.372 122.107 26.6405 122.958 23.2793C123.306 22.0183 124.056 20.9054 125.094 20.1102C126.304 19.1405 127.813 18.6192 129.364 18.6349H133.92L133.457 20.4843H128.549C127.42 20.543 126.392 21.1515 125.798 22.1126C125.204 22.9736 124.886 23.9946 124.885 25.0405C124.906 26.0093 125.277 26.5449 125.996 26.6475H139.07L141.029 18.6349L141.073 18.415C141.457 17.0906 141.269 15.6658 140.556 14.4859C139.844 13.3199 138.365 12.6634 136.121 12.5166" fill="#828282"/>
<path d="M157.78 12.4724H152.828V12.4949H144.002L138.542 34.8576H145.763L149.724 18.6358H155.095C155.464 18.616 155.819 18.7811 156.041 19.0761C156.249 19.3617 156.336 19.7175 156.283 20.0667L152.563 34.8576H159.784L163.503 20.0667C163.996 18.2305 163.605 16.2695 162.447 14.7621C161.37 13.2689 159.62 12.4103 157.78 12.4724Z" fill="#828282"/>
<path d="M168.83 5.14307L163.394 27.2424C162.932 29.0896 163.328 31.0466 164.472 32.5687C165.537 34.0632 167.282 34.923 169.116 34.8577H171.143L176.797 28.6725H171.713C171.351 28.6888 171.005 28.5237 170.789 28.2323C170.572 27.9508 170.477 27.5944 170.525 27.2424C170.569 27.0368 170.694 26.5122 170.9 25.6685C171.105 24.8247 171.332 23.8855 171.582 22.851C171.831 21.816 172.146 20.5135 172.528 18.9436H177.767L179.351 12.4505H174.091C174.135 12.2895 174.759 9.85364 175.961 5.14307L168.83 5.14307Z" fill="#828282"/>
<path d="M46.8123 14.6955C45.7035 13.1934 43.9239 12.3366 42.0582 12.4065H35.8292L38.7809 0H31.5053L23.1511 34.8573H30.4142L34.2884 18.5915H39.4386C39.8065 18.5782 40.1586 18.7419 40.3855 19.0318C40.6056 19.3113 40.6938 19.6724 40.6273 20.0219L37.0397 34.8573H44.3252L47.8911 20.0218C48.3709 18.175 47.973 16.2101 46.8123 14.6955" fill="#0082C2"/>
<path d="M80.7094 27.7041C82.4551 23.8449 82.7191 20.3964 81.5014 17.3587C81.0039 16.0316 80.1466 14.8694 79.0256 14.0023C77.932 13.1734 76.3216 12.7002 74.1944 12.5826L61.8461 12.4946L60.3059 18.8553H68.6913V18.8777H72.0591C75.0819 18.9215 76.0943 20.653 75.0965 24.0722C74.7424 25.33 73.9941 26.441 72.9617 27.242C71.7509 28.2113 70.2423 28.7323 68.6914 28.7166H65.082L67.0188 20.9469H59.7993L55.1682 40H62.2395L63.5411 34.8349H69.2198C74.5317 34.5132 78.3615 32.1362 80.7094 27.7041Z" fill="#0082C2"/>
<path d="M200.533 18.9645L218.011 0.000488281H206.705L196.976 10.7601L200.533 18.9645Z" fill="#0082C2"/>
<path d="M195.005 12.9387L190.783 3.19973C189.941 1.25732 188.026 0.000224862 185.909 0H42.2531L41.5447 2.97739H181.456L188.63 19.9888L173.226 37.0227H66.7911L66.083 40H181.146L185.931 34.8086C188.43 32.0979 192.653 31.9262 195.364 34.4251C196.086 35.0906 196.652 35.9072 197.022 36.8166L198.318 40H206.737L198.55 21.1155L195.005 12.9387Z" fill="#0082C2"/>
<path d="M210.548 19.9927H196.305L195.336 24.5857L200.859 39.9995H212.474C213.411 39.9995 214.17 39.2401 214.17 38.3032C214.17 38.3032 214.17 38.3032 214.17 38.3032L212.245 21.6897C212.245 20.7525 211.485 19.9927 210.548 19.9927" fill="#0082C2"/>
<path d="M2.03291 55.084C1.68758 55.084 1.41691 54.9953 1.22091 54.818C1.02491 54.6407 0.926912 54.3887 0.926912 54.062C0.926912 53.9967 0.931579 53.9313 0.940912 53.866C0.959579 53.8007 0.973579 53.7353 0.982912 53.67L2.85891 44.78H3.81091L1.99091 53.348C1.98158 53.3947 1.97225 53.4367 1.96291 53.474C1.96291 53.5113 1.96291 53.5533 1.96291 53.6C1.96291 54.0107 2.18225 54.216 2.62091 54.216C2.72358 54.216 2.84491 54.202 2.98491 54.174C3.13425 54.146 3.26958 54.1087 3.39091 54.062L3.36291 54.832C3.18558 54.9067 2.96625 54.9673 2.70491 55.014C2.45291 55.0607 2.22891 55.084 2.03291 55.084ZM7.33563 55.14C6.70096 55.14 6.17363 55.0047 5.75363 54.734C5.33363 54.454 5.02096 54.0807 4.81563 53.614C4.6103 53.1473 4.50763 52.634 4.50763 52.074C4.50763 51.458 4.61963 50.8793 4.84363 50.338C5.07696 49.7967 5.38963 49.3207 5.78163 48.91C6.17363 48.49 6.6263 48.1633 7.13963 47.93C7.6623 47.6967 8.2083 47.58 8.77763 47.58C9.40296 47.58 9.92563 47.72 10.3456 48C10.775 48.28 11.0923 48.6533 11.2976 49.12C11.503 49.5773 11.6056 50.0907 11.6056 50.66C11.6056 51.276 11.4936 51.8547 11.2696 52.396C11.0456 52.9373 10.733 53.4133 10.3316 53.824C9.93963 54.2347 9.48696 54.5567 8.97363 54.79C8.4603 55.0233 7.9143 55.14 7.33563 55.14ZM7.50363 54.3C7.89563 54.3 8.2783 54.216 8.65163 54.048C9.02496 53.8707 9.3563 53.6233 9.64563 53.306C9.9443 52.9887 10.1823 52.62 10.3596 52.2C10.537 51.7707 10.6256 51.304 10.6256 50.8C10.6256 50.352 10.5463 49.9507 10.3876 49.596C10.2383 49.232 10.0143 48.9473 9.71563 48.742C9.4263 48.5273 9.05763 48.42 8.60963 48.42C8.21763 48.42 7.83496 48.5087 7.46163 48.686C7.0883 48.8633 6.7523 49.1153 6.45363 49.442C6.1643 49.7593 5.93096 50.1327 5.75363 50.562C5.5763 50.982 5.48763 51.444 5.48763 51.948C5.48763 52.396 5.5623 52.802 5.71163 53.166C5.8703 53.5207 6.09896 53.8007 6.39763 54.006C6.6963 54.202 7.06496 54.3 7.50363 54.3ZM14.507 58.122C13.723 58.122 13.1117 57.9727 12.673 57.674C12.2437 57.3753 11.931 56.974 11.735 56.47L12.407 56.008C12.5937 56.4653 12.8784 56.806 13.261 57.03C13.653 57.254 14.1197 57.366 14.661 57.366C15.0997 57.366 15.5244 57.2773 15.935 57.1C16.3457 56.932 16.7004 56.6753 16.999 56.33C17.2977 55.9847 17.503 55.5507 17.615 55.028L17.923 53.586C17.559 54.0433 17.1157 54.412 16.593 54.692C16.0797 54.9627 15.571 55.098 15.067 55.098C14.5444 55.098 14.0917 54.958 13.709 54.678C13.3264 54.398 13.0324 54.0293 12.827 53.572C12.631 53.1147 12.533 52.62 12.533 52.088C12.533 51.5093 12.6404 50.954 12.855 50.422C13.079 49.8807 13.3824 49.4 13.765 48.98C14.1477 48.5507 14.5864 48.21 15.081 47.958C15.585 47.706 16.1077 47.58 16.649 47.58C17.2464 47.58 17.727 47.7387 18.091 48.056C18.455 48.3733 18.7444 48.7653 18.959 49.232L19.281 47.706H20.121L18.567 55.028C18.427 55.7 18.1517 56.2647 17.741 56.722C17.3397 57.1887 16.8544 57.5387 16.285 57.772C15.7157 58.0053 15.123 58.122 14.507 58.122ZM15.515 54.3C15.7857 54.3 16.0564 54.2487 16.327 54.146C16.5977 54.0433 16.8544 53.908 17.097 53.74C17.349 53.5627 17.5637 53.3667 17.741 53.152C17.9277 52.9373 18.0677 52.718 18.161 52.494L18.637 50.24C18.5904 49.8853 18.469 49.5727 18.273 49.302C18.0864 49.022 17.853 48.8073 17.573 48.658C17.293 48.4993 16.9897 48.42 16.663 48.42C16.2244 48.42 15.8137 48.5273 15.431 48.742C15.0577 48.9473 14.7264 49.2273 14.437 49.582C14.1477 49.9273 13.919 50.3053 13.751 50.716C13.5924 51.1267 13.513 51.5327 13.513 51.934C13.513 52.3633 13.597 52.76 13.765 53.124C13.933 53.4787 14.1664 53.7633 14.465 53.978C14.7637 54.1927 15.1137 54.3 15.515 54.3ZM22.1482 47.706H23.1002L21.5602 55H20.6082L22.1482 47.706ZM22.7782 44.78H23.7302L23.4362 46.18H22.4842L22.7782 44.78ZM25.9126 55.14C25.3433 55.14 24.8206 55.0467 24.3446 54.86C23.8686 54.6733 23.4813 54.4027 23.1826 54.048L23.7426 53.404C24.06 53.74 24.4053 53.9873 24.7786 54.146C25.152 54.3047 25.558 54.384 25.9966 54.384C26.4166 54.384 26.7853 54.3233 27.1026 54.202C27.42 54.0713 27.6673 53.894 27.8446 53.67C28.0313 53.4367 28.1246 53.166 28.1246 52.858C28.1246 52.5033 27.9706 52.256 27.6626 52.116C27.364 51.9667 26.9253 51.8127 26.3466 51.654C25.908 51.5233 25.5393 51.402 25.2406 51.29C24.942 51.1687 24.718 51.0193 24.5686 50.842C24.4286 50.6553 24.3586 50.3987 24.3586 50.072C24.3586 49.5587 24.494 49.12 24.7646 48.756C25.0446 48.3827 25.418 48.0933 25.8846 47.888C26.3513 47.6827 26.874 47.58 27.4526 47.58C28.0033 47.58 28.4746 47.6733 28.8666 47.86C29.2586 48.0467 29.562 48.2847 29.7766 48.574L29.1886 49.134C28.9926 48.854 28.7406 48.6487 28.4326 48.518C28.1246 48.3873 27.77 48.322 27.3686 48.322C27.0046 48.322 26.664 48.378 26.3466 48.49C26.0293 48.602 25.7726 48.77 25.5766 48.994C25.39 49.218 25.2966 49.5027 25.2966 49.848C25.2966 50.156 25.4086 50.3753 25.6326 50.506C25.866 50.6273 26.244 50.758 26.7666 50.898C27.2613 51.038 27.6813 51.1827 28.0266 51.332C28.3813 51.472 28.6473 51.6493 28.8246 51.864C29.002 52.0787 29.0906 52.3633 29.0906 52.718C29.0906 53.194 28.9553 53.614 28.6846 53.978C28.4233 54.342 28.0546 54.6267 27.5786 54.832C27.1026 55.0373 26.5473 55.14 25.9126 55.14ZM30.6835 54.034C30.6835 53.978 30.6881 53.922 30.6975 53.866C30.7068 53.8007 30.7161 53.74 30.7255 53.684L31.8315 48.462H30.8655L31.0335 47.706H31.9855L32.5175 45.242H33.4695L32.9375 47.706H34.5335L34.3655 48.462H32.7835L31.7755 53.208C31.7475 53.3107 31.7288 53.39 31.7195 53.446C31.7101 53.502 31.7055 53.5533 31.7055 53.6C31.7055 53.8053 31.7708 53.9593 31.9015 54.062C32.0321 54.1553 32.1908 54.202 32.3775 54.202C32.5548 54.202 32.7181 54.1787 32.8675 54.132C33.0168 54.0853 33.1475 54.0387 33.2595 53.992C33.3808 53.9453 33.4601 53.908 33.4975 53.88L33.5815 54.65C33.4975 54.6967 33.3715 54.7573 33.2035 54.832C33.0355 54.9067 32.8395 54.9673 32.6155 55.014C32.3915 55.0607 32.1535 55.084 31.9015 55.084C31.5561 55.084 31.2668 55 31.0335 54.832C30.8001 54.6547 30.6835 54.3887 30.6835 54.034ZM36.1755 47.706H37.1275L35.5875 55H34.6355L36.1755 47.706ZM36.8055 44.78H37.7575L37.4635 46.18H36.5115L36.8055 44.78ZM40.64 55.14C40.052 55.14 39.548 55 39.128 54.72C38.708 54.44 38.386 54.0667 38.162 53.6C37.9473 53.1333 37.84 52.6153 37.84 52.046C37.84 51.458 37.952 50.898 38.176 50.366C38.4 49.8247 38.708 49.3487 39.1 48.938C39.5013 48.518 39.9633 48.1867 40.486 47.944C41.018 47.7013 41.5873 47.58 42.194 47.58C42.866 47.58 43.412 47.7387 43.832 48.056C44.2613 48.364 44.5413 48.784 44.672 49.316L43.692 49.61C43.5707 49.2273 43.3653 48.9333 43.076 48.728C42.796 48.5227 42.4553 48.42 42.054 48.42C41.6433 48.42 41.242 48.5133 40.85 48.7C40.4673 48.8773 40.122 49.1293 39.814 49.456C39.5153 49.7827 39.2727 50.156 39.086 50.576C38.9087 50.996 38.82 51.444 38.82 51.92C38.82 52.3773 38.8993 52.7833 39.058 53.138C39.226 53.4927 39.4547 53.7773 39.744 53.992C40.0427 54.1973 40.3787 54.3 40.752 54.3C41.0507 54.3 41.3493 54.244 41.648 54.132C41.956 54.02 42.2313 53.8707 42.474 53.684C42.7167 53.488 42.894 53.278 43.006 53.054L43.888 53.334C43.692 53.6793 43.4213 53.992 43.076 54.272C42.7307 54.5427 42.348 54.7573 41.928 54.916C41.508 55.0653 41.0787 55.14 40.64 55.14ZM47.3091 55.14C46.7398 55.14 46.2171 55.0467 45.7411 54.86C45.2651 54.6733 44.8778 54.4027 44.5791 54.048L45.1391 53.404C45.4565 53.74 45.8018 53.9873 46.1751 54.146C46.5485 54.3047 46.9545 54.384 47.3931 54.384C47.8131 54.384 48.1818 54.3233 48.4991 54.202C48.8165 54.0713 49.0638 53.894 49.2411 53.67C49.4278 53.4367 49.5211 53.166 49.5211 52.858C49.5211 52.5033 49.3671 52.256 49.0591 52.116C48.7605 51.9667 48.3218 51.8127 47.7431 51.654C47.3045 51.5233 46.9358 51.402 46.6371 51.29C46.3385 51.1687 46.1145 51.0193 45.9651 50.842C45.8251 50.6553 45.7551 50.3987 45.7551 50.072C45.7551 49.5587 45.8905 49.12 46.1611 48.756C46.4411 48.3827 46.8145 48.0933 47.2811 47.888C47.7478 47.6827 48.2705 47.58 48.8491 47.58C49.3998 47.58 49.8711 47.6733 50.2631 47.86C50.6551 48.0467 50.9585 48.2847 51.1731 48.574L50.5851 49.134C50.3891 48.854 50.1371 48.6487 49.8291 48.518C49.5211 48.3873 49.1665 48.322 48.7651 48.322C48.4011 48.322 48.0605 48.378 47.7431 48.49C47.4258 48.602 47.1691 48.77 46.9731 48.994C46.7865 49.218 46.6931 49.5027 46.6931 49.848C46.6931 50.156 46.8051 50.3753 47.0291 50.506C47.2625 50.6273 47.6405 50.758 48.1631 50.898C48.6578 51.038 49.0778 51.1827 49.4231 51.332C49.7778 51.472 50.0438 51.6493 50.2211 51.864C50.3985 52.0787 50.4871 52.3633 50.4871 52.718C50.4871 53.194 50.3518 53.614 50.0811 53.978C49.8198 54.342 49.4511 54.6267 48.9751 54.832C48.4991 55.0373 47.9438 55.14 47.3091 55.14ZM57.3443 55.14C56.775 55.14 56.2523 55.0467 55.7763 54.86C55.3003 54.6733 54.913 54.4027 54.6143 54.048L55.1743 53.404C55.4916 53.74 55.837 53.9873 56.2103 54.146C56.5836 54.3047 56.9896 54.384 57.4283 54.384C57.8483 54.384 58.217 54.3233 58.5343 54.202C58.8516 54.0713 59.099 53.894 59.2763 53.67C59.463 53.4367 59.5563 53.166 59.5563 52.858C59.5563 52.5033 59.4023 52.256 59.0943 52.116C58.7956 51.9667 58.357 51.8127 57.7783 51.654C57.3396 51.5233 56.971 51.402 56.6723 51.29C56.3736 51.1687 56.1496 51.0193 56.0003 50.842C55.8603 50.6553 55.7903 50.3987 55.7903 50.072C55.7903 49.5587 55.9256 49.12 56.1963 48.756C56.4763 48.3827 56.8496 48.0933 57.3163 47.888C57.783 47.6827 58.3056 47.58 58.8843 47.58C59.435 47.58 59.9063 47.6733 60.2983 47.86C60.6903 48.0467 60.9936 48.2847 61.2083 48.574L60.6203 49.134C60.4243 48.854 60.1723 48.6487 59.8643 48.518C59.5563 48.3873 59.2016 48.322 58.8003 48.322C58.4363 48.322 58.0956 48.378 57.7783 48.49C57.461 48.602 57.2043 48.77 57.0083 48.994C56.8216 49.218 56.7283 49.5027 56.7283 49.848C56.7283 50.156 56.8403 50.3753 57.0643 50.506C57.2976 50.6273 57.6756 50.758 58.1983 50.898C58.693 51.038 59.113 51.1827 59.4583 51.332C59.813 51.472 60.079 51.6493 60.2563 51.864C60.4336 52.0787 60.5223 52.3633 60.5223 52.718C60.5223 53.194 60.387 53.614 60.1163 53.978C59.855 54.342 59.4863 54.6267 59.0103 54.832C58.5343 55.0373 57.979 55.14 57.3443 55.14ZM63.1091 47.706H64.0611L62.5211 55H61.5691L63.1091 47.706ZM63.7391 44.78H64.6911L64.3971 46.18H63.4451L63.7391 44.78ZM66.0896 47.706H66.9716L66.6076 49.358C66.9996 48.8073 67.4616 48.3733 67.9936 48.056C68.5256 47.7387 69.0623 47.58 69.6036 47.58C69.9676 47.58 70.2756 47.6547 70.5276 47.804C70.7796 47.9533 70.9663 48.168 71.0876 48.448C71.2183 48.728 71.2789 49.0733 71.2696 49.484C71.5496 49.064 71.8529 48.714 72.1796 48.434C72.5063 48.154 72.8563 47.944 73.2296 47.804C73.6029 47.6547 73.9716 47.58 74.3356 47.58C74.7276 47.58 75.0403 47.6547 75.2736 47.804C75.5069 47.944 75.6796 48.1493 75.7916 48.42C75.9036 48.6907 75.9596 49.008 75.9596 49.372C75.9596 49.5773 75.9456 49.792 75.9176 50.016C75.8896 50.24 75.8476 50.478 75.7916 50.73L74.8816 55H73.9296L74.7836 50.926C74.8769 50.4873 74.9236 50.1093 74.9236 49.792C74.9236 49.3347 74.8303 48.9987 74.6436 48.784C74.4569 48.56 74.1816 48.448 73.8176 48.448C73.4723 48.448 73.1316 48.5367 72.7956 48.714C72.4596 48.8913 72.1469 49.1387 71.8576 49.456C71.5683 49.764 71.3256 50.128 71.1296 50.548L70.1916 55H69.2396L70.0936 50.926C70.1496 50.6927 70.1869 50.4827 70.2056 50.296C70.2336 50.1093 70.2476 49.932 70.2476 49.764C70.2476 49.316 70.1543 48.9847 69.9676 48.77C69.7809 48.5553 69.5056 48.448 69.1416 48.448C68.6283 48.448 68.1243 48.6393 67.6296 49.022C67.1443 49.4047 66.7476 49.9087 66.4396 50.534L65.5016 55H64.5496L66.0896 47.706ZM78.3946 47.706H79.2346L78.9406 49.12C79.3139 48.6627 79.7573 48.294 80.2706 48.014C80.7933 47.7247 81.3159 47.58 81.8386 47.58C82.3799 47.58 82.8419 47.7247 83.2246 48.014C83.6166 48.294 83.9153 48.6673 84.1206 49.134C84.3259 49.6007 84.4286 50.1047 84.4286 50.646C84.4286 51.2153 84.3213 51.7707 84.1066 52.312C83.8919 52.844 83.5979 53.3247 83.2246 53.754C82.8513 54.1833 82.4219 54.524 81.9366 54.776C81.4513 55.0187 80.9333 55.14 80.3826 55.14C79.8039 55.14 79.3233 54.9813 78.9406 54.664C78.5579 54.3467 78.2826 53.9547 78.1146 53.488L77.1626 57.982H76.2106L78.3946 47.706ZM80.2986 54.3C80.7186 54.3 81.1153 54.1973 81.4886 53.992C81.8713 53.7867 82.2073 53.516 82.4966 53.18C82.7859 52.844 83.0146 52.466 83.1826 52.046C83.3506 51.626 83.4346 51.2107 83.4346 50.8C83.4346 50.3613 83.3506 49.9647 83.1826 49.61C83.0239 49.246 82.7953 48.9567 82.4966 48.742C82.1979 48.5273 81.8433 48.42 81.4326 48.42C81.2086 48.42 80.9613 48.4667 80.6906 48.56C80.4293 48.6533 80.1679 48.7887 79.9066 48.966C79.6546 49.134 79.4306 49.3253 79.2346 49.54C79.0386 49.7547 78.8939 49.9833 78.8006 50.226L78.3246 52.466C78.3899 52.8113 78.5113 53.124 78.6886 53.404C78.8753 53.6747 79.1039 53.894 79.3746 54.062C79.6546 54.2207 79.9626 54.3 80.2986 54.3ZM86.5114 55.084C86.1661 55.084 85.8954 54.9953 85.6994 54.818C85.5034 54.6407 85.4054 54.3887 85.4054 54.062C85.4054 53.9967 85.4101 53.9313 85.4194 53.866C85.4381 53.8007 85.4521 53.7353 85.4614 53.67L87.3374 44.78H88.2894L86.4694 53.348C86.4601 53.3947 86.4508 53.4367 86.4414 53.474C86.4414 53.5113 86.4414 53.5533 86.4414 53.6C86.4414 54.0107 86.6608 54.216 87.0994 54.216C87.2021 54.216 87.3234 54.202 87.4634 54.174C87.6128 54.146 87.7481 54.1087 87.8694 54.062L87.8414 54.832C87.6641 54.9067 87.4448 54.9673 87.1834 55.014C86.9314 55.0607 86.7074 55.084 86.5114 55.084ZM90.3708 47.706H91.3228L89.7828 55H88.8308L90.3708 47.706ZM91.0008 44.78H91.9528L91.6588 46.18H90.7068L91.0008 44.78ZM93.5053 48.462H92.5533L92.7073 47.706H93.6733L93.7013 47.51C93.8226 46.9127 94.0093 46.3993 94.2613 45.97C94.5226 45.5407 94.8353 45.214 95.1993 44.99C95.5633 44.7567 95.9553 44.64 96.3753 44.64C96.646 44.64 96.898 44.682 97.1313 44.766C97.374 44.85 97.5793 44.962 97.7473 45.102L97.3133 45.788C97.22 45.6853 97.0846 45.606 96.9073 45.55C96.7393 45.494 96.5666 45.466 96.3893 45.466C95.9786 45.466 95.624 45.6387 95.3253 45.984C95.0266 46.3293 94.8073 46.8287 94.6673 47.482L94.6253 47.706H96.5153L96.3613 48.462H94.4573L92.4413 57.968H91.4893L93.5053 48.462ZM97.863 47.706H98.815L97.275 55H96.323L97.863 47.706ZM98.493 44.78H99.445L99.151 46.18H98.199L98.493 44.78ZM102.383 55.14C101.786 55.14 101.277 55.0047 100.857 54.734C100.437 54.454 100.115 54.0807 99.8915 53.614C99.6675 53.1473 99.5508 52.6247 99.5415 52.046C99.5415 51.4673 99.6442 50.912 99.8495 50.38C100.064 49.848 100.363 49.372 100.745 48.952C101.137 48.532 101.595 48.2007 102.117 47.958C102.64 47.706 103.209 47.58 103.825 47.58C104.283 47.58 104.693 47.6547 105.057 47.804C105.421 47.9533 105.706 48.1727 105.911 48.462C106.126 48.7513 106.233 49.1153 106.233 49.554C106.243 50.2913 105.925 50.8373 105.281 51.192C104.647 51.5373 103.671 51.71 102.355 51.71C102.066 51.71 101.744 51.7053 101.389 51.696C101.044 51.6773 100.647 51.6493 100.199 51.612L100.339 50.94C100.787 50.968 101.17 50.9913 101.487 51.01C101.814 51.0193 102.117 51.024 102.397 51.024C103.144 51.024 103.732 50.968 104.161 50.856C104.591 50.7347 104.899 50.562 105.085 50.338C105.281 50.114 105.375 49.8527 105.365 49.554C105.365 49.2647 105.291 49.0313 105.141 48.854C104.992 48.6673 104.796 48.532 104.553 48.448C104.32 48.364 104.054 48.322 103.755 48.322C103.27 48.322 102.827 48.4293 102.425 48.644C102.033 48.8493 101.693 49.1293 101.403 49.484C101.114 49.8293 100.89 50.2213 100.731 50.66C100.582 51.0987 100.507 51.5467 100.507 52.004C100.517 52.4427 100.596 52.844 100.745 53.208C100.895 53.572 101.119 53.866 101.417 54.09C101.725 54.3047 102.103 54.412 102.551 54.412C103.037 54.412 103.489 54.2907 103.909 54.048C104.339 53.8053 104.675 53.474 104.917 53.054L105.701 53.292C105.487 53.656 105.207 53.978 104.861 54.258C104.516 54.5287 104.133 54.7433 103.713 54.902C103.293 55.0607 102.85 55.14 102.383 55.14ZM109.624 55.14C109.082 55.14 108.616 55 108.224 54.72C107.832 54.44 107.533 54.0667 107.328 53.6C107.122 53.1333 107.02 52.6293 107.02 52.088C107.02 51.5093 107.127 50.954 107.342 50.422C107.566 49.8807 107.864 49.4 108.238 48.98C108.62 48.5507 109.054 48.21 109.54 47.958C110.034 47.706 110.548 47.58 111.08 47.58C111.658 47.58 112.139 47.7433 112.522 48.07C112.904 48.3873 113.175 48.7747 113.334 49.232L114.286 44.78H115.238L113.334 53.754C113.324 53.7913 113.315 53.824 113.306 53.852C113.306 53.88 113.306 53.9033 113.306 53.922C113.306 54.0807 113.394 54.16 113.572 54.16L113.39 55C113.315 55.0093 113.245 55.0187 113.18 55.028C113.114 55.0373 113.054 55.0373 112.998 55.028C112.792 55.0187 112.634 54.9627 112.522 54.86C112.419 54.7573 112.368 54.6267 112.368 54.468C112.368 54.4213 112.372 54.37 112.382 54.314C112.391 54.2487 112.405 54.16 112.424 54.048C112.452 53.9267 112.484 53.7727 112.522 53.586C112.148 54.062 111.696 54.44 111.164 54.72C110.641 55 110.128 55.14 109.624 55.14ZM110.016 54.3C110.24 54.3 110.482 54.2533 110.744 54.16C111.014 54.0667 111.276 53.9407 111.528 53.782C111.78 53.614 112.004 53.418 112.2 53.194C112.405 52.97 112.554 52.7367 112.648 52.494L113.11 50.24C113.072 49.904 112.956 49.6007 112.76 49.33C112.564 49.05 112.326 48.8307 112.046 48.672C111.766 48.504 111.467 48.42 111.15 48.42C110.73 48.42 110.328 48.5227 109.946 48.728C109.572 48.9333 109.241 49.2087 108.952 49.554C108.662 49.89 108.434 50.268 108.266 50.688C108.098 51.0987 108.014 51.514 108.014 51.934C108.014 52.3727 108.093 52.7693 108.252 53.124C108.42 53.4787 108.653 53.7633 108.952 53.978C109.26 54.1927 109.614 54.3 110.016 54.3Z" fill="#828282"/>
</svg>
