<svg width="14" height="16" viewBox="0 0 14 16" fill="none" xmlns="http://www.w3.org/2000/svg">
<path fill-rule="evenodd" clip-rule="evenodd" d="M6.81695 6.78747C7.33128 6.78747 7.82454 6.58315 8.18822 6.21947C8.5519 5.85579 8.75622 5.36253 8.75622 4.8482C8.75622 4.33388 8.5519 3.84062 8.18822 3.47693C7.82454 3.11325 7.33128 2.90894 6.81695 2.90894C6.30263 2.90894 5.80937 3.11325 5.44568 3.47693C5.082 3.84062 4.87769 4.33388 4.87769 4.8482C4.87769 5.36253 5.082 5.85579 5.44568 6.21947C5.80937 6.58315 6.30263 6.78747 6.81695 6.78747ZM6.81695 3.87857C7.07411 3.87857 7.32074 3.98073 7.50259 4.16257C7.68443 4.34441 7.78658 4.59104 7.78658 4.8482C7.78658 5.10536 7.68443 5.35199 7.50259 5.53383C7.32074 5.71568 7.07411 5.81783 6.81695 5.81783C6.55979 5.81783 6.31316 5.71568 6.13132 5.53383C5.94948 5.35199 5.84732 5.10536 5.84732 4.8482C5.84732 4.59104 5.94948 4.34441 6.13132 4.16257C6.31316 3.98073 6.55979 3.87857 6.81695 3.87857Z" fill="#006397"/>
<path fill-rule="evenodd" clip-rule="evenodd" d="M2.45337 4.64066C2.45337 7.23249 5.02581 11.6356 6.81672 11.6356C8.6086 11.6356 11.1801 7.23249 11.1801 4.64066C11.1801 2.08471 9.23401 0 6.81672 0C4.39942 0 2.45337 2.08471 2.45337 4.64066ZM10.2104 4.64066C10.2104 6.76707 7.93373 10.666 6.81672 10.666C5.70067 10.666 3.423 6.76804 3.423 4.64066C3.423 2.6054 4.95017 0.969633 6.81672 0.969633C8.68326 0.969633 10.2104 2.6054 10.2104 4.64066Z" fill="#006397"/>
<path d="M10.1476 7.40804C10.0317 7.35816 9.93974 7.26503 9.89139 7.14845C9.84303 7.03187 9.84205 6.90103 9.88864 6.78374C9.93523 6.66644 10.0257 6.57194 10.1409 6.52031C10.2561 6.46868 10.3868 6.464 10.5054 6.50725C10.8997 6.66364 11.255 6.90437 11.5464 7.21257C11.8379 7.52076 12.0584 7.88897 12.1925 8.29138L13.486 12.1699C13.6321 12.6073 13.672 13.0732 13.6026 13.5291C13.5331 13.985 13.3563 14.4178 13.0867 14.7919C12.817 15.166 12.4623 15.4707 12.0518 15.6807C11.6412 15.8907 11.1866 16.0002 10.7255 16H2.90928C2.44821 16 1.99373 15.8905 1.58332 15.6804C1.17291 15.4703 0.818322 15.1656 0.548795 14.7915C0.279267 14.4175 0.102521 13.9847 0.0331316 13.5288C-0.0362577 13.073 0.00369724 12.6072 0.149702 12.1699L1.44222 8.29138C1.5787 7.88175 1.80465 7.50765 2.10369 7.1962C2.40272 6.88476 2.76734 6.64378 3.17108 6.49077C3.23067 6.46817 3.29413 6.45753 3.35784 6.45945C3.42154 6.46137 3.48424 6.47583 3.54236 6.50198C3.60048 6.52814 3.65288 6.56549 3.69657 6.61189C3.74026 6.6583 3.77437 6.71286 3.79698 6.77245C3.81958 6.83204 3.83022 6.8955 3.8283 6.95921C3.82637 7.02291 3.81192 7.08562 3.78576 7.14374C3.75961 7.20186 3.72226 7.25425 3.67585 7.29794C3.62945 7.34163 3.57489 7.37575 3.5153 7.39835C3.2459 7.5002 3.00257 7.66077 2.80298 7.86841C2.60339 8.07605 2.45256 8.32554 2.36143 8.59875L1.06891 12.4773C0.971813 12.7688 0.94538 13.0793 0.991794 13.383C1.03821 13.6868 1.15614 13.9751 1.33587 14.2244C1.5156 14.4736 1.75198 14.6766 2.02554 14.8165C2.2991 14.9565 2.602 15.0294 2.90928 15.0294H10.7265C11.0337 15.0294 11.3366 14.9565 11.6102 14.8165C11.8838 14.6766 12.1201 14.4736 12.2999 14.2244C12.4796 13.9751 12.5975 13.6868 12.6439 13.383C12.6904 13.0793 12.6639 12.7688 12.5668 12.4773L11.2733 8.59875C11.1839 8.33042 11.037 8.08489 10.8427 7.87936C10.6484 7.67384 10.4115 7.51331 10.1486 7.40901L10.1476 7.40804Z" fill="#006397"/>
</svg>
