<svg width="72" height="72" viewBox="0 0 72 72" fill="none" xmlns="http://www.w3.org/2000/svg">
<path d="M35.9996 68.305V41.1399L6.46118 31.9092V59.0742L35.9996 68.305Z" fill="#FFBD7F"/>
<path d="M36 41.1399L65.5385 31.9092V59.0742L36 68.305V66.9861V41.1399Z" fill="#EDAB6E"/>
<path d="M65.5385 31.9092L36 41.14L41.5385 50.3707L71.0769 41.14L65.5385 31.9092Z" fill="#FDC18A"/>
<path d="M6.46144 31.9092L35.9999 41.14L30.4614 50.3707L0.922974 41.14L6.46144 31.9092Z" fill="#FDC18A"/>
<path fill-rule="evenodd" clip-rule="evenodd" d="M7.89638 36.1559C8.32057 36.4385 8.43517 37.0118 8.1524 37.4358L6.98506 39.1869L28.8965 46.1986C29.382 46.3539 29.6497 46.8736 29.4943 47.3591C29.339 47.8446 28.8193 48.1123 28.3338 47.9569L5.25685 40.5723C4.98098 40.484 4.76255 40.2713 4.6669 39.9979C4.57125 39.7245 4.60948 39.4221 4.77015 39.181L6.61631 36.4118C6.89908 35.9877 7.4722 35.8731 7.89638 36.1559Z" fill="#FFDAB8"/>
<path d="M6.46118 31.9112L35.9996 41.142L65.5381 31.9112L35.9996 22.6147L6.46118 31.9112Z" fill="#EDAB6E"/>
<path fill-rule="evenodd" clip-rule="evenodd" d="M9.34581 43.1526C9.8556 43.1526 10.2689 43.5659 10.2689 44.0757V56.9987C10.2689 57.5085 9.8556 57.9218 9.34581 57.9218C8.83601 57.9218 8.42273 57.5085 8.42273 56.9987V44.0757C8.42273 43.5659 8.83601 43.1526 9.34581 43.1526Z" fill="#FFDAB8"/>
<path fill-rule="evenodd" clip-rule="evenodd" d="M36.275 42.0241C36.0957 42.0802 35.9037 42.0802 35.7245 42.0241L6.18595 32.7933C5.80058 32.6729 5.53821 32.3161 5.53821 31.9123C5.53821 31.5085 5.80058 31.1517 6.18595 31.0311L20.9553 26.4157C21.4417 26.2638 21.9596 26.535 22.1115 27.0215C22.2636 27.5081 21.9924 28.0258 21.5058 28.1779L9.55601 31.9123L35.9997 40.1759L62.4435 31.9123L50.4937 28.1779C50.0071 28.0258 49.7359 27.5081 49.888 27.0215C50.0399 26.535 50.5578 26.2638 51.0442 26.4157L65.8135 31.0311C66.1989 31.1517 66.4613 31.5085 66.4613 31.9123C66.4613 32.3161 66.1989 32.6729 65.8135 32.7933L36.275 42.0241Z" fill="#1F0D02"/>
<path fill-rule="evenodd" clip-rule="evenodd" d="M36.0001 40.2205C35.4904 40.2205 35.077 40.6336 35.077 41.1435V66.9897C35.077 67.4994 35.4904 67.9128 36.0001 67.9128C36.5098 67.9128 36.9232 67.4994 36.9232 66.9897V41.1435C36.9232 40.6336 36.5098 40.2205 36.0001 40.2205ZM65.5386 42.0666C65.0288 42.0666 64.6155 42.4798 64.6155 42.9897V59.0776C64.6155 59.5875 65.0288 60.0007 65.5386 60.0007C66.0483 60.0007 66.4616 59.5875 66.4616 59.0776V42.9897C66.4616 42.4798 66.0483 42.0666 65.5386 42.0666Z" fill="#1F0D02"/>
<path fill-rule="evenodd" clip-rule="evenodd" d="M35.9998 40.2205C36.5095 40.2205 36.9228 40.6336 36.9228 41.1435V68.3084C36.9228 68.8183 36.5095 69.2315 35.9998 69.2315C35.49 69.2315 35.0767 68.8183 35.0767 68.3084V41.1435C35.0767 40.6336 35.49 40.2205 35.9998 40.2205ZM6.46129 42.0873C6.97108 42.0873 7.38436 42.5005 7.38436 43.0104V59.0776C7.38436 59.5875 6.97108 60.0007 6.46129 60.0007C5.95149 60.0007 5.53821 59.5875 5.53821 59.0776V43.0104C5.53821 42.5005 5.95149 42.0873 6.46129 42.0873Z" fill="#1F0D02"/>
<path fill-rule="evenodd" clip-rule="evenodd" d="M65.0637 31.1188C64.6265 31.3811 64.4847 31.9481 64.7471 32.3852L69.6818 40.61L41.9563 49.2742L36.7915 40.6662C36.5294 40.229 35.9622 40.0872 35.5252 40.3495C35.0881 40.6119 34.9463 41.1788 35.2086 41.616L40.7471 50.8468C40.9662 51.2121 41.4071 51.3799 41.8138 51.2529L71.3522 42.0222C71.6225 41.9378 71.8389 41.734 71.9397 41.4694C72.0403 41.205 72.0141 40.9089 71.8684 40.6662L66.33 31.4354C66.0678 30.9982 65.5007 30.8564 65.0637 31.1188Z" fill="#1F0D02"/>
<path fill-rule="evenodd" clip-rule="evenodd" d="M6.93646 31.1188C7.37361 31.3811 7.51536 31.9481 7.25307 32.3852L2.31823 40.61L30.0438 49.2742L35.2086 40.6662C35.4707 40.229 36.0378 40.0872 36.4748 40.3495C36.912 40.6119 37.0538 41.1788 36.7914 41.616L31.253 50.8468C31.0338 51.2121 30.593 51.3799 30.1863 51.2529L0.647738 42.0222C0.37759 41.9378 0.161092 41.734 0.0604026 41.4694C-0.0403051 41.205 -0.0140715 40.9089 0.131535 40.6662L5.67 31.4354C5.9323 30.9982 6.49931 30.8564 6.93646 31.1188Z" fill="#1F0D02"/>
<path d="M24.9619 35.2684C24.9619 35.5233 24.7552 35.73 24.5004 35.73C24.2455 35.73 24.0388 35.5233 24.0388 35.2684C24.0388 35.0135 24.2455 34.8069 24.5004 34.8069C24.7552 34.8069 24.9619 35.0135 24.9619 35.2684Z" fill="#17F2CB"/>
<path fill-rule="evenodd" clip-rule="evenodd" d="M24.4257 34.9024C24.4328 34.9224 24.4223 34.9444 24.4023 34.9514C24.2759 34.9961 24.1854 35.1166 24.1854 35.2582C24.1854 35.2794 24.1682 35.2967 24.147 35.2967C24.1257 35.2967 24.1085 35.2794 24.1085 35.2582C24.1085 35.083 24.2205 34.9341 24.3766 34.8789C24.3967 34.8718 24.4186 34.8823 24.4257 34.9024Z" fill="#9DFFEE"/>
<path fill-rule="evenodd" clip-rule="evenodd" d="M24.3918 34.7942C24.3989 34.8142 24.3884 34.8362 24.3683 34.8433C24.1987 34.9032 24.0773 35.065 24.0773 35.255C24.0773 35.4962 24.2728 35.6916 24.5139 35.6916C24.7039 35.6916 24.8657 35.5702 24.9256 35.4006C24.9327 35.3806 24.9547 35.3701 24.9747 35.3771C24.9947 35.3842 25.0052 35.4062 24.9982 35.4262C24.9277 35.6256 24.7375 35.7686 24.5139 35.7686C24.2303 35.7686 24.0004 35.5386 24.0004 35.255C24.0004 35.0314 24.1433 34.8412 24.3427 34.7708C24.3627 34.7637 24.3847 34.7742 24.3918 34.7942Z" fill="#1F0D02"/>
<path fill-rule="evenodd" clip-rule="evenodd" d="M24.9507 34.8953C24.9657 34.9103 24.9657 34.9347 24.9507 34.9497L24.5661 35.3343C24.551 35.3493 24.5267 35.3493 24.5117 35.3343L24.3578 35.1805C24.3428 35.1654 24.3428 35.1411 24.3578 35.1261C24.3728 35.111 24.3972 35.111 24.4122 35.1261L24.5389 35.2527L24.8963 34.8953C24.9113 34.8803 24.9357 34.8803 24.9507 34.8953Z" fill="black"/>
</svg>
