<svg width="24" height="18" viewBox="0 0 24 18" fill="none" xmlns="http://www.w3.org/2000/svg">
<path d="M5.57054 0.449951C2.50913 0.449951 0 2.82631 0 5.72684C0 6.85076 0.377736 7.8953 1.01729 8.75387L4.89094 15.1154C5.4334 15.7887 5.79416 15.6609 6.24537 15.0801L10.5177 8.17276C10.6039 8.02408 10.6716 7.86632 10.7307 7.70504C11.0018 7.07733 11.1412 6.40534 11.1411 5.72684C11.1411 2.82631 8.63275 0.449951 5.57054 0.449951ZM5.57054 2.92258C7.21942 2.92258 8.53089 4.16519 8.53089 5.72709C8.53089 7.28899 7.21942 8.5311 5.57054 8.5311C3.92193 8.5311 2.6102 7.28874 2.6102 5.72709C2.6102 4.16519 3.92193 2.92258 5.57054 2.92258Z" fill="#72777E"/>
<path fill-rule="evenodd" clip-rule="evenodd" d="M23.3988 1.81372C22.8027 1.82632 22.2051 1.85026 21.6064 1.89234L21.6987 3.28641C22.2738 3.24684 22.8499 3.22138 23.4264 3.21006L23.3988 1.81372ZM20.2222 2.02036C19.3018 2.12897 18.3733 2.2837 17.4555 2.53243L17.8012 3.8834C18.6352 3.65761 19.4994 3.5117 20.3771 3.40813L20.2222 2.02036ZM16.0812 3.00014C15.8062 3.11546 15.5399 3.24875 15.2843 3.39906L15.2833 3.40032L15.2817 3.40082C14.917 3.61905 14.5326 3.896 14.2188 4.29845C13.9915 4.59001 13.8055 4.95869 13.762 5.39465L15.1135 5.53703C15.1236 5.43472 15.1788 5.29964 15.278 5.17264H15.2785V5.17213C15.4385 4.9665 15.6783 4.77977 15.9634 4.60891L15.9645 4.60841C16.1677 4.48923 16.3794 4.38348 16.5979 4.29189L16.0812 3.00014ZM15.3854 6.15896L14.5092 7.22619C14.7169 7.40662 14.9347 7.54522 15.1451 7.66114L15.1477 7.6624L15.1504 7.66391C15.8486 8.04116 16.5685 8.2541 17.2359 8.4562L17.6195 7.11606C16.9523 6.91396 16.3234 6.71891 15.7844 6.4281C15.63 6.34293 15.4947 6.25397 15.3854 6.15896ZM18.9227 7.49306L18.5482 8.83546L18.7253 8.88788L18.9429 8.9539C19.6628 9.17642 20.3525 9.41405 20.969 9.74292L21.5944 8.50307C20.849 8.10516 20.0753 7.8451 19.3296 7.61477L19.3275 7.61427L19.1041 7.54648L18.9227 7.49306ZM22.8664 9.43346L21.9053 10.4213C22.1324 10.6549 22.3024 10.9359 22.3852 11.2262L22.3857 11.2277L22.3863 11.23C22.4849 11.5689 22.4852 11.9676 22.408 12.3703L23.7407 12.6404C23.8494 12.0719 23.867 11.4477 23.6882 10.8316C23.5325 10.2867 23.2354 9.81348 22.8664 9.43346ZM21.9427 13.212C21.7959 13.3593 21.6336 13.492 21.4584 13.6081H21.4578C20.9804 13.9271 20.4265 14.1675 19.8381 14.3742L20.2769 15.6957C20.9204 15.4696 21.5812 15.1924 22.1987 14.7796L22.2003 14.7784L22.2011 14.7779C22.4547 14.6092 22.6893 14.4161 22.9011 14.2016L21.9427 13.212ZM18.5898 14.7464C17.7375 14.9641 16.8664 15.1299 15.9846 15.2705L16.1926 16.6513C17.1001 16.5064 18.0113 16.3332 18.9169 16.1019L18.5898 14.7464ZM14.6581 15.4611C13.7705 15.5762 12.8781 15.6702 11.9831 15.7504L12.1004 17.1419C13.0092 17.0608 13.9196 16.9652 14.8286 16.8471L14.6581 15.4611ZM10.638 15.86C9.74113 15.9275 8.84215 15.9824 7.94238 16.0288L8.01029 17.4239C8.91881 17.3773 9.82814 17.3216 10.7372 17.253L10.638 15.86ZM6.59033 16.0918C6.05105 16.1158 5.51044 16.1354 4.96851 16.1536L5.01307 17.5499C5.55839 17.5321 6.1036 17.5114 6.64869 17.4879L6.59033 16.0918Z" fill="#72777E"/>
</svg>
