<svg width="17" height="20" viewBox="0 0 17 20" fill="none" xmlns="http://www.w3.org/2000/svg">
<path d="M13.7541 12C14.0495 11.9999 14.342 12.058 14.615 12.1709C14.888 12.2839 15.136 12.4495 15.345 12.6584C15.5539 12.8672 15.7197 13.1152 15.8328 13.3881C15.9458 13.6611 16.0041 13.9536 16.0041 14.249V15.167C16.004 15.7405 15.8246 16.2996 15.4911 16.766C13.9451 18.929 11.4201 20 8.00005 20C4.57805 20 2.05505 18.928 0.513052 16.763C0.181376 16.2973 0.00310901 15.7398 0.00305198 15.168V14.248C0.00292062 13.9526 0.0609959 13.66 0.17396 13.3871C0.286924 13.1141 0.452563 12.866 0.661415 12.6571C0.870267 12.4482 1.11824 12.2824 1.39117 12.1693C1.66409 12.0562 1.95662 11.998 2.25205 11.998H13.7531L13.7541 12ZM8.00005 0.00402832C9.32613 0.00402832 10.5979 0.530813 11.5356 1.46849C12.4733 2.40618 13.0001 3.67795 13.0001 5.00403C13.0001 6.33011 12.4733 7.60188 11.5356 8.53956C10.5979 9.47724 9.32613 10.004 8.00005 10.004C6.67397 10.004 5.4022 9.47724 4.46452 8.53956C3.52684 7.60188 3.00005 6.33011 3.00005 5.00403C3.00005 3.67795 3.52684 2.40618 4.46452 1.46849C5.4022 0.530813 6.67397 0.00402832 8.00005 0.00402832Z" fill="#72777E"/>
</svg>
