<svg width="25" height="17" viewBox="0 0 25 17" fill="none" xmlns="http://www.w3.org/2000/svg">
<path d="M23.933 9.6H23.333V7.2C23.333 6.53738 22.7956 6 22.133 6H20.333L16.2537 0.90075C16.0288 0.619719 15.7436 0.392853 15.4192 0.236937C15.0947 0.0810211 14.7394 4.50036e-05 14.3795 0H10.133C9.47033 0 8.93296 0.537375 8.93296 1.2V6H2.93296C2.27033 6 1.73296 6.53738 1.73296 7.2V9.6H1.13296C0.801459 9.6 0.532959 9.8685 0.532959 10.2V11.4C0.532959 11.7315 0.801459 12 1.13296 12H2.99333C2.96483 12.1976 2.93296 12.3945 2.93296 12.6C2.93296 14.9198 4.81321 16.8 7.13296 16.8C9.45271 16.8 11.333 14.9198 11.333 12.6C11.333 12.3945 11.3011 12.1976 11.2726 12H13.7937C13.7652 12.1976 13.7333 12.3945 13.7333 12.6C13.7333 14.9198 15.6136 16.8 17.9333 16.8C20.2531 16.8 22.1333 14.9198 22.1333 12.6C22.1333 12.3945 22.1015 12.1976 22.073 12H23.933C24.2645 12 24.533 11.7315 24.533 11.4V10.2C24.533 9.8685 24.2645 9.6 23.933 9.6ZM11.333 2.4H14.3795L17.2595 6H11.333V2.4ZM7.13296 14.4C6.14033 14.4 5.33296 13.5926 5.33296 12.6C5.33296 11.6074 6.14033 10.8 7.13296 10.8C8.12558 10.8 8.93296 11.6074 8.93296 12.6C8.93296 13.5926 8.12558 14.4 7.13296 14.4ZM17.933 14.4C16.9403 14.4 16.133 13.5926 16.133 12.6C16.133 11.6074 16.9403 10.8 17.933 10.8C18.9256 10.8 19.733 11.6074 19.733 12.6C19.733 13.5926 18.9256 14.4 17.933 14.4Z" fill="#006397"/>
</svg>
