<svg width="24" height="24" viewBox="0 0 24 24" fill="none" xmlns="http://www.w3.org/2000/svg">
<circle cx="11.9795" cy="11.6666" r="6" stroke="#EE350C" stroke-width="6"/>
<path fill-rule="evenodd" clip-rule="evenodd" d="M5.97949 7.73618L11.9791 4.66663L17.9786 7.73618L11.9791 10.6663L5.97949 7.73618Z" fill="#FBF063"/>
<path fill-rule="evenodd" clip-rule="evenodd" d="M11.9795 10.6658L5.97949 7.73621V15.3096L11.9799 18.3393L11.9795 10.6658Z" fill="#F29C1F"/>
<path fill-rule="evenodd" clip-rule="evenodd" d="M11.979 18.3393L17.9794 15.3096V7.73621L11.9794 10.6658L11.979 18.3393Z" fill="#F0C419"/>
<path opacity="0.5" fill-rule="evenodd" clip-rule="evenodd" d="M8.7749 6.29977L14.7738 9.29928L15.0895 9.1451L9.08339 6.14197L8.7749 6.29977Z" fill="#F29C1F"/>
<path opacity="0.5" fill-rule="evenodd" clip-rule="evenodd" d="M7.97705 6.714L13.8346 9.75997L16.0656 8.67042L9.99598 5.68109L7.97705 6.714Z" fill="white"/>
<path opacity="0.5" fill-rule="evenodd" clip-rule="evenodd" d="M13.8364 9.76L16.0658 8.66919V10.204L13.8364 11.4342V9.76Z" fill="white"/>
</svg>
