<svg width="32" height="32" viewBox="0 0 32 32" fill="none" xmlns="http://www.w3.org/2000/svg">
<g filter="url(#filter0_dd_97_421)">
<circle cx="16" cy="14" r="5" stroke="#EE350C" stroke-width="6"/>
</g>
<path fill-rule="evenodd" clip-rule="evenodd" d="M11 10.4402L15.7694 8L20.5388 10.4402L15.7694 12.7695L11 10.4402Z" fill="#FBF063"/>
<path fill-rule="evenodd" clip-rule="evenodd" d="M15.7697 12.7691L11 10.4402V16.4607L15.7701 18.8692L15.7697 12.7691Z" fill="#F29C1F"/>
<path fill-rule="evenodd" clip-rule="evenodd" d="M15.7694 18.8692L20.5395 16.4607V10.4402L15.7697 12.7691L15.7694 18.8692Z" fill="#F0C419"/>
<path opacity="0.5" fill-rule="evenodd" clip-rule="evenodd" d="M13.2223 9.2983L17.9911 11.6828L18.2421 11.5602L13.4675 9.17285L13.2223 9.2983Z" fill="#F29C1F"/>
<path opacity="0.5" fill-rule="evenodd" clip-rule="evenodd" d="M12.588 9.62751L17.2445 12.0489L19.0181 11.1828L14.193 8.8064L12.588 9.62751Z" fill="white"/>
<path opacity="0.5" fill-rule="evenodd" clip-rule="evenodd" d="M17.246 12.049L19.0182 11.1819V12.402L17.246 13.3799V12.049Z" fill="white"/>
<defs>
<filter id="filter0_dd_97_421" x="0" y="0" width="32" height="32" filterUnits="userSpaceOnUse" color-interpolation-filters="sRGB">
<feFlood flood-opacity="0" result="BackgroundImageFix"/>
<feColorMatrix in="SourceAlpha" type="matrix" values="0 0 0 0 0 0 0 0 0 0 0 0 0 0 0 0 0 0 127 0" result="hardAlpha"/>
<feMorphology radius="2" operator="dilate" in="SourceAlpha" result="effect1_dropShadow_97_421"/>
<feOffset dy="2"/>
<feGaussianBlur stdDeviation="3"/>
<feColorMatrix type="matrix" values="0 0 0 0 0 0 0 0 0 0 0 0 0 0 0 0 0 0 0.15 0"/>
<feBlend mode="normal" in2="BackgroundImageFix" result="effect1_dropShadow_97_421"/>
<feColorMatrix in="SourceAlpha" type="matrix" values="0 0 0 0 0 0 0 0 0 0 0 0 0 0 0 0 0 0 127 0" result="hardAlpha"/>
<feOffset dy="1"/>
<feGaussianBlur stdDeviation="1"/>
<feColorMatrix type="matrix" values="0 0 0 0 0 0 0 0 0 0 0 0 0 0 0 0 0 0 0.3 0"/>
<feBlend mode="normal" in2="effect1_dropShadow_97_421" result="effect2_dropShadow_97_421"/>
<feBlend mode="normal" in="SourceGraphic" in2="effect2_dropShadow_97_421" result="shape"/>
</filter>
</defs>
</svg>
