<svg width="71" height="72" viewBox="0 0 71 72" fill="none" xmlns="http://www.w3.org/2000/svg">
<path d="M35.2478 72C15.8125 72 0 55.8501 0 36C0 16.1499 15.8125 0 35.2478 0C54.683 0 70.4955 16.1499 70.4955 36C70.4955 55.8501 54.683 72 35.2478 72Z" fill="#FF897A"/>
<path d="M51.6968 60.0002C32.2615 60.0002 16.449 43.8503 16.449 24.0002C16.449 15.6911 19.2465 8.05196 23.8938 1.95264C10.0192 6.79393 0 20.2108 0 36.0002C0 55.8503 15.8125 72.0002 35.2478 72.0002C46.5476 72.0002 56.5959 66.5195 63.0507 58.0478C59.4822 59.293 55.6725 60.0002 51.6968 60.0002Z" fill="#FF5449"/>
<path d="M41.2358 36.1423L53.0261 24.352C54.708 22.6701 54.708 19.9433 53.0261 18.2614C51.3442 16.5795 48.6175 16.5795 46.9356 18.2614L35.1452 30.0518L23.3549 18.2614C21.673 16.5795 18.9462 16.5795 17.2643 18.2614C15.5825 19.9433 15.5825 22.6701 17.2643 24.352L29.0547 36.1423L17.2643 47.9327C15.5825 49.6145 15.5825 52.3413 17.2643 54.0232C18.1053 54.8641 19.2074 55.2846 20.3096 55.2846C21.4117 55.2846 22.514 54.8642 23.3548 54.0232L35.1452 42.2329L46.9356 54.0232C47.7765 54.8641 48.8787 55.2846 49.9808 55.2846C51.083 55.2846 52.1851 54.8642 53.0261 54.0232C54.7079 52.3413 54.7079 49.6145 53.0261 47.9327L41.2358 36.1423Z" fill="white"/>
</svg>
