<svg width="71" height="72" viewBox="0 0 71 72" fill="none" xmlns="http://www.w3.org/2000/svg">
<path d="M35.2478 72C15.8125 72 0 55.8501 0 36C0 16.1499 15.8125 0 35.2478 0C54.683 0 70.4955 16.1499 70.4955 36C70.4955 55.8501 54.683 72 35.2478 72Z" fill="#FFB400"/>
<path d="M51.6968 60C32.2615 60 16.449 43.8501 16.449 24C16.449 15.6909 19.2465 8.05172 23.8938 1.95239C10.0192 6.79369 0 20.2106 0 36C0 55.85 15.8125 72 35.2478 72C46.5476 72 56.5959 66.5192 63.0507 58.0476C59.4822 59.2928 55.6725 60 51.6968 60Z" fill="#FE9923"/>
<path d="M41.1194 20.9991V37.0919C41.1194 40.3998 38.4851 43.0909 35.2468 43.0909H35.2317C33.7188 43.0459 32.1569 42.4219 31.0931 41.3348C29.9846 40.2015 29.373 38.6953 29.373 37.0919V20.9991C29.373 17.7279 32.0321 15.0939 35.2317 15H35.2468C38.4851 15 41.1194 17.6917 41.1194 20.9991Z" fill="white"/>
<path d="M40.8054 50.6962C40.8054 53.8279 38.312 56.3745 35.2458 56.3745H35.2318C32.1737 56.3674 29.6873 53.8235 29.6873 50.6962C29.6873 47.5701 32.1737 45.0262 35.2318 45.019H35.2458C38.312 45.019 40.8054 47.5657 40.8054 50.6962Z" fill="white"/>
</svg>
