<svg width="89" height="36" viewBox="0 0 89 36" fill="none" xmlns="http://www.w3.org/2000/svg">
<g clip-path="url(#clip0_343_1304)">
<path d="M20.9845 27H11.3416C11.0007 26.9997 10.6739 26.8641 10.4329 26.6231C10.1918 26.382 10.0562 26.0552 10.0559 25.7143V21.8572H11.3416V25.7143H20.9845V11.5715H15.1988V10.2858H20.9845C21.3253 10.2861 21.6522 10.4217 21.8932 10.6627C22.1343 10.9038 22.2698 11.2306 22.2702 11.5715V25.7143C22.2698 26.0552 22.1343 26.382 21.8932 26.6231C21.6522 26.8641 21.3253 26.9997 20.9845 27Z" fill="#006397"/>
<path d="M15.1987 14.1428H19.6987V15.4285H15.1987V14.1428Z" fill="#006397"/>
<path d="M14.5559 17.3572H19.6988V18.6429H14.5559V17.3572Z" fill="#006397"/>
<path d="M13.9128 20.5714H19.6985V21.8571H13.9128V20.5714Z" fill="#006397"/>
<path d="M10.0558 19.9285C9.20361 19.9277 8.38654 19.5888 7.78393 18.9862C7.18132 18.3836 6.8424 17.5665 6.84155 16.7143V9.64286H8.12726V16.7143C8.12726 17.2258 8.33045 17.7163 8.69213 18.078C9.0538 18.4396 9.54434 18.6428 10.0558 18.6428C10.5673 18.6428 11.0579 18.4396 11.4195 18.078C11.7812 17.7163 11.9844 17.2258 11.9844 16.7143V10.9286C11.9844 10.7581 11.9167 10.5946 11.7961 10.474C11.6756 10.3534 11.512 10.2857 11.3415 10.2857C11.171 10.2857 11.0075 10.3534 10.887 10.474C10.7664 10.5946 10.6987 10.7581 10.6987 10.9286V17.3571H9.41298V10.9286C9.41298 10.4171 9.61616 9.92654 9.97784 9.56486C10.3395 9.20319 10.8301 9 11.3415 9C11.853 9 12.3436 9.20319 12.7052 9.56486C13.0669 9.92654 13.2701 10.4171 13.2701 10.9286V16.7143C13.2693 17.5665 12.9303 18.3836 12.3277 18.9862C11.7251 19.5888 10.908 19.9277 10.0558 19.9285Z" fill="#006397"/>
</g>
<path d="M31.5804 16V8.9H34.5604C34.8804 8.9 35.1737 8.96667 35.4404 9.1C35.707 9.23333 35.9404 9.41 36.1404 9.63C36.3404 9.85 36.4937 10.0967 36.6004 10.37C36.707 10.6433 36.7604 10.9233 36.7604 11.21C36.7604 11.6033 36.6704 11.98 36.4904 12.34C36.317 12.6933 36.067 12.98 35.7404 13.2C35.4204 13.42 35.047 13.53 34.6204 13.53H32.7004V16H31.5804ZM32.7004 12.54H34.5504C34.7637 12.54 34.9504 12.4833 35.1104 12.37C35.2704 12.25 35.3937 12.09 35.4804 11.89C35.5737 11.69 35.6204 11.4633 35.6204 11.21C35.6204 10.95 35.567 10.72 35.4604 10.52C35.3537 10.32 35.2137 10.1667 35.0404 10.06C34.8737 9.94667 34.6904 9.89 34.4904 9.89H32.7004V12.54ZM40.7108 11.72C40.2842 11.7267 39.9042 11.8233 39.5708 12.01C39.2442 12.1967 39.0108 12.46 38.8708 12.8V16H37.7708V10.77H38.7908V11.94C38.9708 11.58 39.2075 11.2933 39.5008 11.08C39.7942 10.86 40.1042 10.74 40.4308 10.72C40.4975 10.72 40.5508 10.72 40.5908 10.72C40.6375 10.72 40.6775 10.7233 40.7108 10.73V11.72ZM43.8634 16.1C43.4501 16.1 43.0801 16.03 42.7534 15.89C42.4268 15.7433 42.1434 15.5433 41.9034 15.29C41.6701 15.0367 41.4901 14.75 41.3634 14.43C41.2368 14.1033 41.1734 13.7567 41.1734 13.39C41.1734 13.0233 41.2368 12.6767 41.3634 12.35C41.4901 12.0233 41.6701 11.7367 41.9034 11.49C42.1434 11.2367 42.4268 11.04 42.7534 10.9C43.0868 10.7533 43.4568 10.68 43.8634 10.68C44.2701 10.68 44.6368 10.7533 44.9634 10.9C45.2968 11.04 45.5801 11.2367 45.8134 11.49C46.0534 11.7367 46.2368 12.0233 46.3634 12.35C46.4901 12.6767 46.5534 13.0233 46.5534 13.39C46.5534 13.7567 46.4901 14.1033 46.3634 14.43C46.2368 14.75 46.0534 15.0367 45.8134 15.29C45.5801 15.5433 45.2968 15.7433 44.9634 15.89C44.6368 16.03 44.2701 16.1 43.8634 16.1ZM42.3034 13.4C42.3034 13.7333 42.3734 14.0333 42.5134 14.3C42.6534 14.5667 42.8401 14.7767 43.0734 14.93C43.3068 15.0833 43.5701 15.16 43.8634 15.16C44.1501 15.16 44.4101 15.0833 44.6434 14.93C44.8834 14.77 45.0734 14.5567 45.2134 14.29C45.3534 14.0167 45.4234 13.7167 45.4234 13.39C45.4234 13.0567 45.3534 12.7567 45.2134 12.49C45.0734 12.2233 44.8834 12.0133 44.6434 11.86C44.4101 11.7 44.1501 11.62 43.8634 11.62C43.5701 11.62 43.3068 11.7 43.0734 11.86C42.8401 12.02 42.6534 12.2333 42.5134 12.5C42.3734 12.76 42.3034 13.06 42.3034 13.4ZM49.979 16.1C49.5657 16.1 49.1957 16.03 48.869 15.89C48.5424 15.7433 48.259 15.5433 48.019 15.29C47.7857 15.0367 47.6057 14.75 47.479 14.43C47.3524 14.1033 47.289 13.7567 47.289 13.39C47.289 13.0233 47.3524 12.6767 47.479 12.35C47.6057 12.0233 47.7857 11.7367 48.019 11.49C48.259 11.2367 48.5424 11.04 48.869 10.9C49.2024 10.7533 49.5724 10.68 49.979 10.68C50.3857 10.68 50.7524 10.7533 51.079 10.9C51.4124 11.04 51.6957 11.2367 51.929 11.49C52.169 11.7367 52.3524 12.0233 52.479 12.35C52.6057 12.6767 52.669 13.0233 52.669 13.39C52.669 13.7567 52.6057 14.1033 52.479 14.43C52.3524 14.75 52.169 15.0367 51.929 15.29C51.6957 15.5433 51.4124 15.7433 51.079 15.89C50.7524 16.03 50.3857 16.1 49.979 16.1ZM48.419 13.4C48.419 13.7333 48.489 14.0333 48.629 14.3C48.769 14.5667 48.9557 14.7767 49.189 14.93C49.4224 15.0833 49.6857 15.16 49.979 15.16C50.2657 15.16 50.5257 15.0833 50.759 14.93C50.999 14.77 51.189 14.5567 51.329 14.29C51.469 14.0167 51.539 13.7167 51.539 13.39C51.539 13.0567 51.469 12.7567 51.329 12.49C51.189 12.2233 50.999 12.0133 50.759 11.86C50.5257 11.7 50.2657 11.62 49.979 11.62C49.6857 11.62 49.4224 11.7 49.189 11.86C48.9557 12.02 48.769 12.2333 48.629 12.5C48.489 12.76 48.419 13.06 48.419 13.4ZM53.9763 16V11.75H53.2763V10.9H53.9763V10.69C53.9763 10.2633 54.043 9.89333 54.1763 9.58C54.3163 9.26667 54.5096 9.02667 54.7563 8.86C55.0096 8.68667 55.3063 8.6 55.6463 8.6C55.8596 8.6 56.0696 8.63 56.2763 8.69C56.483 8.74333 56.6796 8.82 56.8663 8.92L56.6263 9.74C56.5263 9.67333 56.4063 9.62333 56.2663 9.59C56.133 9.55 56.003 9.53 55.8763 9.53C55.623 9.53 55.4263 9.62667 55.2863 9.82C55.1463 10.0133 55.0763 10.2933 55.0763 10.66V10.9H56.4163V11.75H55.0763V16H53.9763ZM62.0466 16.1C61.6333 16.1 61.2633 16.03 60.9366 15.89C60.61 15.7433 60.3266 15.5433 60.0866 15.29C59.8533 15.0367 59.6733 14.75 59.5466 14.43C59.42 14.1033 59.3566 13.7567 59.3566 13.39C59.3566 13.0233 59.42 12.6767 59.5466 12.35C59.6733 12.0233 59.8533 11.7367 60.0866 11.49C60.3266 11.2367 60.61 11.04 60.9366 10.9C61.27 10.7533 61.64 10.68 62.0466 10.68C62.4533 10.68 62.82 10.7533 63.1466 10.9C63.48 11.04 63.7633 11.2367 63.9966 11.49C64.2366 11.7367 64.42 12.0233 64.5466 12.35C64.6733 12.6767 64.7366 13.0233 64.7366 13.39C64.7366 13.7567 64.6733 14.1033 64.5466 14.43C64.42 14.75 64.2366 15.0367 63.9966 15.29C63.7633 15.5433 63.48 15.7433 63.1466 15.89C62.82 16.03 62.4533 16.1 62.0466 16.1ZM60.4866 13.4C60.4866 13.7333 60.5566 14.0333 60.6966 14.3C60.8366 14.5667 61.0233 14.7767 61.2566 14.93C61.49 15.0833 61.7533 15.16 62.0466 15.16C62.3333 15.16 62.5933 15.0833 62.8266 14.93C63.0666 14.77 63.2566 14.5567 63.3966 14.29C63.5366 14.0167 63.6066 13.7167 63.6066 13.39C63.6066 13.0567 63.5366 12.7567 63.3966 12.49C63.2566 12.2233 63.0666 12.0133 62.8266 11.86C62.5933 11.7 62.3333 11.62 62.0466 11.62C61.7533 11.62 61.49 11.7 61.2566 11.86C61.0233 12.02 60.8366 12.2333 60.6966 12.5C60.5566 12.76 60.4866 13.06 60.4866 13.4ZM66.0439 16V11.75H65.3439V10.9H66.0439V10.69C66.0439 10.2633 66.1106 9.89333 66.2439 9.58C66.3839 9.26667 66.5772 9.02667 66.8239 8.86C67.0772 8.68667 67.3739 8.6 67.7139 8.6C67.9272 8.6 68.1372 8.63 68.3439 8.69C68.5506 8.74333 68.7472 8.82 68.9339 8.92L68.6939 9.74C68.5939 9.67333 68.4739 9.62333 68.3339 9.59C68.2006 9.55 68.0706 9.53 67.9439 9.53C67.6906 9.53 67.4939 9.62667 67.3539 9.82C67.2139 10.0133 67.1439 10.2933 67.1439 10.66V10.9H68.4839V11.75H67.1439V16H66.0439ZM32.9341 28V20.9H35.9141C36.2341 20.9 36.5274 20.9667 36.7941 21.1C37.0607 21.2333 37.2941 21.41 37.4941 21.63C37.6941 21.85 37.8474 22.0967 37.9541 22.37C38.0607 22.6433 38.1141 22.9233 38.1141 23.21C38.1141 23.6033 38.0241 23.98 37.8441 24.34C37.6707 24.6933 37.4207 24.98 37.0941 25.2C36.7741 25.42 36.4007 25.53 35.9741 25.53H34.0541V28H32.9341ZM34.0541 24.54H35.9041C36.1174 24.54 36.3041 24.4833 36.4641 24.37C36.6241 24.25 36.7474 24.09 36.8341 23.89C36.9274 23.69 36.9741 23.4633 36.9741 23.21C36.9741 22.95 36.9207 22.72 36.8141 22.52C36.7074 22.32 36.5674 22.1667 36.3941 22.06C36.2274 21.9467 36.0441 21.89 35.8441 21.89H34.0541V24.54ZM39.1246 28V22.77H40.2246V28H39.1246ZM39.1246 21.91V20.7H40.2246V21.91H39.1246ZM44.0164 28.1C43.6098 28.1 43.2398 28.03 42.9064 27.89C42.5798 27.7433 42.2964 27.5433 42.0564 27.29C41.8164 27.0367 41.6298 26.7467 41.4964 26.42C41.3698 26.0933 41.3064 25.7467 41.3064 25.38C41.3064 24.8867 41.4164 24.4367 41.6364 24.03C41.8631 23.6233 42.1764 23.2967 42.5764 23.05C42.9831 22.8033 43.4631 22.68 44.0164 22.68C44.5498 22.68 45.0131 22.8 45.4064 23.04C45.8064 23.2733 46.0998 23.5867 46.2864 23.98L45.2164 24.32C45.0964 24.1 44.9264 23.93 44.7064 23.81C44.4931 23.6833 44.2564 23.62 43.9964 23.62C43.7031 23.62 43.4364 23.6967 43.1964 23.85C42.9631 23.9967 42.7764 24.2033 42.6364 24.47C42.5031 24.73 42.4364 25.0333 42.4364 25.38C42.4364 25.7133 42.5064 26.0167 42.6464 26.29C42.7864 26.5567 42.9731 26.77 43.2064 26.93C43.4464 27.0833 43.7131 27.16 44.0064 27.16C44.1864 27.16 44.3598 27.13 44.5264 27.07C44.6998 27.0033 44.8498 26.9167 44.9764 26.81C45.1031 26.6967 45.1931 26.5733 45.2464 26.44L46.3264 26.76C46.2131 27.02 46.0431 27.25 45.8164 27.45C45.5964 27.65 45.3331 27.81 45.0264 27.93C44.7264 28.0433 44.3898 28.1 44.0164 28.1ZM50.9724 28L49.2924 25.59L48.4324 26.41V28H47.3324V20.7H48.4324V25.3L50.8524 22.78H52.0324L50.0024 24.97L52.1424 28H50.9724ZM55.4316 25.97V22.77H56.5316V25.75C56.5316 26.2167 56.6149 26.57 56.7816 26.81C56.9549 27.0433 57.2049 27.16 57.5316 27.16C57.7382 27.16 57.9382 27.1167 58.1316 27.03C58.3316 26.9433 58.5116 26.8167 58.6716 26.65C58.8382 26.4767 58.9716 26.27 59.0716 26.03V22.77H60.1716V26.76C60.1716 26.8867 60.1949 26.9767 60.2416 27.03C60.2882 27.0833 60.3649 27.1133 60.4716 27.12V28C60.3582 28.02 60.2649 28.0333 60.1916 28.04C60.1182 28.0467 60.0482 28.05 59.9816 28.05C59.7816 28.05 59.6149 27.9967 59.4816 27.89C59.3482 27.7767 59.2716 27.6333 59.2516 27.46L59.2316 26.94C58.9982 27.32 58.6949 27.61 58.3216 27.81C57.9482 28.0033 57.5382 28.1 57.0916 28.1C56.5449 28.1 56.1316 27.92 55.8516 27.56C55.5716 27.2 55.4316 26.67 55.4316 25.97ZM64.6453 28.1C64.2253 28.1 63.8553 28 63.5353 27.8C63.2153 27.6 62.962 27.34 62.7753 27.02V30.13H61.6753V22.77H62.6453V23.71C62.8453 23.3967 63.1053 23.1467 63.4253 22.96C63.7453 22.7733 64.102 22.68 64.4953 22.68C64.8553 22.68 65.1853 22.7533 65.4853 22.9C65.7853 23.04 66.0453 23.2367 66.2653 23.49C66.4853 23.7433 66.6553 24.0333 66.7753 24.36C66.902 24.68 66.9653 25.02 66.9653 25.38C66.9653 25.88 66.8653 26.3367 66.6653 26.75C66.472 27.1633 66.1987 27.4933 65.8453 27.74C65.4987 27.98 65.0987 28.1 64.6453 28.1ZM64.2853 27.16C64.5187 27.16 64.7287 27.11 64.9153 27.01C65.1087 26.91 65.272 26.7767 65.4053 26.61C65.5453 26.4433 65.652 26.2533 65.7253 26.04C65.7987 25.8267 65.8353 25.6067 65.8353 25.38C65.8353 25.14 65.7953 24.9133 65.7153 24.7C65.6353 24.4867 65.5187 24.3 65.3653 24.14C65.2187 23.98 65.0453 23.8533 64.8453 23.76C64.652 23.6667 64.4387 23.62 64.2053 23.62C64.0653 23.62 63.9187 23.6467 63.7653 23.7C63.612 23.7533 63.4687 23.8267 63.3353 23.92C63.202 24.0133 63.0853 24.1233 62.9853 24.25C62.8853 24.3767 62.8153 24.51 62.7753 24.65V26.02C62.8687 26.2333 62.992 26.4267 63.1453 26.6C63.2987 26.7667 63.4753 26.9033 63.6753 27.01C63.8753 27.11 64.0787 27.16 64.2853 27.16Z" fill="#006397"/>
<path d="M79.7144 16.5L82.7144 19.5" stroke="#006397" stroke-linecap="round" stroke-linejoin="round"/>
<path d="M79.7144 16.5L76.7144 19.5" stroke="#006397" stroke-linecap="round"/>
<defs>
<clipPath id="clip0_343_1304">
<rect width="16.7142" height="18" fill="white" transform="translate(6 9)"/>
</clipPath>
</defs>
</svg>
