<svg width="89" height="36" viewBox="0 0 89 36" fill="none" xmlns="http://www.w3.org/2000/svg">
<g clip-path="url(#clip0_465_2588)">
<path d="M20.9842 27H11.3414C11.0005 26.9996 10.6737 26.864 10.4326 26.623C10.1916 26.382 10.056 26.0551 10.0557 25.7142V21.8571H11.3414V25.7142H20.9842V11.5714H15.1985V10.2857H20.9842C21.3251 10.286 21.6519 10.4216 21.893 10.6627C22.134 10.9037 22.2696 11.2305 22.2699 11.5714V25.7142C22.2696 26.0551 22.134 26.382 21.893 26.623C21.6519 26.864 21.3251 26.9996 20.9842 27Z" fill="#006397"/>
<path d="M15.1987 14.1428H19.6987V15.4285H15.1987V14.1428Z" fill="#006397"/>
<path d="M14.5557 17.3571H19.6985V18.6428H14.5557V17.3571Z" fill="#006397"/>
<path d="M13.9131 20.5714H19.6988V21.8571H13.9131V20.5714Z" fill="#006397"/>
<path d="M10.0556 19.9285C9.20337 19.9277 8.3863 19.5888 7.78369 18.9862C7.18108 18.3836 6.84216 17.5665 6.84131 16.7143V9.64286H8.12702V16.7143C8.12702 17.2258 8.33021 17.7163 8.69188 18.078C9.05356 18.4396 9.5441 18.6428 10.0556 18.6428C10.5671 18.6428 11.0576 18.4396 11.4193 18.078C11.781 17.7163 11.9842 17.2258 11.9842 16.7143V10.9286C11.9842 10.7581 11.9164 10.5946 11.7959 10.474C11.6753 10.3534 11.5118 10.2857 11.3413 10.2857C11.1708 10.2857 11.0073 10.3534 10.8867 10.474C10.7662 10.5946 10.6984 10.7581 10.6984 10.9286V17.3571H9.41273V10.9286C9.41273 10.4171 9.61592 9.92654 9.9776 9.56486C10.3393 9.20319 10.8298 9 11.3413 9C11.8528 9 12.3433 9.20319 12.705 9.56486C13.0667 9.92654 13.2699 10.4171 13.2699 10.9286V16.7143C13.269 17.5665 12.9301 18.3836 12.3275 18.9862C11.7249 19.5888 10.9078 19.9277 10.0556 19.9285Z" fill="#006397"/>
</g>
<path d="M31.5144 16V8.9H34.4944C34.8144 8.9 35.1077 8.96667 35.3744 9.1C35.641 9.23333 35.8744 9.41 36.0744 9.63C36.2744 9.85 36.4277 10.0967 36.5344 10.37C36.641 10.6433 36.6944 10.9233 36.6944 11.21C36.6944 11.6033 36.6044 11.98 36.4244 12.34C36.251 12.6933 36.001 12.98 35.6744 13.2C35.3544 13.42 34.981 13.53 34.5544 13.53H32.6344V16H31.5144ZM32.6344 12.54H34.4844C34.6977 12.54 34.8844 12.4833 35.0444 12.37C35.2044 12.25 35.3277 12.09 35.4144 11.89C35.5077 11.69 35.5544 11.4633 35.5544 11.21C35.5544 10.95 35.501 10.72 35.3944 10.52C35.2877 10.32 35.1477 10.1667 34.9744 10.06C34.8077 9.94667 34.6244 9.89 34.4244 9.89H32.6344V12.54ZM40.6448 11.72C40.2182 11.7267 39.8382 11.8233 39.5048 12.01C39.1782 12.1967 38.9448 12.46 38.8048 12.8V16H37.7048V10.77H38.7248V11.94C38.9048 11.58 39.1415 11.2933 39.4348 11.08C39.7282 10.86 40.0382 10.74 40.3648 10.72C40.4315 10.72 40.4848 10.72 40.5248 10.72C40.5715 10.72 40.6115 10.7233 40.6448 10.73V11.72ZM43.7974 16.1C43.3841 16.1 43.0141 16.03 42.6874 15.89C42.3607 15.7433 42.0774 15.5433 41.8374 15.29C41.6041 15.0367 41.4241 14.75 41.2974 14.43C41.1707 14.1033 41.1074 13.7567 41.1074 13.39C41.1074 13.0233 41.1707 12.6767 41.2974 12.35C41.4241 12.0233 41.6041 11.7367 41.8374 11.49C42.0774 11.2367 42.3607 11.04 42.6874 10.9C43.0207 10.7533 43.3907 10.68 43.7974 10.68C44.2041 10.68 44.5707 10.7533 44.8974 10.9C45.2307 11.04 45.5141 11.2367 45.7474 11.49C45.9874 11.7367 46.1707 12.0233 46.2974 12.35C46.4241 12.6767 46.4874 13.0233 46.4874 13.39C46.4874 13.7567 46.4241 14.1033 46.2974 14.43C46.1707 14.75 45.9874 15.0367 45.7474 15.29C45.5141 15.5433 45.2307 15.7433 44.8974 15.89C44.5707 16.03 44.2041 16.1 43.7974 16.1ZM42.2374 13.4C42.2374 13.7333 42.3074 14.0333 42.4474 14.3C42.5874 14.5667 42.7741 14.7767 43.0074 14.93C43.2407 15.0833 43.5041 15.16 43.7974 15.16C44.0841 15.16 44.3441 15.0833 44.5774 14.93C44.8174 14.77 45.0074 14.5567 45.1474 14.29C45.2874 14.0167 45.3574 13.7167 45.3574 13.39C45.3574 13.0567 45.2874 12.7567 45.1474 12.49C45.0074 12.2233 44.8174 12.0133 44.5774 11.86C44.3441 11.7 44.0841 11.62 43.7974 11.62C43.5041 11.62 43.2407 11.7 43.0074 11.86C42.7741 12.02 42.5874 12.2333 42.4474 12.5C42.3074 12.76 42.2374 13.06 42.2374 13.4ZM49.913 16.1C49.4997 16.1 49.1297 16.03 48.803 15.89C48.4764 15.7433 48.193 15.5433 47.953 15.29C47.7197 15.0367 47.5397 14.75 47.413 14.43C47.2864 14.1033 47.223 13.7567 47.223 13.39C47.223 13.0233 47.2864 12.6767 47.413 12.35C47.5397 12.0233 47.7197 11.7367 47.953 11.49C48.193 11.2367 48.4764 11.04 48.803 10.9C49.1364 10.7533 49.5064 10.68 49.913 10.68C50.3197 10.68 50.6864 10.7533 51.013 10.9C51.3464 11.04 51.6297 11.2367 51.863 11.49C52.103 11.7367 52.2864 12.0233 52.413 12.35C52.5397 12.6767 52.603 13.0233 52.603 13.39C52.603 13.7567 52.5397 14.1033 52.413 14.43C52.2864 14.75 52.103 15.0367 51.863 15.29C51.6297 15.5433 51.3464 15.7433 51.013 15.89C50.6864 16.03 50.3197 16.1 49.913 16.1ZM48.353 13.4C48.353 13.7333 48.423 14.0333 48.563 14.3C48.703 14.5667 48.8897 14.7767 49.123 14.93C49.3564 15.0833 49.6197 15.16 49.913 15.16C50.1997 15.16 50.4597 15.0833 50.693 14.93C50.933 14.77 51.123 14.5567 51.263 14.29C51.403 14.0167 51.473 13.7167 51.473 13.39C51.473 13.0567 51.403 12.7567 51.263 12.49C51.123 12.2233 50.933 12.0133 50.693 11.86C50.4597 11.7 50.1997 11.62 49.913 11.62C49.6197 11.62 49.3564 11.7 49.123 11.86C48.8897 12.02 48.703 12.2333 48.563 12.5C48.423 12.76 48.353 13.06 48.353 13.4ZM53.9103 16V11.75H53.2103V10.9H53.9103V10.69C53.9103 10.2633 53.977 9.89333 54.1103 9.58C54.2503 9.26667 54.4436 9.02667 54.6903 8.86C54.9436 8.68667 55.2403 8.6 55.5803 8.6C55.7936 8.6 56.0036 8.63 56.2103 8.69C56.417 8.74333 56.6136 8.82 56.8003 8.92L56.5603 9.74C56.4603 9.67333 56.3403 9.62333 56.2003 9.59C56.067 9.55 55.937 9.53 55.8103 9.53C55.557 9.53 55.3603 9.62667 55.2203 9.82C55.0803 10.0133 55.0103 10.2933 55.0103 10.66V10.9H56.3503V11.75H55.0103V16H53.9103ZM61.9806 16.1C61.5673 16.1 61.1973 16.03 60.8706 15.89C60.5439 15.7433 60.2606 15.5433 60.0206 15.29C59.7873 15.0367 59.6073 14.75 59.4806 14.43C59.3539 14.1033 59.2906 13.7567 59.2906 13.39C59.2906 13.0233 59.3539 12.6767 59.4806 12.35C59.6073 12.0233 59.7873 11.7367 60.0206 11.49C60.2606 11.2367 60.5439 11.04 60.8706 10.9C61.2039 10.7533 61.5739 10.68 61.9806 10.68C62.3873 10.68 62.7539 10.7533 63.0806 10.9C63.4139 11.04 63.6973 11.2367 63.9306 11.49C64.1706 11.7367 64.3539 12.0233 64.4806 12.35C64.6073 12.6767 64.6706 13.0233 64.6706 13.39C64.6706 13.7567 64.6073 14.1033 64.4806 14.43C64.3539 14.75 64.1706 15.0367 63.9306 15.29C63.6973 15.5433 63.4139 15.7433 63.0806 15.89C62.7539 16.03 62.3873 16.1 61.9806 16.1ZM60.4206 13.4C60.4206 13.7333 60.4906 14.0333 60.6306 14.3C60.7706 14.5667 60.9573 14.7767 61.1906 14.93C61.4239 15.0833 61.6873 15.16 61.9806 15.16C62.2673 15.16 62.5273 15.0833 62.7606 14.93C63.0006 14.77 63.1906 14.5567 63.3306 14.29C63.4706 14.0167 63.5406 13.7167 63.5406 13.39C63.5406 13.0567 63.4706 12.7567 63.3306 12.49C63.1906 12.2233 63.0006 12.0133 62.7606 11.86C62.5273 11.7 62.2673 11.62 61.9806 11.62C61.6873 11.62 61.4239 11.7 61.1906 11.86C60.9573 12.02 60.7706 12.2333 60.6306 12.5C60.4906 12.76 60.4206 13.06 60.4206 13.4ZM65.9779 16V11.75H65.2779V10.9H65.9779V10.69C65.9779 10.2633 66.0445 9.89333 66.1779 9.58C66.3179 9.26667 66.5112 9.02667 66.7579 8.86C67.0112 8.68667 67.3079 8.6 67.6479 8.6C67.8612 8.6 68.0712 8.63 68.2779 8.69C68.4845 8.74333 68.6812 8.82 68.8679 8.92L68.6279 9.74C68.5279 9.67333 68.4079 9.62333 68.2679 9.59C68.1345 9.55 68.0045 9.53 67.8779 9.53C67.6245 9.53 67.4279 9.62667 67.2879 9.82C67.1479 10.0133 67.0779 10.2933 67.0779 10.66V10.9H68.4179V11.75H67.0779V16H65.9779ZM31.5144 28V20.9H34.0344C34.801 20.9 35.441 21.06 35.9544 21.38C36.4677 21.6933 36.851 22.12 37.1044 22.66C37.3644 23.1933 37.4944 23.7867 37.4944 24.44C37.4944 25.16 37.351 25.7867 37.0644 26.32C36.7844 26.8533 36.3844 27.2667 35.8644 27.56C35.3444 27.8533 34.7344 28 34.0344 28H31.5144ZM36.3544 24.44C36.3544 23.94 36.261 23.5 36.0744 23.12C35.8944 22.7333 35.631 22.4333 35.2844 22.22C34.9444 22 34.5277 21.89 34.0344 21.89H32.6344V27.01H34.0344C34.5344 27.01 34.9544 26.8967 35.2944 26.67C35.641 26.4433 35.9044 26.1367 36.0844 25.75C36.2644 25.3633 36.3544 24.9267 36.3544 24.44ZM41.5628 23.72C41.1361 23.7267 40.7561 23.8233 40.4228 24.01C40.0961 24.1967 39.8628 24.46 39.7228 24.8V28H38.6228V22.77H39.6428V23.94C39.8228 23.58 40.0595 23.2933 40.3528 23.08C40.6461 22.86 40.9561 22.74 41.2828 22.72C41.3495 22.72 41.4028 22.72 41.4428 22.72C41.4895 22.72 41.5295 22.7233 41.5628 22.73V23.72ZM44.7154 28.1C44.302 28.1 43.932 28.03 43.6054 27.89C43.2787 27.7433 42.9954 27.5433 42.7554 27.29C42.522 27.0367 42.342 26.75 42.2154 26.43C42.0887 26.1033 42.0254 25.7567 42.0254 25.39C42.0254 25.0233 42.0887 24.6767 42.2154 24.35C42.342 24.0233 42.522 23.7367 42.7554 23.49C42.9954 23.2367 43.2787 23.04 43.6054 22.9C43.9387 22.7533 44.3087 22.68 44.7154 22.68C45.122 22.68 45.4887 22.7533 45.8154 22.9C46.1487 23.04 46.432 23.2367 46.6654 23.49C46.9054 23.7367 47.0887 24.0233 47.2154 24.35C47.342 24.6767 47.4054 25.0233 47.4054 25.39C47.4054 25.7567 47.342 26.1033 47.2154 26.43C47.0887 26.75 46.9054 27.0367 46.6654 27.29C46.432 27.5433 46.1487 27.7433 45.8154 27.89C45.4887 28.03 45.122 28.1 44.7154 28.1ZM43.1554 25.4C43.1554 25.7333 43.2254 26.0333 43.3654 26.3C43.5054 26.5667 43.692 26.7767 43.9254 26.93C44.1587 27.0833 44.422 27.16 44.7154 27.16C45.002 27.16 45.262 27.0833 45.4954 26.93C45.7354 26.77 45.9254 26.5567 46.0654 26.29C46.2054 26.0167 46.2754 25.7167 46.2754 25.39C46.2754 25.0567 46.2054 24.7567 46.0654 24.49C45.9254 24.2233 45.7354 24.0133 45.4954 23.86C45.262 23.7 45.002 23.62 44.7154 23.62C44.422 23.62 44.1587 23.7 43.9254 23.86C43.692 24.02 43.5054 24.2333 43.3654 24.5C43.2254 24.76 43.1554 25.06 43.1554 25.4ZM51.451 28.1C51.031 28.1 50.661 28 50.341 27.8C50.021 27.6 49.7677 27.34 49.581 27.02V30.13H48.481V22.77H49.451V23.71C49.651 23.3967 49.911 23.1467 50.231 22.96C50.551 22.7733 50.9077 22.68 51.301 22.68C51.661 22.68 51.991 22.7533 52.291 22.9C52.591 23.04 52.851 23.2367 53.071 23.49C53.291 23.7433 53.461 24.0333 53.581 24.36C53.7077 24.68 53.771 25.02 53.771 25.38C53.771 25.88 53.671 26.3367 53.471 26.75C53.2777 27.1633 53.0043 27.4933 52.651 27.74C52.3043 27.98 51.9043 28.1 51.451 28.1ZM51.091 27.16C51.3243 27.16 51.5343 27.11 51.721 27.01C51.9143 26.91 52.0777 26.7767 52.211 26.61C52.351 26.4433 52.4577 26.2533 52.531 26.04C52.6043 25.8267 52.641 25.6067 52.641 25.38C52.641 25.14 52.601 24.9133 52.521 24.7C52.441 24.4867 52.3243 24.3 52.171 24.14C52.0243 23.98 51.851 23.8533 51.651 23.76C51.4577 23.6667 51.2443 23.62 51.011 23.62C50.871 23.62 50.7243 23.6467 50.571 23.7C50.4177 23.7533 50.2743 23.8267 50.141 23.92C50.0077 24.0133 49.891 24.1233 49.791 24.25C49.691 24.3767 49.621 24.51 49.581 24.65V26.02C49.6743 26.2333 49.7977 26.4267 49.951 26.6C50.1043 26.7667 50.281 26.9033 50.481 27.01C50.681 27.11 50.8843 27.16 51.091 27.16Z" fill="#006397"/>
<path d="M79.7144 16.5L82.7144 19.5" stroke="#006397" stroke-linecap="round" stroke-linejoin="round"/>
<path d="M79.7144 16.5L76.7144 19.5" stroke="#006397" stroke-linecap="round"/>
<defs>
<clipPath id="clip0_465_2588">
<rect width="16.7142" height="18" fill="white" transform="translate(6 9)"/>
</clipPath>
</defs>
</svg>
