<svg width="10" height="10" viewBox="0 0 18 18" fill="none" xmlns="http://www.w3.org/2000/svg">
<path fill-rule="evenodd" clip-rule="evenodd" d="M9.60588 0.554932C5.23968 0.554932 1.89063 4.16647 1.49802 8.458H0L2.14068 10.6666L4.47709 8.458H2.9621C3.3366 4.8046 6.07015 1.71692 9.67943 1.71692C13.5399 1.71692 16.6819 4.9845 16.6819 8.99996C16.6819 13.0154 13.5399 16.2841 9.67943 16.2841C7.76164 16.2841 6.02263 15.4774 4.75768 14.174L3.82878 15.1086C5.37978 16.6053 7.45046 17.4428 9.60588 17.445C14.2357 17.445 18 13.6558 18 8.99996C18 4.34411 14.2357 0.554932 9.60588 0.554932V0.554932Z" fill="black"/>
<path fill-rule="evenodd" clip-rule="evenodd" d="M8.98474 3.88586V9.55435H13.4652V8.42292H10.0822V3.88586H8.98474Z" fill="black"/>
</svg>
