<svg width="26" height="26" viewBox="0 0 26 26" fill="none" xmlns="http://www.w3.org/2000/svg">
<path d="M4.25 0.75H21.75C23.689 0.75 25.25 2.311 25.25 4.25V21.75C25.25 23.689 23.689 25.25 21.75 25.25H4.25C2.311 25.25 0.75 23.689 0.75 21.75V4.25C0.75 2.311 2.311 0.75 4.25 0.75Z" stroke="#1A1C1E" stroke-linecap="round" stroke-linejoin="round"/>
<path d="M6 6H7.75" stroke="#1A1C1E" stroke-linecap="round" stroke-linejoin="round"/>
<path d="M9.5 7.75C9.03587 7.75 8.59075 7.56563 8.26256 7.23744C7.93437 6.90925 7.75 6.46413 7.75 6C7.75 5.53587 7.93437 5.09075 8.26256 4.76256C8.59075 4.43437 9.03587 4.25 9.5 4.25C9.72981 4.25 9.95738 4.29526 10.1697 4.38321C10.382 4.47116 10.5749 4.60006 10.7374 4.76256C10.8999 4.92507 11.0288 5.11798 11.1168 5.3303C11.2047 5.54262 11.25 5.77019 11.25 6C11.25 6.22981 11.2047 6.45738 11.1168 6.6697C11.0288 6.88202 10.8999 7.07493 10.7374 7.23744C10.5749 7.39994 10.382 7.52884 10.1697 7.61679C9.95738 7.70473 9.72981 7.75 9.5 7.75Z" stroke="#1A1C1E" stroke-linecap="round" stroke-linejoin="round"/>
<path d="M11.25 6.00004L20 6" stroke="#1A1C1E" stroke-linecap="round" stroke-linejoin="round"/>
<path d="M20 13H18.25" stroke="#1A1C1E" stroke-linecap="round" stroke-linejoin="round"/>
<path d="M16.5 14.75C16.9641 14.75 17.4092 14.5656 17.7374 14.2374C18.0656 13.9092 18.25 13.4641 18.25 13C18.25 12.5359 18.0656 12.0908 17.7374 11.7626C17.4092 11.4344 16.9641 11.25 16.5 11.25C16.0359 11.25 15.5908 11.4344 15.2626 11.7626C14.9344 12.0908 14.75 12.5359 14.75 13C14.75 13.4641 14.9344 13.9092 15.2626 14.2374C15.5908 14.5656 16.0359 14.75 16.5 14.75Z" stroke="#1A1C1E" stroke-linecap="round" stroke-linejoin="round"/>
<path d="M14.75 13L6 13" stroke="#1A1C1E" stroke-linecap="round" stroke-linejoin="round"/>
<path d="M6 20H7.75" stroke="#1A1C1E" stroke-linecap="round" stroke-linejoin="round"/>
<path d="M9.5 21.75C9.03587 21.75 8.59075 21.5656 8.26256 21.2374C7.93437 20.9092 7.75 20.4641 7.75 20C7.75 19.5359 7.93437 19.0908 8.26256 18.7626C8.59075 18.4344 9.03587 18.25 9.5 18.25C9.72981 18.25 9.95738 18.2953 10.1697 18.3832C10.382 18.4712 10.5749 18.6001 10.7374 18.7626C10.8999 18.9251 11.0288 19.118 11.1168 19.3303C11.2047 19.5426 11.25 19.7702 11.25 20C11.25 20.2298 11.2047 20.4574 11.1168 20.6697C11.0288 20.882 10.8999 21.0749 10.7374 21.2374C10.5749 21.3999 10.382 21.5288 10.1697 21.6168C9.95738 21.7047 9.72981 21.75 9.5 21.75V21.75Z" stroke="#1A1C1E" stroke-linecap="round" stroke-linejoin="round"/>
<path d="M11.25 20L20 20" stroke="#1A1C1E" stroke-linecap="round" stroke-linejoin="round"/>
</svg>
