<svg width="20" height="20" viewBox="0 0 20 20" fill="none" xmlns="http://www.w3.org/2000/svg">
<path d="M10.013 0.25C10.747 0.258 11.478 0.343 12.194 0.503C12.3465 0.53705 12.4846 0.617903 12.589 0.734261C12.6933 0.850618 12.7587 0.996668 12.776 1.152L12.946 2.679C12.97 2.89441 13.0442 3.10119 13.1627 3.28268C13.2812 3.46416 13.4406 3.61528 13.6282 3.72386C13.8158 3.83244 14.0262 3.89545 14.2426 3.9078C14.459 3.92016 14.6753 3.88152 14.874 3.795L16.274 3.18C16.4163 3.11735 16.5745 3.10044 16.7267 3.13161C16.879 3.16278 17.0178 3.24049 17.124 3.354C18.1359 4.43511 18.8895 5.73162 19.328 7.146C19.374 7.29464 19.3726 7.45389 19.3241 7.60171C19.2755 7.74953 19.1822 7.87858 19.057 7.971L17.815 8.887C17.6402 9.01525 17.4981 9.18287 17.4002 9.37628C17.3023 9.5697 17.2513 9.78346 17.2514 10.0003C17.2515 10.217 17.3026 10.4308 17.4007 10.6241C17.4988 10.8174 17.6411 10.9849 17.816 11.113L19.059 12.028C19.1844 12.1205 19.2778 12.2497 19.3264 12.3977C19.375 12.5458 19.3762 12.7052 19.33 12.854C18.8916 14.2682 18.1384 15.5647 17.127 16.646C17.021 16.7595 16.8824 16.8372 16.7304 16.8686C16.5783 16.8999 16.4202 16.8833 16.278 16.821L14.872 16.204C14.6736 16.1168 14.4573 16.0776 14.2409 16.0895C14.0245 16.1015 13.8139 16.1642 13.6262 16.2727C13.4386 16.3812 13.2791 16.5324 13.1607 16.714C13.0424 16.8956 12.9685 17.1025 12.945 17.318L12.776 18.844C12.759 18.9976 12.6949 19.1423 12.5925 19.2581C12.4901 19.3739 12.3544 19.4553 12.204 19.491C10.7559 19.8355 9.24714 19.8355 7.79901 19.491C7.64861 19.4553 7.51294 19.3739 7.41054 19.2581C7.30815 19.1423 7.24405 18.9976 7.22701 18.844L7.05701 17.32C7.03241 17.1054 6.95787 16.8996 6.83937 16.7191C6.72086 16.5385 6.56169 16.3883 6.37462 16.2803C6.18755 16.1724 5.9778 16.1098 5.76218 16.0976C5.54656 16.0854 5.33107 16.1239 5.13301 16.21L3.72601 16.826C3.58379 16.8883 3.42574 16.9049 3.27367 16.8736C3.1216 16.8422 2.983 16.7645 2.87701 16.651C1.86508 15.5685 1.11185 14.2706 0.674012 12.855C0.627803 12.7062 0.629069 12.5468 0.677633 12.3987C0.726197 12.2507 0.819649 12.1215 0.945012 12.029L2.18901 11.113C2.36386 10.9848 2.50605 10.8173 2.60406 10.6239C2.70207 10.4305 2.75315 10.2168 2.75315 10C2.75315 9.78321 2.70207 9.56947 2.60406 9.3761C2.50605 9.18273 2.36386 9.01517 2.18901 8.887L0.946012 7.973C0.820472 7.88065 0.726821 7.75148 0.678075 7.60345C0.629328 7.45542 0.627908 7.29588 0.674012 7.147C1.11283 5.73253 1.86674 4.43601 2.87901 3.355C2.98512 3.2417 3.12377 3.16412 3.27584 3.13296C3.4279 3.10179 3.58589 3.11858 3.72801 3.181L5.12801 3.796C5.32703 3.88227 5.54351 3.92066 5.76006 3.90809C5.97661 3.89551 6.18719 3.83232 6.37488 3.7236C6.56258 3.61487 6.72216 3.46363 6.8408 3.28204C6.95944 3.10045 7.03384 2.89356 7.05801 2.678L7.22801 1.152C7.24517 0.996355 7.31062 0.849984 7.41517 0.733414C7.51972 0.616845 7.65814 0.535924 7.81101 0.502C8.52901 0.343 9.26101 0.259 10.013 0.25ZM10 7C9.20436 7 8.4413 7.31607 7.87869 7.87868C7.31608 8.44129 7.00001 9.20435 7.00001 10C7.00001 10.7956 7.31608 11.5587 7.87869 12.1213C8.4413 12.6839 9.20436 13 10 13C10.7957 13 11.5587 12.6839 12.1213 12.1213C12.6839 11.5587 13 10.7956 13 10C13 9.20435 12.6839 8.44129 12.1213 7.87868C11.5587 7.31607 10.7957 7 10 7Z" fill="black"/>
</svg>
