<svg width="20" height="20" viewBox="0 0 20 20" fill="none" xmlns="http://www.w3.org/2000/svg">
<path d="M13.5414 0.222847C12.7332 -0.0742824 11.8445 -0.0742824 11.0362 0.222847L6.88522 1.74604C6.56194 1.86459 6.28303 2.07864 6.08605 2.35938C5.88907 2.64011 5.78349 2.97402 5.78354 3.31615V5.98834C6.56024 5.86546 7.35573 5.94294 8.09356 6.21333L12.2409 7.73652C12.7251 7.9138 13.1464 8.22791 13.4529 8.64009C14.3898 8.45323 15.3573 8.4814 16.2815 8.72246C17.2057 8.96351 18.0622 9.41106 18.7856 10.0309V3.31615C18.7844 2.97505 18.6782 2.64246 18.4813 2.36292C18.2845 2.08338 18.0062 1.87024 17.6839 1.75205L13.5414 0.221644V0.222847ZM9.17828 4.89107C9.01662 4.81512 8.88884 4.68269 8.81934 4.5191C8.74984 4.35552 8.7435 4.17224 8.80154 4.00431C8.85958 3.83637 8.97792 3.69556 9.13394 3.60879C9.28997 3.52201 9.47274 3.49535 9.64731 3.53392L12.2094 4.41462C12.2608 4.43232 12.3168 4.43232 12.3682 4.41462L14.9218 3.53392C15.0966 3.49472 15.2797 3.52095 15.4362 3.60756C15.5927 3.69417 15.7114 3.83508 15.7697 4.00325C15.828 4.17143 15.8217 4.35504 15.752 4.51888C15.6823 4.68272 15.5541 4.81525 15.3921 4.89107L12.8469 5.77538C12.4897 5.89814 12.1013 5.89814 11.744 5.77538L9.17464 4.89107H9.17828ZM11.9101 8.63527C12.1001 8.70485 12.2758 8.80797 12.4288 8.93967C11.4199 9.32966 10.5297 9.9721 9.84486 10.8046C9.74899 10.7236 9.63358 10.6687 9.50994 10.6453C9.3863 10.6219 9.25866 10.6308 9.13949 10.671L6.50588 11.5782L3.86499 10.671C3.77294 10.631 3.67355 10.6104 3.57307 10.6104C3.47259 10.6104 3.37321 10.6312 3.2812 10.6712C3.18919 10.7113 3.10654 10.7699 3.03847 10.8432C2.9704 10.9166 2.91838 11.0032 2.8857 11.0975C2.85302 11.1918 2.84039 11.2919 2.8486 11.3913C2.85681 11.4907 2.88568 11.5873 2.93339 11.6751C2.98111 11.7629 3.04663 11.8399 3.12582 11.9013C3.20502 11.9627 3.29617 12.0071 3.39353 12.0318L5.78475 12.8511V15.4343C5.77293 15.5354 5.78279 15.6379 5.81369 15.735C5.8446 15.8321 5.89584 15.9216 5.96406 15.9976C6.03228 16.0737 6.11593 16.1345 6.20952 16.1762C6.30311 16.2178 6.40452 16.2394 6.50709 16.2394C6.60966 16.2394 6.71107 16.2178 6.80465 16.1762C6.89824 16.1345 6.98189 16.0737 7.05011 15.9976C7.11833 15.9216 7.16958 15.8321 7.20048 15.735C7.23138 15.6379 7.24125 15.5354 7.22942 15.4343V12.8475L8.95406 12.2543C8.5429 13.1944 8.37202 14.2206 8.4566 15.242C8.54117 16.2633 8.87858 17.2481 9.43885 18.1089L7.75663 18.7237C6.94777 19.0196 6.05913 19.0196 5.25027 18.7237L1.1029 17.2053C0.778715 17.0865 0.499092 16.8718 0.301843 16.5901C0.104593 16.3084 -0.000768343 15.9734 4.21834e-06 15.6304V10.2054C0.00128756 9.86415 0.107618 9.53145 0.304741 9.2519C0.501865 8.97234 0.780361 8.75928 1.1029 8.64129L5.2527 7.11088C6.0606 6.81426 6.94873 6.81426 7.75663 7.11088L11.9101 8.63407V8.63527ZM9.39764 14.7364C9.39764 13.6956 9.70855 12.6781 10.2911 11.8127C10.8736 10.9473 11.7015 10.2728 12.6701 9.87446C13.6388 9.47615 14.7047 9.37193 15.733 9.57499C16.7613 9.77804 17.7059 10.2793 18.4473 11.0152C19.1887 11.7512 19.6936 12.6889 19.8981 13.7098C20.1027 14.7306 19.9977 15.7887 19.5965 16.7503C19.1952 17.712 18.5158 18.5339 17.644 19.1121C16.7722 19.6904 15.7473 19.999 14.6988 19.999C13.2929 19.999 11.9445 19.4446 10.9503 18.4577C9.95616 17.4707 9.39764 16.1322 9.39764 14.7364ZM14.2164 17.6072C14.2164 17.7348 14.2675 17.8572 14.3584 17.9475C14.4494 18.0377 14.5727 18.0884 14.7012 18.0884C14.8298 18.0884 14.9531 18.0377 15.044 17.9475C15.1349 17.8572 15.186 17.7348 15.186 17.6072V13.022L16.7725 14.5969C16.8655 14.6728 16.9837 14.7116 17.1039 14.7058C17.2242 14.6999 17.338 14.6499 17.4231 14.5654C17.5082 14.4809 17.5587 14.3679 17.5645 14.2485C17.5704 14.1291 17.5313 14.0119 17.4548 13.9195L15.0394 11.5276C14.9486 11.4387 14.8263 11.3889 14.6988 11.3889C14.5713 11.3889 14.449 11.4387 14.3582 11.5276L11.9476 13.9195C11.8712 14.0119 11.8321 14.1291 11.838 14.2485C11.8438 14.3679 11.8942 14.4809 11.9794 14.5654C12.0645 14.6499 12.1783 14.6999 12.2985 14.7058C12.4188 14.7116 12.537 14.6728 12.63 14.5969L14.2164 13.022V17.6072Z" fill="#0D1D2A"/>
</svg>
