<svg width="257" height="48" viewBox="0 0 257 48" fill="none" xmlns="http://www.w3.org/2000/svg">
<g clip-path="url(#clip0_448_1845)">
<path d="M2.01706 33.3363C3.23522 33.3363 4.43808 33.3363 5.64605 33.3363C6.01303 33.3363 6.37491 33.3517 6.74188 33.3313C6.96105 33.316 7.07318 33.3924 7.18022 33.5811C8.83671 36.4774 11.0895 38.8025 13.9387 40.5413C16.3139 41.9894 18.8827 42.8665 21.6503 43.1826C31.5638 44.3146 40.1826 37.8133 42.4049 28.9155C44.041 22.3836 42.6699 16.4483 38.2866 11.3034C35.4578 7.97878 31.8543 5.84738 27.5576 5.07232C20.6768 3.83325 14.7389 5.74539 9.87648 10.7884C7.17002 13.5979 5.54411 16.9837 4.9121 20.8335C4.36673 24.1479 4.66235 27.396 5.78366 30.5676C5.80405 30.6288 5.82954 30.695 5.84993 30.7562C5.77347 30.8123 5.69702 30.7868 5.62057 30.7868C4.18324 30.7868 2.75101 30.7868 1.31368 30.7919C1.1302 30.7919 1.05374 30.746 1.00277 30.5625C0.238237 27.8396 -0.0420911 25.0657 0.156688 22.2459C0.763219 13.7509 5.96715 6.10743 13.6125 2.46671C16.4464 1.12056 19.4179 0.314907 22.5474 0.18743C30.3813 -0.128711 36.8748 2.70636 41.992 8.63146C44.7648 11.8439 46.462 15.5917 47.2164 19.7627C47.6751 22.2969 47.7159 24.8413 47.3489 27.396C46.722 31.7403 45.0502 35.6309 42.2775 39.032C38.6026 43.5345 33.9084 46.4052 28.1794 47.4454C21.3904 48.6743 15.1823 47.2058 9.63182 43.101C6.28826 40.628 3.80607 37.4411 2.11899 33.6321C2.08841 33.5607 2.05783 33.4944 2.03235 33.423C2.02215 33.4077 2.02725 33.3873 2.01706 33.3363Z" fill="#0080C0"/>
<path d="M30.8553 32.597C29.8104 32.597 28.7656 32.5919 27.7207 32.6021C27.5372 32.6021 27.4506 32.5409 27.3894 32.3727C27.2212 31.9341 27.0428 31.5058 26.8593 31.0775C26.0031 29.0685 23.3782 28.5535 21.8389 30.1036C21.0999 30.8531 20.3965 31.6384 19.688 32.4185C19.5708 32.5511 19.4485 32.6021 19.2701 32.6021C16.2221 32.597 13.1742 32.597 10.1262 32.6021C9.89178 32.6021 9.83571 32.5307 9.851 32.3115C9.87139 32.031 9.86629 31.7506 9.851 31.4701C9.84081 31.2611 9.91726 31.2152 10.1109 31.2152C11.7776 31.2203 13.4392 31.1999 15.1059 31.2305C15.636 31.2407 15.9877 31.0877 16.3444 30.69C18.5004 28.2679 20.6921 25.8714 22.8736 23.4748C22.9653 23.3728 22.9857 23.2963 22.9296 23.1638C21.8695 20.6652 20.8093 18.1616 19.7594 15.658C19.6931 15.4999 19.6014 15.4489 19.4332 15.4489C18.2609 15.454 17.0886 15.4489 15.9163 15.4591C15.7226 15.4591 15.6462 15.4132 15.6564 15.2041C15.6717 14.8982 15.6666 14.5923 15.6564 14.2863C15.6513 14.1384 15.692 14.0773 15.8551 14.0773C17.8175 14.0823 19.7798 14.0671 21.737 14.0874C22.8328 14.0976 23.5973 14.6483 24.0306 15.6529C25.0958 18.1055 26.1662 20.553 27.2212 23.0108C27.3283 23.2555 27.4455 23.3473 27.7207 23.3422C29.4944 23.3269 31.2682 23.332 33.047 23.3371C33.628 23.3371 33.8931 23.5921 33.9593 24.1683C34.1785 26.0906 34.4078 28.013 34.6372 29.9353C34.7086 30.5319 34.7799 31.1336 34.8462 31.7302C34.8921 32.1483 34.5964 32.5307 34.1734 32.5715C33.8727 32.6021 33.5618 32.5919 33.2559 32.5919C32.4557 32.597 31.6555 32.597 30.8553 32.597Z" fill="#0080C0"/>
<path d="M36.6046 14.1027C36.1816 14.5616 35.7942 14.9849 35.4017 15.4081C33.1642 17.825 30.9267 20.242 28.6942 22.6691C28.5362 22.8374 28.4852 22.8221 28.3986 22.6182C27.9195 21.4964 27.4302 20.3746 26.9409 19.2579C26.8746 19.11 26.9001 19.0233 27.002 18.906C28.4139 17.3559 29.8206 15.8007 31.2274 14.2455C31.3191 14.1486 31.4058 14.0823 31.5536 14.0823C33.1846 14.0874 34.8156 14.0874 36.4415 14.0874C36.4772 14.0823 36.5078 14.0874 36.6046 14.1027Z" fill="#0081C0"/>
</g>
<g clip-path="url(#clip1_448_1845)">
<path d="M117.705 45.956C117.503 45.9677 117.304 45.9023 117.148 45.7729C117.079 45.7057 117.025 45.6243 116.99 45.5343C116.955 45.4443 116.94 45.3478 116.946 45.2515C116.946 45.2061 116.951 45.1608 116.961 45.1164C116.97 45.0715 116.978 45.0262 116.985 44.9813L118.272 38.854H118.925L117.676 44.7622C117.67 44.7946 117.665 44.8235 117.662 44.8493C117.658 44.8781 117.657 44.907 117.657 44.936C117.657 45.2195 117.808 45.3611 118.108 45.3609C118.194 45.3592 118.279 45.3495 118.363 45.332C118.456 45.3146 118.548 45.289 118.636 45.2554L118.617 45.7831C118.473 45.8408 118.324 45.8827 118.171 45.908C118.017 45.9378 117.861 45.9539 117.705 45.956Z" fill="#0082C2" stroke="#0082C2" stroke-width="0.3"/>
<path d="M121.402 45.956C121.02 45.9703 120.643 45.8724 120.317 45.6745C120.032 45.4907 119.808 45.2266 119.674 44.9157C119.53 44.5845 119.458 44.2268 119.462 43.866C119.46 43.4595 119.54 43.0568 119.698 42.6823C119.85 42.3204 120.066 41.989 120.336 41.704C120.601 41.4235 120.92 41.198 121.272 41.0405C121.624 40.8823 122.005 40.8009 122.391 40.8019C122.771 40.7888 123.147 40.8886 123.471 41.0886C123.757 41.2728 123.982 41.5366 124.119 41.8474C124.264 42.1799 124.336 42.5393 124.331 42.9018C124.334 43.4951 124.165 44.0767 123.844 44.5763C123.524 45.0759 123.066 45.4722 122.525 45.7174C122.172 45.8766 121.789 45.958 121.402 45.956ZM121.517 45.38C121.789 45.3793 122.058 45.3192 122.305 45.2039C122.564 45.0838 122.797 44.9138 122.991 44.7036C123.196 44.4818 123.361 44.2253 123.476 43.946C123.6 43.6454 123.662 43.3229 123.658 42.9978C123.663 42.7152 123.609 42.4347 123.5 42.1738C123.404 41.9408 123.244 41.7394 123.039 41.5923C122.814 41.4424 122.546 41.3674 122.276 41.3779C122.003 41.3789 121.734 41.4408 121.488 41.5591C121.228 41.6827 120.995 41.8558 120.802 42.0688C120.597 42.2928 120.433 42.5508 120.317 42.8311C120.193 43.1317 120.131 43.4542 120.134 43.7793C120.13 44.062 120.184 44.3426 120.293 44.6037C120.388 44.8359 120.55 45.0347 120.759 45.1754C120.985 45.3179 121.249 45.3892 121.517 45.38Z" fill="#0082C2" stroke="#0082C2" stroke-width="0.3"/>
<path d="M126.376 48C125.838 48 125.421 47.8977 125.123 47.6931C124.827 47.4908 124.601 47.2026 124.475 46.8675L124.935 46.5508C125.047 46.8448 125.255 47.092 125.526 47.2518C125.818 47.4119 126.148 47.4913 126.481 47.4818C126.782 47.4819 127.079 47.4218 127.355 47.3053C127.651 47.1839 127.911 46.9906 128.112 46.743C128.313 46.4954 128.449 46.2013 128.508 45.8877L128.719 44.9032C128.473 45.2184 128.164 45.479 127.811 45.6682C127.491 45.8508 127.129 45.9497 126.76 45.956C126.426 45.9638 126.099 45.8626 125.828 45.6678C125.564 45.4736 125.357 45.2117 125.228 44.9098C125.089 44.5889 125.019 44.2423 125.022 43.8925C125.021 43.4991 125.098 43.1094 125.248 42.7455C125.395 42.3825 125.604 42.048 125.867 41.7571C126.123 41.4705 126.431 41.2345 126.774 41.0612C127.106 40.8912 127.473 40.8023 127.845 40.8019C128.203 40.7847 128.556 40.9005 128.834 41.1272C129.088 41.3492 129.291 41.623 129.429 41.9301L129.65 40.8788H130.226L129.16 45.8877C129.079 46.3174 128.885 46.718 128.599 47.0491C128.324 47.3616 127.981 47.6056 127.595 47.7614C127.208 47.9197 126.794 48.0008 126.376 48ZM127.067 45.4089C127.258 45.4079 127.447 45.3718 127.624 45.3023C127.813 45.2293 127.992 45.1332 128.157 45.016C128.321 44.9014 128.47 44.7661 128.599 44.6134C128.716 44.4768 128.812 44.323 128.882 44.1573L129.208 42.6182C129.18 42.3869 129.096 42.1659 128.964 41.9742C128.838 41.7922 128.672 41.6419 128.479 41.5353C128.287 41.4305 128.073 41.3763 127.854 41.3779C127.56 41.3761 127.271 41.4505 127.014 41.5939C126.751 41.741 126.518 41.9365 126.328 42.1699C126.132 42.4045 125.975 42.6683 125.862 42.9517C125.753 43.2169 125.696 43.5005 125.694 43.7871C125.691 44.0668 125.75 44.3437 125.867 44.5978C125.973 44.8329 126.138 45.0364 126.347 45.1882C126.557 45.3371 126.81 45.4145 127.067 45.4089Z" fill="#0082C2" stroke="#0082C2" stroke-width="0.3"/>
<path d="M131.676 40.8788H132.329L131.273 45.8599H130.62L131.676 40.8788ZM132.108 38.8731H132.761L132.56 39.8326H131.907L132.108 38.8731Z" fill="#0082C2" stroke="#0082C2" stroke-width="0.3"/>
<path d="M134.317 45.956C133.949 45.9602 133.584 45.895 133.241 45.7639C132.933 45.6489 132.658 45.4574 132.444 45.2074L132.828 44.7657C133.023 44.982 133.261 45.154 133.528 45.27C133.795 45.3859 134.083 45.4432 134.374 45.4378C134.633 45.4428 134.89 45.3992 135.133 45.3093C135.333 45.236 135.51 45.1111 135.646 44.9473C135.771 44.7925 135.837 44.5989 135.834 44.4002C135.841 44.2933 135.814 44.187 135.758 44.0957C135.702 44.0043 135.62 43.9324 135.522 43.8898C135.228 43.7614 134.925 43.6577 134.614 43.5797C134.313 43.4903 134.06 43.4059 133.856 43.3266C133.679 43.2669 133.522 43.1615 133.4 43.0212C133.292 42.8699 133.239 42.6864 133.251 42.5011C133.242 42.1773 133.342 41.8599 133.534 41.599C133.733 41.3399 133.996 41.1375 134.297 41.012C134.637 40.8681 135.004 40.7965 135.373 40.8019C135.706 40.7929 136.038 40.8585 136.343 40.994C136.588 41.1035 136.802 41.2715 136.967 41.4834L136.563 41.8672C136.434 41.68 136.255 41.5335 136.045 41.4451C135.813 41.3517 135.565 41.306 135.315 41.3108C135.077 41.309 134.84 41.3477 134.614 41.4252C134.412 41.4909 134.232 41.6093 134.091 41.7681C133.956 41.9311 133.886 42.1381 133.894 42.3495C133.887 42.4382 133.905 42.5271 133.946 42.6056C133.988 42.6842 134.052 42.749 134.129 42.7924C134.376 42.911 134.635 43.0022 134.902 43.0642C135.197 43.1447 135.487 43.2418 135.771 43.3551C135.979 43.4317 136.166 43.5579 136.314 43.7226C136.442 43.8889 136.507 44.0953 136.496 44.3049C136.501 44.6133 136.405 44.915 136.223 45.1636C136.026 45.4233 135.762 45.6245 135.459 45.7459C135.097 45.8927 134.708 45.9642 134.317 45.956Z" fill="#0082C2" stroke="#0082C2" stroke-width="0.3"/>
<path d="M137.649 45.2332C137.649 45.1929 137.652 45.1527 137.658 45.1129C137.665 45.0711 137.671 45.0309 137.678 44.9922L138.436 41.3971H137.773L137.889 40.8788H138.542L138.906 39.1898H139.56L139.195 40.8788H140.289L140.174 41.3971H139.089L138.398 44.6665C138.378 44.7372 138.366 44.7919 138.359 44.8305C138.353 44.8656 138.35 44.9011 138.35 44.9367C138.345 44.9959 138.355 45.0554 138.378 45.1099C138.402 45.1645 138.438 45.2126 138.484 45.2499C138.579 45.3191 138.694 45.3546 138.811 45.3511C138.924 45.3523 139.038 45.3363 139.147 45.3034C139.249 45.2714 139.34 45.2394 139.42 45.2074C139.476 45.1876 139.529 45.1618 139.579 45.1304L139.636 45.6584C139.579 45.6904 139.492 45.732 139.377 45.783C139.247 45.8389 139.112 45.8808 138.974 45.908C138.813 45.9407 138.649 45.9568 138.484 45.956C138.271 45.9633 138.062 45.9006 137.889 45.7775C137.807 45.7133 137.743 45.6301 137.701 45.5352C137.659 45.4403 137.641 45.3366 137.649 45.2332Z" fill="#0082C2" stroke="#0082C2" stroke-width="0.3"/>
<path d="M141.47 40.8788H142.123L141.067 45.8599H140.414L141.47 40.8788ZM141.902 38.8731H142.555L142.354 39.8326H141.701L141.902 38.8731Z" fill="#0082C2" stroke="#0082C2" stroke-width="0.3"/>
<path d="M144.591 45.9561C144.236 45.9687 143.885 45.8757 143.583 45.6887C143.282 45.5017 143.042 45.2292 142.896 44.906C142.742 44.5742 142.665 44.2123 142.67 43.8469C142.669 43.4519 142.747 43.0608 142.901 42.6968C143.051 42.3355 143.268 42.0053 143.539 41.7232C143.81 41.4406 144.133 41.2123 144.49 41.0503C144.856 40.8838 145.254 40.799 145.656 40.802C146.057 40.7844 146.453 40.8973 146.785 41.1237C147.074 41.3348 147.277 41.6433 147.356 41.9923L146.684 42.1938C146.615 41.9519 146.468 41.7394 146.266 41.5893C146.06 41.4449 145.812 41.3708 145.561 41.378C145.276 41.3785 144.996 41.442 144.739 41.5639C144.471 41.6894 144.23 41.8658 144.029 42.0833C143.82 42.3069 143.651 42.5647 143.53 42.8456C143.404 43.1341 143.34 43.4456 143.342 43.7602C143.337 44.0455 143.394 44.3285 143.51 44.5892C143.613 44.8197 143.776 45.0186 143.981 45.1657C144.181 45.3082 144.422 45.3833 144.667 45.3801C144.879 45.3789 145.089 45.3399 145.287 45.2648C145.489 45.1913 145.679 45.0861 145.848 44.9532C146 44.8394 146.125 44.6935 146.213 44.526L146.818 44.7177C146.676 44.9644 146.486 45.1812 146.261 45.3562C146.025 45.5449 145.759 45.6939 145.474 45.7975C145.191 45.9023 144.892 45.956 144.591 45.9561Z" fill="#0082C2" stroke="#0082C2" stroke-width="0.3"/>
<path d="M149.219 45.956C148.852 45.9602 148.487 45.895 148.144 45.7639C147.835 45.6487 147.561 45.4572 147.347 45.2074L147.731 44.7657C147.925 44.982 148.164 45.154 148.431 45.2699C148.697 45.3859 148.986 45.4432 149.277 45.4378C149.535 45.4429 149.793 45.3993 150.035 45.3093C150.236 45.236 150.413 45.1111 150.549 44.9473C150.674 44.7925 150.74 44.5988 150.736 44.4002C150.743 44.2933 150.717 44.187 150.661 44.0957C150.605 44.0044 150.522 43.9325 150.424 43.8898C150.131 43.7615 149.827 43.6577 149.517 43.5797C149.216 43.4903 148.963 43.4059 148.758 43.3266C148.582 43.2668 148.425 43.1614 148.302 43.0212C148.195 42.8699 148.142 42.6864 148.153 42.5011C148.145 42.1773 148.245 41.8599 148.437 41.599C148.635 41.3399 148.899 41.1375 149.2 41.012C149.54 40.8681 149.906 40.7965 150.275 40.8019C150.609 40.7929 150.94 40.8585 151.245 40.994C151.49 41.1034 151.705 41.2715 151.869 41.4834L151.466 41.8673C151.337 41.6799 151.157 41.5334 150.947 41.4451C150.716 41.3517 150.468 41.306 150.218 41.3108C149.979 41.3089 149.742 41.3476 149.517 41.4252C149.315 41.4909 149.134 41.6092 148.993 41.7681C148.858 41.9311 148.788 42.1381 148.796 42.3495C148.789 42.4382 148.807 42.5271 148.849 42.6057C148.891 42.6843 148.954 42.7491 149.032 42.7924C149.279 42.9111 149.538 43.0022 149.805 43.0642C150.1 43.1447 150.39 43.2418 150.674 43.3551C150.882 43.4318 151.068 43.5579 151.216 43.7226C151.345 43.8889 151.409 44.0953 151.399 44.3049C151.404 44.6134 151.308 44.915 151.125 45.1636C150.928 45.4233 150.664 45.6246 150.362 45.7459C149.999 45.8927 149.61 45.9642 149.219 45.956Z" fill="#0082C2" stroke="#0082C2" stroke-width="0.3"/>
<path d="M156.219 45.956C155.851 45.9602 155.486 45.895 155.143 45.7639C154.835 45.6487 154.56 45.4572 154.346 45.2074L154.731 44.7657C154.925 44.982 155.163 45.154 155.43 45.2699C155.697 45.3859 155.985 45.4432 156.276 45.4378C156.535 45.4429 156.792 45.3993 157.035 45.3093C157.235 45.236 157.412 45.1111 157.549 44.9473C157.673 44.7925 157.74 44.5988 157.736 44.4002C157.743 44.2933 157.716 44.187 157.66 44.0957C157.605 44.0044 157.522 43.9325 157.424 43.8898C157.13 43.7615 156.827 43.6577 156.516 43.5797C156.215 43.4903 155.962 43.4059 155.758 43.3266C155.581 43.2668 155.424 43.1614 155.302 43.0212C155.194 42.8699 155.142 42.6864 155.153 42.5011C155.144 42.1773 155.244 41.8599 155.436 41.599C155.635 41.3399 155.898 41.1375 156.2 41.012C156.54 40.8681 156.906 40.7965 157.275 40.8019C157.608 40.7929 157.94 40.8585 158.245 40.994C158.49 41.1034 158.704 41.2715 158.869 41.4834L158.466 41.8673C158.337 41.6799 158.157 41.5334 157.947 41.4451C157.715 41.3517 157.467 41.306 157.217 41.3108C156.979 41.3089 156.742 41.3476 156.516 41.4252C156.315 41.4909 156.134 41.6092 155.993 41.7681C155.858 41.9311 155.788 42.1381 155.796 42.3495C155.788 42.4382 155.807 42.5271 155.848 42.6057C155.89 42.6843 155.954 42.7491 156.032 42.7924C156.278 42.9111 156.538 43.0022 156.804 43.0642C157.099 43.1447 157.389 43.2418 157.673 43.3551C157.881 43.4318 158.068 43.5579 158.216 43.7226C158.344 43.8889 158.409 44.0953 158.399 44.3049C158.404 44.6134 158.307 44.915 158.125 45.1636C157.928 45.4233 157.664 45.6246 157.361 45.7459C156.999 45.8927 156.61 45.9642 156.219 45.956Z" fill="#0082C2" stroke="#0082C2" stroke-width="0.3"/>
<path d="M160.232 40.8788H160.885L159.829 45.8599H159.176L160.232 40.8788ZM160.664 38.8731H161.317L161.116 39.8326H160.462L160.664 38.8731Z" fill="#0082C2" stroke="#0082C2" stroke-width="0.3"/>
<path d="M162.335 40.8789H162.94L162.69 42.0141C162.941 41.6551 163.265 41.3527 163.641 41.1265C163.972 40.92 164.354 40.8078 164.745 40.802C164.966 40.795 165.185 40.8477 165.379 40.9546C165.551 41.0564 165.687 41.2102 165.767 41.394C165.86 41.6174 165.901 41.8587 165.888 42.1C166.062 41.8339 166.272 41.5931 166.512 41.3842C166.725 41.1998 166.969 41.0529 167.232 40.95C167.473 40.8542 167.731 40.804 167.99 40.8019C168.214 40.7912 168.437 40.8424 168.634 40.95C168.795 41.0498 168.919 41.1988 168.989 41.3748C169.07 41.5815 169.109 41.8021 169.104 42.0239C169.104 42.1705 169.094 42.317 169.075 42.4624C169.056 42.6151 169.028 42.7775 168.989 42.9494L168.365 45.86H167.712L168.298 43.0849C168.356 42.8315 168.388 42.5726 168.394 42.3125C168.413 42.0666 168.345 41.8218 168.201 41.6213C168.13 41.5439 168.042 41.4837 167.944 41.4449C167.846 41.4061 167.74 41.3898 167.635 41.3971C167.39 41.3993 167.149 41.4614 166.934 41.5779C166.693 41.7071 166.475 41.8761 166.291 42.0778C166.086 42.2994 165.918 42.5516 165.792 42.8252L165.148 45.86H164.495L165.081 43.083C165.116 42.9414 165.143 42.798 165.163 42.6534C165.178 42.5331 165.186 42.4119 165.187 42.2906C165.206 42.0499 165.138 41.8102 164.995 41.6158C164.922 41.54 164.834 41.4811 164.736 41.4433C164.638 41.4055 164.533 41.3897 164.428 41.3971C164.05 41.4066 163.686 41.5443 163.396 41.7876C163.047 42.0633 162.766 42.4151 162.575 42.8159L161.931 45.86H161.278L162.335 40.8789Z" fill="#0082C2" stroke="#0082C2" stroke-width="0.3"/>
<path d="M170.833 40.8789H171.409L171.208 41.8521C171.461 41.5421 171.773 41.2844 172.125 41.0933C172.451 40.9069 172.819 40.8066 173.195 40.8019C173.537 40.7929 173.872 40.8951 174.15 41.0933C174.419 41.2905 174.629 41.5557 174.76 41.8614C174.902 42.1864 174.974 42.5378 174.971 42.8924C174.971 43.2801 174.896 43.6641 174.751 44.0234C174.606 44.3845 174.402 44.7185 174.146 45.0114C173.899 45.2968 173.599 45.5317 173.262 45.703C172.932 45.871 172.567 45.9578 172.196 45.9561C171.839 45.9692 171.488 45.8541 171.208 45.6315C170.949 45.4209 170.753 45.1437 170.641 44.8298L169.988 47.9044H169.335L170.833 40.8789ZM172.139 45.38C172.426 45.3803 172.708 45.3082 172.96 45.1703C173.221 45.0295 173.453 44.8422 173.646 44.6177C173.845 44.3886 174.004 44.1277 174.117 43.8461C174.229 43.5771 174.287 43.2891 174.29 42.9979C174.293 42.7173 174.236 42.4394 174.122 42.1832C174.018 41.9491 173.854 41.7467 173.646 41.5971C173.433 41.4483 173.177 41.3715 172.917 41.378C172.744 41.3813 172.574 41.4135 172.413 41.4733C172.223 41.5405 172.042 41.6317 171.875 41.7447C171.704 41.8571 171.548 41.9896 171.409 42.1395C171.281 42.2748 171.18 42.4332 171.111 42.6062L170.785 44.1331C170.826 44.3591 170.913 44.5745 171.04 44.7661C171.16 44.9493 171.321 45.1024 171.51 45.2137C171.701 45.3251 171.918 45.3826 172.139 45.38Z" fill="#0082C2" stroke="#0082C2" stroke-width="0.3"/>
<path d="M176.46 45.956C176.257 45.9678 176.058 45.9023 175.902 45.7729C175.833 45.7057 175.779 45.6243 175.744 45.5343C175.71 45.4443 175.695 45.3478 175.701 45.2515C175.701 45.2061 175.706 45.1608 175.715 45.1164C175.725 45.0715 175.733 45.0262 175.739 44.9813L177.026 38.854H177.679L176.431 44.7622C176.424 44.7946 176.419 44.8235 176.416 44.8493C176.413 44.8781 176.411 44.907 176.411 44.936C176.411 45.2195 176.562 45.3611 176.863 45.3609C176.948 45.3592 177.033 45.3495 177.117 45.332C177.21 45.3145 177.302 45.2889 177.391 45.2554L177.371 45.7831C177.228 45.8408 177.078 45.8827 176.925 45.908C176.772 45.9378 176.616 45.9538 176.46 45.956Z" fill="#0082C2" stroke="#0082C2" stroke-width="0.3"/>
<path d="M179.168 40.8788H179.82L178.764 45.8599H178.111L179.168 40.8788ZM179.599 38.8731H180.253L180.051 39.8326H179.398L179.599 38.8731Z" fill="#0082C2" stroke="#0082C2" stroke-width="0.3"/>
<path d="M181.376 41.3779H180.723L180.828 40.8597H181.491L181.51 40.7254C181.579 40.354 181.711 39.9969 181.899 39.6694C182.055 39.3964 182.274 39.1646 182.538 38.993C182.779 38.839 183.058 38.7574 183.344 38.7579C183.522 38.7565 183.699 38.7857 183.867 38.8442C184.019 38.8954 184.161 38.9734 184.285 39.0746L183.988 39.5448C183.912 39.4676 183.818 39.4114 183.714 39.3816C183.598 39.3437 183.476 39.3243 183.354 39.3242C183.214 39.3248 183.075 39.357 182.949 39.4184C182.822 39.4799 182.711 39.569 182.624 39.6792C182.39 39.9786 182.235 40.3316 182.173 40.7062L182.144 40.8597H183.44L183.334 41.3779H182.029L180.646 47.9044H179.993L181.376 41.3779Z" fill="#0082C2" stroke="#0082C2" stroke-width="0.3"/>
<path d="M184.42 40.8788H185.073L184.016 45.8599H183.363L184.42 40.8788ZM184.852 38.8731H185.505L185.303 39.8326H184.65L184.852 38.8731Z" fill="#0082C2" stroke="#0082C2" stroke-width="0.3"/>
<path d="M187.579 45.956C187.21 45.9671 186.846 45.8692 186.532 45.6745C186.245 45.4878 186.016 45.2251 185.869 44.9157C185.712 44.5812 185.63 44.2164 185.63 43.8468C185.628 43.4578 185.702 43.0722 185.846 42.7108C185.988 42.3509 186.197 42.0207 186.46 41.7372C186.725 41.4513 187.043 41.2196 187.396 41.055C187.763 40.8846 188.163 40.7982 188.568 40.8019C188.857 40.7975 189.144 40.8493 189.413 40.9546C189.648 41.0452 189.853 41.2005 190.003 41.4025C190.154 41.6206 190.229 41.8814 190.219 42.1461C190.232 42.3744 190.178 42.6015 190.063 42.7991C189.947 42.9966 189.776 43.1558 189.571 43.2567C189.133 43.4949 188.462 43.614 187.56 43.614C187.361 43.614 187.142 43.6092 186.902 43.5996C186.662 43.5902 186.388 43.5727 186.081 43.5469L186.177 43.0865C186.484 43.1056 186.748 43.1199 186.969 43.1294C187.19 43.1392 187.396 43.144 187.588 43.1439C187.995 43.1551 188.401 43.1152 188.798 43.0251C189.041 42.9752 189.263 42.8545 189.437 42.6784C189.566 42.5321 189.633 42.3414 189.624 42.1465C189.632 41.9734 189.577 41.8033 189.47 41.6669C189.365 41.5415 189.227 41.4479 189.072 41.3963C188.894 41.3369 188.707 41.308 188.52 41.3107C188.204 41.3066 187.893 41.3802 187.612 41.5251C187.341 41.6669 187.101 41.8615 186.907 42.0973C186.708 42.3363 186.553 42.609 186.45 42.9025C186.346 43.1962 186.292 43.5057 186.292 43.8175C186.295 44.0985 186.35 44.3766 186.455 44.6372C186.551 44.876 186.712 45.0827 186.921 45.2328C187.148 45.388 187.419 45.4666 187.694 45.4569C188.023 45.458 188.346 45.3719 188.63 45.2074C188.916 45.0461 189.153 44.8106 189.317 44.5259L189.854 44.6892C189.704 44.9418 189.509 45.1646 189.278 45.3464C189.041 45.5357 188.775 45.6863 188.491 45.7928C188.199 45.9021 187.89 45.9574 187.579 45.956Z" fill="#0082C2" stroke="#0082C2" stroke-width="0.3"/>
<path d="M192.601 45.956C192.259 45.9647 191.922 45.8645 191.641 45.6698C191.37 45.4762 191.157 45.212 191.026 44.9059C190.884 44.5811 190.812 44.2299 190.815 43.8753C190.814 43.4839 190.891 43.0963 191.04 42.7346C191.187 42.3742 191.395 42.0417 191.655 41.7517C191.907 41.4678 192.21 41.2333 192.548 41.0601C192.872 40.8908 193.233 40.8022 193.599 40.8019C193.958 40.7891 194.309 40.9061 194.589 41.1315C194.844 41.341 195.036 41.6166 195.145 41.9282L195.798 38.854H196.451L195.145 45.0059C195.139 45.0313 195.134 45.0539 195.131 45.0731C195.128 45.0889 195.126 45.105 195.126 45.1211C195.126 45.2297 195.187 45.2839 195.309 45.2839L195.184 45.86C195.132 45.8662 195.084 45.8728 195.04 45.8791C194.998 45.8854 194.956 45.8854 194.915 45.8791C194.797 45.8814 194.683 45.8407 194.593 45.7647C194.557 45.7305 194.528 45.689 194.509 45.6429C194.49 45.5969 194.481 45.5474 194.483 45.4976C194.483 45.4608 194.486 45.4241 194.492 45.3878C194.499 45.3464 194.51 45.2859 194.526 45.2066C194.542 45.1269 194.563 45.0236 194.589 44.8965C194.338 45.2167 194.022 45.4802 193.662 45.6698C193.337 45.8507 192.973 45.949 192.601 45.956ZM192.87 45.38C193.042 45.3766 193.212 45.3444 193.374 45.2847C193.561 45.2189 193.74 45.1311 193.907 45.0231C194.079 44.9126 194.235 44.7797 194.372 44.6279C194.501 44.4891 194.604 44.3279 194.675 44.1522L194.992 42.6155C194.967 42.3903 194.885 42.1754 194.752 41.9918C194.622 41.8094 194.455 41.657 194.262 41.5447C194.076 41.435 193.863 41.3774 193.647 41.3779C193.36 41.3777 193.078 41.4498 192.826 41.5877C192.565 41.7294 192.332 41.9185 192.14 42.1453C191.942 42.3754 191.784 42.636 191.669 42.917C191.557 43.1871 191.498 43.4768 191.496 43.7695C191.492 44.0486 191.55 44.3253 191.664 44.5798C191.77 44.8129 191.936 45.0135 192.145 45.1609C192.357 45.3084 192.611 45.3851 192.87 45.38Z" fill="#0082C2" stroke="#0082C2" stroke-width="0.3"/>
<path d="M70.4534 18.9433L67.7856 19.0248C67.0662 19.0652 66.5028 19.004 66.0953 18.8411C65.6879 18.6787 65.5114 18.3464 65.5659 17.8442C65.6879 17.2065 66.1632 16.9079 66.9916 16.9483H77.9682L79.2913 11.5542H68.0097C63.1765 11.2695 60.1626 13.0947 58.9679 17.0298C58.5467 19.2963 58.8861 21.0808 59.9861 22.3834C61.072 23.6726 62.6468 24.3374 64.7107 24.3778H67.704C69.0343 24.2969 69.6859 24.6905 69.659 25.5584C69.4284 26.3595 68.7496 26.7124 67.6226 26.617H57.013L55.6279 32.2352H67.8265C72.5102 32.3837 75.2662 30.45 76.0947 26.434C76.4743 24.1948 76.2569 22.4104 75.4428 21.0809C74.628 19.7368 72.9649 19.0243 70.4534 18.9433Z" fill="#0082C2"/>
<path d="M111.855 4.75586H105.155L103.892 9.64116H110.592L111.855 4.75586Z" fill="#0082C2"/>
<path d="M103.465 11.4324L98.3326 32.2347H105.135L110.185 11.4324H103.465Z" fill="#0082C2"/>
<path d="M151.943 32.2349H158.623L162.064 18.5565C162.472 16.6836 162.146 15.0484 161.086 13.6512C160.014 12.2396 158.555 11.5338 156.708 11.5338L135.183 11.5546L130.153 32.2349H136.853L140.478 17.2334H143.37C143.538 17.2273 143.705 17.2611 143.857 17.3319C144.009 17.4026 144.142 17.5084 144.246 17.6405C144.346 17.7683 144.418 17.9162 144.457 18.0743C144.496 18.2323 144.5 18.3967 144.47 18.5565L141.048 32.235H147.728L151.17 18.5565C151.276 18.123 151.337 17.6796 151.353 17.2334H154.264C154.432 17.2272 154.599 17.2609 154.751 17.3317C154.903 17.4025 155.037 17.5083 155.14 17.6405C155.241 17.7683 155.313 17.9162 155.351 18.0742C155.39 18.2322 155.394 18.3967 155.364 18.5566L151.943 32.2349Z" fill="#828282"/>
<path d="M181.074 11.5752H174.333C169.419 11.8738 165.875 14.0654 163.703 18.1499C162.089 21.732 161.844 24.9276 162.97 27.7366C163.429 28.9622 164.222 30.0343 165.261 30.8307C166.273 31.5909 167.763 32.0318 169.731 32.1534L181.991 32.2348L183.416 26.3318H171.707C169.045 26.2378 168.109 24.6365 168.896 21.5282C169.217 20.3621 169.911 19.3329 170.872 18.5975C171.876 17.7421 173.193 17.2873 174.823 17.2332H179.038L178.61 18.9434H174.069C173.554 18.9702 173.054 19.1212 172.611 19.3834C172.167 19.6457 171.794 20.0114 171.523 20.4493C170.94 21.3589 170.658 22.2615 170.678 23.1569C170.699 24.0528 171.041 24.5482 171.707 24.643H183.803L185.616 17.2332L185.656 17.0298C185.995 15.687 185.836 14.4758 185.177 13.3963C184.519 12.318 183.151 11.711 181.074 11.5752" fill="#828282"/>
<path d="M201.114 11.5338H196.532V11.5546H188.366L183.315 32.2349H189.995L193.66 17.2335H198.63C198.798 17.2245 198.965 17.2569 199.118 17.3279C199.271 17.3989 199.404 17.5063 199.505 17.6407C199.697 17.9048 199.778 18.2338 199.729 18.5567L196.287 32.235H202.968L206.409 18.5567C206.829 16.6836 206.504 15.0484 205.432 13.6512C204.372 12.2396 202.933 11.5338 201.114 11.5338" fill="#828282"/>
<path d="M211.338 4.75586L206.307 25.1926C205.914 27.0652 206.246 28.707 207.305 30.1183C208.351 31.5298 209.783 32.2354 211.602 32.2351H213.477L218.709 26.5152H214.005C213.84 26.5226 213.676 26.4893 213.527 26.4183C213.378 26.3473 213.248 26.2408 213.15 26.108C213.051 25.9792 212.978 25.8319 212.936 25.6748C212.894 25.5177 212.884 25.3538 212.905 25.1926C212.946 25.0026 213.062 24.5174 213.252 23.7371C213.442 22.9568 213.652 22.0883 213.883 21.1316C214.114 20.1745 214.406 18.97 214.759 17.5182H219.606L221.071 11.5136H216.205C216.246 11.3646 216.823 9.11206 217.935 4.75586L211.338 4.75586Z" fill="#828282"/>
<path d="M98.4446 13.59C97.3722 12.1784 95.906 11.4728 94.046 11.4732H88.2828L91.0138 0H84.2823L76.5529 32.235H83.2728L86.8573 17.1929H91.6223C91.7901 17.1868 91.957 17.2205 92.1093 17.2913C92.2615 17.3621 92.3949 17.4679 92.4984 17.6001C92.599 17.7278 92.6711 17.8756 92.7097 18.0336C92.7483 18.1915 92.7525 18.3559 92.7221 18.5156L89.4028 32.235H96.1435L99.4427 18.5156C99.85 16.6299 99.5174 14.988 98.4446 13.59" fill="#0082C2"/>
<path d="M129.807 25.6198C131.422 22.0509 131.666 18.8619 130.539 16.0527C130.079 14.8255 129.286 13.7507 128.249 12.9489C127.237 12.1823 125.747 11.7446 123.779 11.6359L112.354 11.5546L110.929 17.4367H118.687V17.4575H121.803C124.6 17.4979 125.537 19.0991 124.613 22.2612C124.286 23.4243 123.593 24.4518 122.638 25.1925C121.633 26.0473 120.316 26.5019 118.687 26.5562H115.348L117.14 19.371H110.46L106.175 36.9907H112.718L113.922 32.2142H119.176C124.091 31.9167 127.634 29.7185 129.807 25.6198" fill="#0082C2"/>
<path d="M240.669 17.5377L256.84 0.000488281H246.38L237.378 9.95057L240.669 17.5377Z" fill="#0082C2"/>
<path d="M235.555 11.9654L231.649 2.95902C231.268 2.08008 230.638 1.33171 229.836 0.805981C229.035 0.280253 228.098 0.00010306 227.139 0L94.2261 0L93.5707 2.75341H223.019L229.656 18.485L215.404 34.2375H116.929L116.274 36.9908H222.732L227.159 32.1899C227.864 31.4255 228.751 30.8515 229.737 30.521C230.724 30.1906 231.777 30.1144 232.801 30.2997C233.824 30.4849 234.784 30.9255 235.592 31.5805C236.4 32.2356 237.029 33.084 237.421 34.0469L238.62 36.9908H246.41L238.835 19.527L235.555 11.9654Z" fill="#0082C2"/>
<path d="M249.935 18.4887H236.757L235.862 22.7361L240.972 36.9904H251.718C251.924 36.9904 252.128 36.9498 252.318 36.8709C252.509 36.7921 252.682 36.6766 252.827 36.5309C252.973 36.3852 253.089 36.2123 253.168 36.022C253.247 35.8317 253.287 35.6277 253.287 35.4217L251.506 20.0579C251.506 19.6417 251.34 19.2426 251.046 18.9483C250.751 18.654 250.352 18.4886 249.935 18.4886" fill="#0082C2"/>
</g>
<defs>
<clipPath id="clip0_448_1845">
<rect width="47.6279" height="48" fill="white"/>
</clipPath>
<clipPath id="clip1_448_1845">
<rect width="201.212" height="48" fill="white" transform="translate(55.6279)"/>
</clipPath>
</defs>
</svg>
