<svg width="16" height="16" viewBox="0 0 16 16" fill="none" xmlns="http://www.w3.org/2000/svg">
<path d="M10.8331 0.178278C10.1865 -0.059426 9.47557 -0.059426 8.82899 0.178278L5.50818 1.39683C5.24956 1.49167 5.02643 1.66292 4.86884 1.8875C4.71126 2.11209 4.6268 2.37922 4.62684 2.65292V4.79068C5.2482 4.69237 5.88459 4.75435 6.47485 4.97067L9.79275 6.18922C10.1801 6.33105 10.5171 6.58233 10.7623 6.91207C11.5118 6.76259 12.2858 6.78513 13.0252 6.97797C13.7646 7.17081 14.4498 7.52885 15.0285 8.02475V2.65292C15.0275 2.38004 14.9426 2.11397 14.7851 1.89034C14.6276 1.66671 14.405 1.4962 14.1471 1.40164L10.8331 0.177315V0.178278ZM7.34263 3.91286C7.21331 3.8521 7.11107 3.74616 7.05547 3.61529C6.99988 3.48442 6.99481 3.3378 7.04124 3.20345C7.08767 3.0691 7.18234 2.95645 7.30716 2.88703C7.43198 2.81761 7.57819 2.79629 7.71785 2.82714L9.76754 3.5317C9.80868 3.54586 9.85342 3.54586 9.89456 3.5317L11.9375 2.82714C12.0773 2.79578 12.2238 2.81676 12.349 2.88605C12.4742 2.95534 12.5692 3.06806 12.6158 3.2026C12.6624 3.33715 12.6573 3.48404 12.6016 3.61511C12.5458 3.74618 12.4433 3.85221 12.3137 3.91286L10.2775 4.62031C9.99176 4.71852 9.68101 4.71852 9.39523 4.62031L7.33972 3.91286H7.34263ZM9.52806 6.90822C9.68005 6.96388 9.82064 7.04638 9.94304 7.15174C9.13591 7.46374 8.4238 7.97769 7.8759 8.64365C7.79919 8.57888 7.70687 8.53499 7.60796 8.51626C7.50905 8.49753 7.40693 8.50461 7.3116 8.53681L5.2047 9.26255L3.09199 8.53681C3.01836 8.50481 2.93884 8.4883 2.85846 8.48833C2.77808 8.48836 2.69857 8.50493 2.62496 8.53699C2.55135 8.56905 2.48523 8.6159 2.43078 8.6746C2.37632 8.73329 2.33471 8.80255 2.30857 8.87801C2.28242 8.95347 2.27231 9.03349 2.27888 9.11302C2.28545 9.19255 2.30854 9.26987 2.34672 9.34009C2.38489 9.41032 2.4373 9.47193 2.50066 9.52104C2.56402 9.57015 2.63694 9.60569 2.71482 9.62542L4.6278 10.2809V12.3474C4.61835 12.4283 4.62624 12.5103 4.65096 12.588C4.67568 12.6657 4.71668 12.7373 4.77125 12.7981C4.82583 12.8589 4.89275 12.9076 4.96762 12.941C5.04249 12.9743 5.12362 12.9915 5.20567 12.9915C5.28773 12.9915 5.36886 12.9743 5.44373 12.941C5.5186 12.9076 5.58552 12.8589 5.64009 12.7981C5.69467 12.7373 5.73567 12.6657 5.76039 12.588C5.78511 12.5103 5.793 12.4283 5.78354 12.3474V10.278L7.16325 9.80349C6.83433 10.5555 6.69762 11.3765 6.76528 12.1936C6.83294 13.0107 7.10287 13.7985 7.55109 14.4871L6.20531 14.979C5.55822 15.2157 4.84731 15.2157 4.20022 14.979L0.88232 13.7643C0.622972 13.6692 0.399274 13.4974 0.241475 13.2721C0.0836748 13.0468 -0.000614675 12.7788 3.37468e-06 12.5043V8.16431C0.00103005 7.89132 0.0860941 7.62517 0.243793 7.40152C0.401492 7.17788 0.624289 7.00743 0.88232 6.91304L4.20216 5.68871C4.84848 5.45141 5.55899 5.45141 6.20531 5.68871L9.52806 6.90726V6.90822ZM7.51812 11.7892C7.51812 10.9565 7.76685 10.1425 8.23285 9.45018C8.69885 8.75784 9.36119 8.21822 10.1361 7.89957C10.9111 7.58092 11.7638 7.49755 12.5864 7.66C13.4091 7.82244 14.1647 8.22341 14.7579 8.8122C15.351 9.40099 15.7549 10.1512 15.9185 10.9678C16.0821 11.7845 15.9982 12.631 15.6772 13.4003C15.3562 14.1696 14.8126 14.8271 14.1152 15.2897C13.4178 15.7523 12.5978 15.9992 11.7591 15.9992C10.6343 15.9992 9.55559 15.5557 8.76026 14.7661C7.96493 13.9766 7.51812 12.9057 7.51812 11.7892ZM11.3732 14.0857C11.3732 14.1879 11.414 14.2858 11.4868 14.358C11.5595 14.4302 11.6581 14.4708 11.761 14.4708C11.8639 14.4708 11.9625 14.4302 12.0352 14.358C12.108 14.2858 12.1488 14.1879 12.1488 14.0857V10.4176L13.418 11.6775C13.4924 11.7382 13.5869 11.7693 13.6832 11.7646C13.7794 11.76 13.8704 11.7199 13.9385 11.6523C14.0066 11.5847 14.0469 11.4943 14.0516 11.3988C14.0563 11.3033 14.025 11.2095 13.9639 11.1356L12.0315 9.22212C11.9589 9.151 11.861 9.11112 11.7591 9.11112C11.6571 9.11112 11.5592 9.151 11.4866 9.22212L9.55812 11.1356C9.49696 11.2095 9.46568 11.3033 9.47037 11.3988C9.47506 11.4943 9.51539 11.5847 9.5835 11.6523C9.65161 11.7199 9.74264 11.76 9.83885 11.7646C9.93506 11.7693 10.0296 11.7382 10.104 11.6775L11.3732 10.4176V14.0857Z" fill="#0081C1"/>
</svg>
