<svg width="144" height="32" viewBox="0 0 144 32" fill="none" xmlns="http://www.w3.org/2000/svg">
<path d="M10.711 16.3853L8.80583 16.4554C8.39872 16.5058 7.98735 16.452 7.59874 16.2974C7.31139 16.1668 7.14943 15.7994 7.22065 15.4396C7.30781 14.8909 7.6472 14.6339 8.23883 14.6687H16.0775L17.0224 10.0274H8.96583C5.51431 9.78246 3.36198 11.3529 2.50884 14.7389C2.20808 16.689 2.45045 18.2245 3.23596 19.3453C4.01141 20.4546 5.13607 21.0266 6.60995 21.0614H8.74757C9.69753 20.9918 10.1629 21.3304 10.1437 22.0772C9.97897 22.7665 9.49422 23.0702 8.68942 22.9881H1.11282L0.123657 27.8222H8.83505C12.1798 27.95 14.148 26.2861 14.7396 22.8306C15.0106 20.9039 14.8555 19.3685 14.274 18.2246C13.6922 17.0681 12.5045 16.455 10.711 16.3853" fill="white"/>
<path d="M40.2768 4.17792H35.4922L34.5908 8.38127H39.3751L40.2768 4.17792Z" fill="white"/>
<path d="M34.2854 9.92279L30.6202 27.8218H35.4779L39.0845 9.92279H34.2854Z" fill="white"/>
<path d="M68.9052 27.822H73.6752L76.133 16.0525C76.4493 14.591 76.1918 13.0355 75.4344 11.8317C74.7066 10.6392 73.5362 9.95712 72.3081 10.0098L56.9362 10.0277L53.3444 27.822H58.1288L60.7175 14.914H62.7829C63.0259 14.9035 63.2583 15.0337 63.4081 15.2643C63.5535 15.4869 63.6119 15.7742 63.5682 16.0525L61.1248 27.822H65.8948L68.3527 16.0525C68.4287 15.6794 68.4726 15.2979 68.4835 14.914H70.5629C70.8059 14.9033 71.0384 15.0335 71.188 15.2643C71.3336 15.4868 71.392 15.7742 71.3482 16.0525L68.9052 27.822Z" fill="white"/>
<path d="M89.7086 10.0455H84.8947C81.3849 10.3024 78.8544 12.1881 77.3032 15.7026C76.1503 18.7848 75.9759 21.5344 76.78 23.9515C77.1073 25.006 77.6741 25.9285 78.4158 26.6137C79.1384 27.2678 80.2025 27.6471 81.6082 27.7518L90.363 27.8219L91.3811 22.7427H83.0191C81.1184 22.6617 80.4494 21.284 81.0119 18.6094C81.2413 17.6061 81.7368 16.7206 82.4228 16.0878C83.2227 15.3162 84.2195 14.9014 85.2442 14.9139H88.2543L87.9488 16.3854H84.7056C83.96 16.4321 83.2807 16.9163 82.888 17.6811C82.4957 18.3662 82.2853 19.1786 82.2846 20.0109C82.299 20.7817 82.5438 21.208 83.0191 21.2896H91.6575L92.9517 14.9139L92.9805 14.7389C93.2343 13.685 93.1104 12.5513 92.6388 11.6124C92.1684 10.6846 91.1917 10.1623 89.7086 10.0455" fill="white"/>
<path d="M104.019 10.0098H100.747V10.0277H94.9158L91.3086 27.822H96.0791L98.6966 14.9141H102.245C102.489 14.8984 102.723 15.0297 102.87 15.2645C103.007 15.4918 103.065 15.7748 103.031 16.0527L100.573 27.822H105.343L107.801 16.0527C108.126 14.5916 107.868 13.0312 107.103 11.8317C106.391 10.6436 105.235 9.96043 104.019 10.0098Z" fill="white"/>
<path d="M111.321 4.17786L107.728 21.7625C107.423 23.2324 107.685 24.7896 108.441 26.0007C109.145 27.1899 110.297 27.8741 111.509 27.8221H112.848L116.585 22.9005H113.225C112.986 22.9134 112.757 22.7821 112.615 22.5502C112.472 22.3262 112.409 22.0426 112.44 21.7625C112.469 21.5989 112.552 21.1815 112.688 20.5101C112.823 19.8387 112.973 19.0914 113.138 18.2682C113.303 17.4447 113.512 16.4083 113.764 15.1591H117.225L118.272 9.99249H114.796C114.825 9.86432 115.237 7.92611 116.032 4.17786L111.321 4.17786Z" fill="white"/>
<path d="M30.7003 11.7791C29.9677 10.5839 28.7918 9.90205 27.5591 9.9577H23.4435L25.3937 0.0856934H20.5866L15.0668 27.822H19.8657L22.4254 14.8792H25.8283C26.0714 14.8685 26.304 14.9988 26.4539 15.2295C26.5994 15.4519 26.6577 15.7392 26.6137 16.0173L24.2433 27.822H29.057L31.4131 16.0173C31.7301 14.5477 31.4672 12.9842 30.7003 11.7791" fill="white"/>
<path d="M53.0967 22.1301C54.2501 19.0592 54.4246 16.3152 53.62 13.8981C53.2913 12.8421 52.7249 11.9173 51.9842 11.2274C51.2616 10.5678 50.1976 10.1913 48.7921 10.0977L40.6333 10.0277L39.6156 15.0889H45.1561V15.1068H47.3813C49.3785 15.1416 50.0475 16.5194 49.3881 19.2401C49.1542 20.241 48.6598 21.125 47.9776 21.7623C47.1777 22.5337 46.1809 22.9482 45.1561 22.9357H42.7713L44.051 16.7532H39.281L36.2211 31.914H40.8933L41.7533 27.8041H45.5053C49.015 27.5481 51.5454 25.6567 53.0967 22.1301Z" fill="white"/>
<path d="M132.267 15.176L143.815 0.0860596H136.345L129.917 8.64761L132.267 15.176Z" fill="white"/>
<path d="M128.615 10.3812L125.825 2.63175C125.269 1.08616 124.004 0.0858723 122.605 0.0856934H27.6878L27.2197 2.45483H119.662L124.402 15.9909L114.225 29.545H43.9007L43.4327 31.9141H119.457L122.619 27.7832C124.27 25.6263 127.061 25.4897 128.852 27.4781C129.329 28.0077 129.703 28.6574 129.947 29.3811L130.804 31.9141H136.366L130.957 16.8875L128.615 10.3812Z" fill="white"/>
<path d="M138.884 15.9941H129.473L128.834 19.6488L132.483 31.9137H140.157C140.776 31.9137 141.278 31.3094 141.278 30.564C141.278 30.564 141.278 30.564 141.278 30.564L140.006 17.3444C140.006 16.5986 139.504 15.9941 138.884 15.9941" fill="white"/>
</svg>
