<svg width="20" height="14" viewBox="0 0 20 14" fill="none" xmlns="http://www.w3.org/2000/svg">
<path fill-rule="evenodd" clip-rule="evenodd" d="M9.99998 0.666687C5.83331 0.666687 2.27498 3.25835 0.833313 6.91669C2.27498 10.575 5.83331 13.1667 9.99998 13.1667C14.1666 13.1667 17.725 10.575 19.1666 6.91669C17.725 3.25835 14.1666 0.666687 9.99998 0.666687ZM9.99998 11.0834C7.69998 11.0834 5.83331 9.21669 5.83331 6.91669C5.83331 4.61669 7.69998 2.75002 9.99998 2.75002C12.3 2.75002 14.1666 4.61669 14.1666 6.91669C14.1666 9.21669 12.3 11.0834 9.99998 11.0834ZM9.99998 4.41669C8.61665 4.41669 7.49998 5.53335 7.49998 6.91669C7.49998 8.30002 8.61665 9.41669 9.99998 9.41669C11.3833 9.41669 12.5 8.30002 12.5 6.91669C12.5 5.53335 11.3833 4.41669 9.99998 4.41669Z" fill="#72777E"/>
</svg>
