<svg width="26" height="26" viewBox="0 0 26 26" fill="none" xmlns="http://www.w3.org/2000/svg">
<path d="M16.2335 1.43518C16.5951 1.06466 17.0266 0.769593 17.5031 0.567083C17.9795 0.364572 18.4915 0.258647 19.0092 0.255446C19.5268 0.252245 20.04 0.351833 20.519 0.548436C20.9979 0.74504 21.433 1.03475 21.7991 1.40077C22.1653 1.76679 22.4551 2.20184 22.6518 2.68071C22.8486 3.15957 22.9483 3.67273 22.9453 4.19043C22.9422 4.70812 22.8364 5.22007 22.6341 5.69658C22.4317 6.17309 22.1368 6.6047 21.7663 6.96638L19.7311 8.99998L19.8687 9.13758C20.166 9.43474 20.4019 9.78757 20.5627 10.1759C20.7236 10.5642 20.8065 10.9804 20.8065 11.4008C20.8065 11.8211 20.7236 12.2373 20.5627 12.6257C20.4019 13.014 20.166 13.3668 19.8687 13.664L17.5647 15.9664C17.4139 16.1121 17.2118 16.1927 17.002 16.1909C16.7923 16.1891 16.5916 16.105 16.4433 15.9566C16.295 15.8083 16.2108 15.6077 16.209 15.3979C16.2072 15.1881 16.2878 14.9861 16.4335 14.8352L18.7375 12.5312C19.0375 12.2311 19.206 11.8242 19.206 11.4C19.206 10.9757 19.0375 10.5688 18.7375 10.2688L18.5999 10.1312L7.96634 20.7664C7.8634 20.8688 7.73453 20.9412 7.59354 20.976L1.19354 22.576C1.05456 22.6105 0.908868 22.6071 0.771661 22.5661C0.634454 22.5251 0.510766 22.448 0.413507 22.3429C0.316248 22.2378 0.248983 22.1085 0.218735 21.9686C0.188486 21.8286 0.196363 21.6831 0.241541 21.5472L2.24154 15.5472C2.28055 15.4297 2.34627 15.3229 2.43354 15.2352L16.2351 1.43518H16.2335Z" fill="#006397"/>
<path d="M2.22868 24.048C2.20195 24.0278 2.17529 24.0075 2.14868 23.9872L4.30548 23.448C5.16628 23.88 6.20628 24.2 7.39988 24.2C8.21108 24.2 9.02228 23.9168 9.85428 23.4432C10.6895 22.9664 11.4927 22.3312 12.2959 21.68L12.5039 21.5104C13.2159 20.9296 13.9471 20.3344 14.6431 19.9232C15.3983 19.4784 16.3135 19.128 17.2527 19.4432C18.5679 19.88 18.9823 21.0896 19.3663 22.3712C19.4543 22.664 19.6047 22.9536 19.7823 23.1536C19.9599 23.3536 20.1023 23.4 20.1999 23.4C20.4991 23.4 20.9295 23.2384 21.4751 22.9152C21.8207 22.712 22.1199 22.5056 22.4159 22.3008C22.5967 22.1744 22.7775 22.0512 22.9647 21.9296C23.4735 21.6 23.9119 21.3792 24.2287 21.24C24.3911 21.1688 24.5566 21.1047 24.7247 21.048L24.7567 21.0384L24.7695 21.0352L24.7743 21.0336L24.9999 21.8016L24.7759 21.0336C24.9773 20.9805 25.1914 21.008 25.3728 21.1103C25.5542 21.2127 25.6886 21.3817 25.7473 21.5815C25.8061 21.7813 25.7846 21.9961 25.6875 22.1803C25.5903 22.3646 25.4252 22.5036 25.2271 22.568L25.2159 22.5712L25.1519 22.5936C25.0578 22.6278 24.965 22.6651 24.8735 22.7056C24.6255 22.8144 24.2655 22.9936 23.8351 23.272C23.7231 23.3456 23.5775 23.4448 23.4143 23.5568C23.0815 23.7856 22.6703 24.0688 22.2879 24.2928C21.7087 24.6352 20.9599 25 20.1999 25C19.4959 25 18.9519 24.6288 18.5871 24.216C18.2401 23.8131 17.9832 23.3407 17.8335 22.8304C17.4127 21.4288 17.1711 21.1024 16.7455 20.9584C16.4863 20.8736 16.1007 20.9216 15.4559 21.3024C14.8703 21.648 14.2335 22.1664 13.4911 22.7696L13.3039 22.9216C12.5071 23.5696 11.6111 24.2832 10.6463 24.8336C9.67828 25.384 8.58868 25.8 7.39988 25.8C5.17908 25.8 3.41748 24.912 2.22868 24.048Z" fill="#006397"/>
</svg>
