<svg width="20" height="16" viewBox="0 0 20 16" fill="none" xmlns="http://www.w3.org/2000/svg">
<path d="M1 13.625H0.5H1ZM1 2.375H0.5H1ZM15.25 11.75H14.75C14.75 11.9522 14.8718 12.1345 15.0587 12.2119C15.2455 12.2893 15.4606 12.2466 15.6036 12.1036L15.25 11.75ZM19 8L19.3536 8.35355C19.5488 8.15829 19.5488 7.84171 19.3536 7.64645L19 8ZM15.25 4.25L15.6036 3.89645C15.4606 3.75345 15.2455 3.71067 15.0587 3.78806C14.8718 3.86545 14.75 4.04777 14.75 4.25H15.25ZM6.25 7.5C5.97386 7.5 5.75 7.72386 5.75 8C5.75 8.27614 5.97386 8.5 6.25 8.5V7.5ZM18.25 8.5C18.5261 8.5 18.75 8.27614 18.75 8C18.75 7.72386 18.5261 7.5 18.25 7.5V8.5ZM11.75 11.75V13.625H12.75V11.75H11.75ZM11.75 13.625C11.75 13.9897 11.6051 14.3394 11.3473 14.5973L12.0544 15.3044C12.4998 14.859 12.75 14.2549 12.75 13.625H11.75ZM11.3473 14.5973C11.0894 14.8551 10.7397 15 10.375 15V16C11.0049 16 11.609 15.7498 12.0544 15.3044L11.3473 14.5973ZM10.375 15H2.875V16H10.375V15ZM2.875 15C2.51033 15 2.16059 14.8551 1.90273 14.5973L1.19562 15.3044C1.64102 15.7498 2.24511 16 2.875 16V15ZM1.90273 14.5973C1.64487 14.3394 1.5 13.9897 1.5 13.625H0.5C0.5 14.2549 0.750222 14.859 1.19562 15.3044L1.90273 14.5973ZM1.5 13.625V2.375H0.5V13.625H1.5ZM1.5 2.375C1.5 2.01033 1.64487 1.66059 1.90273 1.40273L1.19562 0.695621C0.750222 1.14102 0.5 1.74511 0.5 2.375H1.5ZM1.90273 1.40273C2.16059 1.14487 2.51033 1 2.875 1V0C2.24511 0 1.64102 0.250222 1.19562 0.695621L1.90273 1.40273ZM2.875 1H10V0H2.875V1ZM10 1C10.3934 1 10.8495 1.16426 11.2049 1.44278C11.5623 1.7228 11.75 2.06051 11.75 2.375H12.75C12.75 1.65403 12.3304 1.05423 11.8217 0.655621C11.311 0.255509 10.6421 0 10 0V1ZM11.75 2.375V4.25H12.75V2.375H11.75ZM11.75 4.25V11.75H12.75V4.25H11.75ZM15.6036 12.1036L19.3536 8.35355L18.6464 7.64645L14.8964 11.3964L15.6036 12.1036ZM19.3536 7.64645L15.6036 3.89645L14.8964 4.60355L18.6464 8.35355L19.3536 7.64645ZM14.75 4.25V11.75H15.75V4.25H14.75ZM6.25 8.5H18.25V7.5H6.25V8.5Z" fill="#66587B"/>
</svg>
