<svg width="15" height="16" viewBox="0 0 15 16" fill="none" xmlns="http://www.w3.org/2000/svg">
<path d="M7.39553 6.40485C7.18463 6.40485 6.98235 6.48864 6.83322 6.63777C6.68408 6.78691 6.6003 6.98918 6.6003 7.20009V8.79056C6.6003 9.00147 6.68408 9.20374 6.83322 9.35287C6.98235 9.50201 7.18463 9.58579 7.39553 9.58579C7.60644 9.58579 7.80871 9.50201 7.95785 9.35287C8.10699 9.20374 8.19077 9.00147 8.19077 8.79056V7.20009C8.19077 6.98918 8.10699 6.78691 7.95785 6.63777C7.80871 6.48864 7.60644 6.40485 7.39553 6.40485ZM14.1232 6.15038C14.0178 4.98505 13.6116 3.86704 12.9445 2.90575C12.2775 1.94445 11.3722 1.17278 10.3175 0.666235C9.26271 0.159691 8.09452 -0.0643779 6.92719 0.0159487C5.75986 0.0962752 4.63337 0.478246 3.65793 1.12449C2.82229 1.68326 2.12078 2.42017 1.60379 3.28228C1.0868 4.14438 0.767166 5.11029 0.667845 6.11062C0.570415 7.10439 0.695419 8.10739 1.03379 9.04684C1.37216 9.9863 1.91541 10.8387 2.62412 11.5421L6.83887 15.7648C6.9128 15.8393 7.00075 15.8985 7.09766 15.9388C7.19456 15.9792 7.29851 16 7.40349 16C7.50847 16 7.61241 15.9792 7.70932 15.9388C7.80622 15.8985 7.89418 15.8393 7.9681 15.7648L12.1669 11.5421C12.8757 10.8387 13.4189 9.9863 13.7573 9.04684C14.0957 8.10739 14.2207 7.10439 14.1232 6.11062V6.15038ZM11.0536 10.4208L7.39553 14.0789L3.73745 10.4208C3.19835 9.88166 2.7854 9.22979 2.52827 8.51204C2.27115 7.79428 2.17624 7.02847 2.25036 6.26966C2.32497 5.49916 2.56986 4.75487 2.96732 4.09059C3.36479 3.42632 3.9049 2.85867 4.54859 2.42868C5.39229 1.86822 6.38265 1.56926 7.39553 1.56926C8.40842 1.56926 9.39878 1.86822 10.2425 2.42868C10.8842 2.85701 11.4231 3.42215 11.8205 4.08351C12.2179 4.74488 12.4638 5.48604 12.5407 6.25376C12.6173 7.01514 12.5235 7.78401 12.2663 8.50471C12.0091 9.22541 11.5949 9.8799 11.0536 10.4208ZM8.12715 4.47243C8.11127 4.42358 8.08706 4.37784 8.05558 4.33724L7.96015 4.21796C7.86521 4.12781 7.74949 4.0625 7.62325 4.02782C7.49701 3.99314 7.36416 3.99016 7.23649 4.01915H7.09335L6.9502 4.09072L6.83092 4.1941L6.73549 4.31339C6.70401 4.35398 6.6798 4.39972 6.66392 4.44858C6.6397 4.49593 6.62358 4.547 6.6162 4.59967C6.60302 4.67044 6.59768 4.74244 6.6003 4.81438C6.59754 4.92127 6.6193 5.02736 6.66392 5.12453C6.70443 5.21838 6.76094 5.30449 6.83092 5.379C6.90661 5.45331 6.99564 5.51267 7.09335 5.55395C7.28802 5.62791 7.50305 5.62791 7.69772 5.55395C7.79437 5.51073 7.88308 5.45159 7.96015 5.379C8.03013 5.30449 8.08664 5.21838 8.12715 5.12453C8.16893 5.02645 8.19056 4.92098 8.19077 4.81438C8.19467 4.76409 8.19467 4.71358 8.19077 4.66329C8.18337 4.59587 8.16168 4.53081 8.12715 4.47243Z" fill="#006397"/>
</svg>
