<svg width="20" height="21" viewBox="0 0 20 21" fill="none" xmlns="http://www.w3.org/2000/svg">
<path d="M3.51603 3.00205C3.12484 3.00165 2.73741 3.07841 2.37593 3.22793C2.01444 3.37745 1.68599 3.59679 1.40938 3.8734C1.13277 4.15002 0.913428 4.47846 0.763909 4.83995C0.61439 5.20144 0.537632 5.58886 0.538026 5.98005C0.538026 8.21305 3.51603 11.51 3.51603 11.51C3.51603 11.51 6.49403 8.21305 6.49403 5.98005C6.49442 5.58886 6.41766 5.20144 6.26814 4.83995C6.11863 4.47846 5.89928 4.15002 5.62267 3.8734C5.34606 3.59679 5.01761 3.37745 4.65613 3.22793C4.29464 3.07841 3.90721 3.00165 3.51603 3.00205ZM3.51603 7.04305C3.30579 7.04305 3.10027 6.9807 2.92546 6.8639C2.75065 6.7471 2.6144 6.58108 2.53394 6.38684C2.45349 6.1926 2.43244 5.97887 2.47345 5.77267C2.51447 5.56646 2.61571 5.37706 2.76437 5.22839C2.91304 5.07973 3.10244 4.97849 3.30865 4.93747C3.51485 4.89646 3.72858 4.91751 3.92282 4.99796C4.11706 5.07842 4.28308 5.21467 4.39988 5.38948C4.51668 5.56429 4.57903 5.76981 4.57903 5.98005C4.57876 6.26189 4.46668 6.53212 4.26739 6.73141C4.0681 6.9307 3.79787 7.04278 3.51603 7.04305ZM18.524 9.79605V5.49605C18.517 5.0445 18.4484 4.59603 18.32 4.16305C17.9919 3.01837 17.2657 2.02853 16.2723 1.37191C15.279 0.71529 14.0837 0.435076 12.902 0.581764C11.7203 0.728452 10.6298 1.2924 9.82715 2.17197C9.02446 3.05154 8.56232 4.18888 8.52403 5.37905V5.62705L8.51403 6.49705V16.449H8.51003V16.49C8.51003 17.0205 8.29931 17.5292 7.92424 17.9043C7.54917 18.2793 7.04046 18.49 6.51003 18.49C5.97959 18.49 5.47089 18.2793 5.09581 17.9043C4.72074 17.5292 4.51003 17.0205 4.51003 16.49C4.51003 16.478 4.51303 16.466 4.51403 16.453H4.51003V14.51H2.51003V16.51H2.51203C2.51269 17.5704 2.93454 18.587 3.68478 19.3363C4.43502 20.0856 5.45219 20.5062 6.51253 20.5055C7.57286 20.5049 8.58951 20.083 9.33881 19.3328C10.0881 18.5826 10.5087 17.5654 10.508 16.505H10.51V15.523H10.515V7.49705L10.525 5.62705V5.38005C10.5535 4.59281 10.8904 3.84834 11.463 3.30732C12.0356 2.76631 12.798 2.47213 13.5856 2.48827C14.3732 2.50442 15.1228 2.8296 15.6728 3.39362C16.2227 3.95765 16.5288 4.7153 16.525 5.50305V9.77805C16.1421 9.99473 15.8413 10.3317 15.6694 10.7367C15.4975 11.1417 15.464 11.5921 15.5741 12.0181C15.6842 12.4441 15.9318 12.8219 16.2784 13.0928C16.6251 13.3638 17.0515 13.5128 17.4915 13.5168C17.9314 13.5207 18.3604 13.3794 18.7119 13.1147C19.0634 12.8501 19.3178 12.4768 19.4355 12.0529C19.5533 11.6289 19.5279 11.178 19.3633 10.77C19.1987 10.3619 18.904 10.0196 18.525 9.79605H18.524Z" fill="#3598D9"/>
</svg>
