<svg width="12" height="10" viewBox="0 0 12 10" fill="none" xmlns="http://www.w3.org/2000/svg">
<path d="M11.0742 3.82812H8.07424C8.02268 3.82812 7.98049 3.87031 7.98049 3.92188V4.48438C7.98049 4.53594 8.02268 4.57812 8.07424 4.57812H11.0742C11.1258 4.57812 11.168 4.53594 11.168 4.48438V3.92188C11.168 3.87031 11.1258 3.82812 11.0742 3.82812ZM9.50393 5.42188H8.07424C8.02268 5.42188 7.98049 5.46406 7.98049 5.51562V6.07812C7.98049 6.12969 8.02268 6.17188 8.07424 6.17188H9.50393C9.55549 6.17188 9.59768 6.12969 9.59768 6.07812V5.51562C9.59768 5.46406 9.55549 5.42188 9.50393 5.42188ZM5.59338 2.7793H5.08596C5.01331 2.7793 4.95471 2.83789 4.95471 2.91055V5.8168C4.95471 5.85898 4.97463 5.89766 5.00862 5.92227L6.75354 7.19492C6.81213 7.23711 6.89417 7.22539 6.93635 7.1668L7.23752 6.75547V6.7543C7.27971 6.6957 7.26682 6.61367 7.20823 6.57148L5.72346 5.49805V2.91055C5.72463 2.83789 5.66487 2.7793 5.59338 2.7793Z" fill="#006397"/>
<path d="M9.43126 6.89718H8.75391C8.68829 6.89718 8.62618 6.93116 8.59102 6.98741C8.44219 7.22296 8.26876 7.44093 8.06954 7.64015C7.72618 7.98351 7.32657 8.25304 6.88243 8.44054C6.42188 8.63507 5.93321 8.73351 5.4293 8.73351C4.92423 8.73351 4.43555 8.63507 3.97618 8.44054C3.53204 8.25304 3.13243 7.98351 2.78907 7.64015C2.44571 7.29679 2.17618 6.89718 1.98868 6.45304C1.79415 5.99367 1.69571 5.50499 1.69571 4.99992C1.69571 4.49484 1.79415 4.00734 1.98868 3.54679C2.17618 3.10265 2.44571 2.70304 2.78907 2.35968C3.13243 2.01632 3.53204 1.74679 3.97618 1.55929C4.43555 1.36476 4.9254 1.26632 5.4293 1.26632C5.93438 1.26632 6.42305 1.36476 6.88243 1.55929C7.32657 1.74679 7.72618 2.01632 8.06954 2.35968C8.26876 2.5589 8.44219 2.77687 8.59102 3.01242C8.62618 3.06867 8.68829 3.10265 8.75391 3.10265H9.43126C9.51212 3.10265 9.56368 3.01828 9.52735 2.94679C8.76329 1.42687 7.21407 0.43898 5.48438 0.419059C2.95196 0.387418 0.848446 2.46046 0.843758 4.99054C0.839071 7.52531 2.89337 9.58195 5.42813 9.58195C7.18009 9.58195 8.75509 8.59054 9.52735 7.05304C9.56368 6.98156 9.51094 6.89718 9.43126 6.89718Z" fill="#006397"/>
</svg>
