<svg width="38" height="26" viewBox="0 0 38 26" fill="none" xmlns="http://www.w3.org/2000/svg">
<rect x="3.5" y="5" width="34" height="14" rx="7" fill="#A6ACB3"/>
<g filter="url(#filter0_ddd_773_3612)">
<path fill-rule="evenodd" clip-rule="evenodd" d="M13.5 22C19.0228 22 23.5 17.5228 23.5 12C23.5 6.47715 19.0228 2 13.5 2C7.97715 2 3.5 6.47715 3.5 12C3.5 17.5228 7.97715 22 13.5 22Z" fill="#1A1C1E" fill-opacity="0.12"/>
</g>
<path fill-rule="evenodd" clip-rule="evenodd" d="M13.5 22C19.0228 22 23.5 17.5228 23.5 12C23.5 6.47715 19.0228 2 13.5 2C7.97715 2 3.5 6.47715 3.5 12C3.5 17.5228 7.97715 22 13.5 22Z" fill="#72777E"/>
<defs>
<filter id="filter0_ddd_773_3612" x="0.5" y="0" width="26" height="26" filterUnits="userSpaceOnUse" color-interpolation-filters="sRGB">
<feFlood flood-opacity="0" result="BackgroundImageFix"/>
<feColorMatrix in="SourceAlpha" type="matrix" values="0 0 0 0 0 0 0 0 0 0 0 0 0 0 0 0 0 0 127 0" result="hardAlpha"/>
<feOffset dy="1"/>
<feGaussianBlur stdDeviation="1.5"/>
<feColorMatrix type="matrix" values="0 0 0 0 0 0 0 0 0 0 0 0 0 0 0 0 0 0 0.2 0"/>
<feBlend mode="normal" in2="BackgroundImageFix" result="effect1_dropShadow_773_3612"/>
<feColorMatrix in="SourceAlpha" type="matrix" values="0 0 0 0 0 0 0 0 0 0 0 0 0 0 0 0 0 0 127 0" result="hardAlpha"/>
<feOffset dy="2"/>
<feGaussianBlur stdDeviation="0.5"/>
<feColorMatrix type="matrix" values="0 0 0 0 0 0 0 0 0 0 0 0 0 0 0 0 0 0 0.12 0"/>
<feBlend mode="normal" in2="effect1_dropShadow_773_3612" result="effect2_dropShadow_773_3612"/>
<feColorMatrix in="SourceAlpha" type="matrix" values="0 0 0 0 0 0 0 0 0 0 0 0 0 0 0 0 0 0 127 0" result="hardAlpha"/>
<feOffset dy="1"/>
<feGaussianBlur stdDeviation="0.5"/>
<feColorMatrix type="matrix" values="0 0 0 0 0 0 0 0 0 0 0 0 0 0 0 0 0 0 0.14 0"/>
<feBlend mode="normal" in2="effect2_dropShadow_773_3612" result="effect3_dropShadow_773_3612"/>
<feBlend mode="normal" in="SourceGraphic" in2="effect3_dropShadow_773_3612" result="shape"/>
</filter>
</defs>
</svg>
