<svg width="37" height="19" viewBox="0 0 37 19" fill="none" xmlns="http://www.w3.org/2000/svg">
<g clip-path="url(#clip0_251_1094)">
<path d="M9.03334 14.8333C9.62245 14.8333 10.1 14.3558 10.1 13.7667C10.1 13.1776 9.62245 12.7 9.03334 12.7C8.44424 12.7 7.96667 13.1776 7.96667 13.7667C7.96667 14.3558 8.44424 14.8333 9.03334 14.8333Z" fill="#006397"/>
<path d="M13.1811 13.4888C12.8516 12.6493 12.2829 11.9249 11.5456 11.4055C10.8084 10.886 9.93485 10.5944 9.03339 10.5667C8.13193 10.5944 7.25842 10.886 6.52113 11.4055C5.78384 11.9249 5.21519 12.6493 4.88566 13.4888L4.76672 13.7667L4.88566 14.0445C5.21519 14.884 5.78384 15.6084 6.52113 16.1278C7.25842 16.6473 8.13193 16.9389 9.03339 16.9667C9.93485 16.9389 10.8084 16.6473 11.5456 16.1278C12.2829 15.6084 12.8516 14.884 13.1811 14.0445L13.3001 13.7667L13.1811 13.4888ZM9.03339 15.9C8.61146 15.9 8.199 15.7749 7.84817 15.5405C7.49735 15.306 7.22391 14.9729 7.06245 14.583C6.90098 14.1932 6.85873 13.7643 6.94105 13.3505C7.02336 12.9366 7.22654 12.5565 7.5249 12.2582C7.82325 11.9598 8.20337 11.7566 8.6172 11.6743C9.03102 11.592 9.45997 11.6342 9.84978 11.7957C10.2396 11.9572 10.5728 12.2306 10.8072 12.5814C11.0416 12.9323 11.1667 13.3447 11.1667 13.7667C11.166 14.3322 10.941 14.8744 10.5411 15.2744C10.1412 15.6743 9.59897 15.8993 9.03339 15.9Z" fill="#006397"/>
<path d="M3.7 15.9H1.56667V3.09999H5.83333V6.29999C5.83418 6.58263 5.94683 6.85345 6.14669 7.05331C6.34654 7.25316 6.61736 7.36581 6.9 7.36666H10.1V9.49999H11.1667V6.29999C11.1685 6.2299 11.1552 6.16023 11.1276 6.09578C11.1 6.03133 11.0587 5.97363 11.0067 5.92666L7.27333 2.19332C7.22638 2.14124 7.16868 2.09996 7.10423 2.07234C7.03978 2.04472 6.9701 2.03141 6.9 2.03332H1.56667C1.28403 2.03417 1.01321 2.14682 0.813352 2.34668C0.613496 2.54653 0.500844 2.81735 0.5 3.09999V15.9C0.500844 16.1826 0.613496 16.4534 0.813352 16.6533C1.01321 16.8532 1.28403 16.9658 1.56667 16.9667H3.7V15.9ZM6.9 3.31332L9.88667 6.29999H6.9V3.31332Z" fill="#006397"/>
</g>
<path d="M18.14 1.82L20.02 6.596L21.892 1.82H22.652L20.348 7.5H19.692L17.38 1.82H18.14ZM23.3055 7.5V3.324H24.0095V7.5H23.3055ZM23.3055 2.54V1.66H24.0095V2.54H23.3055ZM26.9973 7.58C26.6826 7.58 26.3946 7.524 26.1333 7.412C25.8773 7.29467 25.6533 7.13733 25.4613 6.94C25.2746 6.73733 25.128 6.50533 25.0213 6.244C24.92 5.98267 24.8693 5.70533 24.8693 5.412C24.8693 5.01733 24.96 4.65733 25.1413 4.332C25.3226 4.00667 25.5733 3.74533 25.8933 3.548C26.2186 3.35067 26.5893 3.252 27.0053 3.252C27.4266 3.252 27.792 3.35333 28.1013 3.556C28.416 3.75333 28.6586 4.01467 28.8293 4.34C29.0053 4.66 29.0933 5.00667 29.0933 5.38C29.0933 5.43333 29.0906 5.48667 29.0853 5.54C29.0853 5.588 29.0826 5.62533 29.0773 5.652H25.6133C25.6346 5.924 25.7093 6.16667 25.8373 6.38C25.9706 6.588 26.1413 6.75333 26.3493 6.876C26.5573 6.99333 26.7813 7.052 27.0213 7.052C27.2773 7.052 27.5173 6.988 27.7413 6.86C27.9706 6.732 28.128 6.564 28.2133 6.356L28.8213 6.524C28.7306 6.72667 28.5946 6.908 28.4133 7.068C28.2373 7.228 28.0266 7.35333 27.7813 7.444C27.5413 7.53467 27.28 7.58 26.9973 7.58ZM25.5893 5.164H28.4373C28.416 4.892 28.3386 4.652 28.2053 4.444C28.072 4.236 27.9013 4.07333 27.6933 3.956C27.4853 3.83867 27.256 3.78 27.0053 3.78C26.76 3.78 26.5333 3.83867 26.3253 3.956C26.1173 4.07333 25.9466 4.236 25.8133 4.444C25.6853 4.652 25.6106 4.892 25.5893 5.164ZM34.9985 3.324H35.6785L33.9025 7.5H33.2865L32.4785 5.532L31.6785 7.5H31.0625L29.2865 3.324H29.9585L31.3985 6.804L32.0705 5.092L31.3665 3.332H31.9825L32.4785 4.66L32.9745 3.332H33.5905L32.8945 5.092L33.5665 6.804L34.9985 3.324ZM17.596 14.42C17.596 14.0253 17.676 13.6653 17.836 13.34C18.0014 13.0093 18.2254 12.7453 18.508 12.548C18.796 12.3507 19.124 12.252 19.492 12.252C19.828 12.252 20.1294 12.34 20.396 12.516C20.6627 12.692 20.8707 12.9053 21.02 13.156V10.66H21.724V15.7C21.724 15.7853 21.74 15.8493 21.772 15.892C21.8094 15.9293 21.868 15.9507 21.948 15.956V16.5C21.8147 16.5213 21.7107 16.532 21.636 16.532C21.4974 16.532 21.3747 16.484 21.268 16.388C21.1667 16.292 21.116 16.1853 21.116 16.068V15.716C20.9507 15.9827 20.7294 16.1933 20.452 16.348C20.1747 16.5027 19.8867 16.58 19.588 16.58C19.3 16.58 19.0334 16.524 18.788 16.412C18.548 16.2947 18.3374 16.1347 18.156 15.932C17.98 15.7293 17.8414 15.5 17.74 15.244C17.644 14.9827 17.596 14.708 17.596 14.42ZM21.02 15.036V13.836C20.956 13.6547 20.852 13.492 20.708 13.348C20.564 13.1987 20.4014 13.0813 20.22 12.996C20.044 12.9053 19.868 12.86 19.692 12.86C19.484 12.86 19.2947 12.9053 19.124 12.996C18.9587 13.0813 18.8147 13.1987 18.692 13.348C18.5747 13.492 18.484 13.6573 18.42 13.844C18.356 14.0307 18.324 14.2253 18.324 14.428C18.324 14.636 18.3587 14.8333 18.428 15.02C18.5027 15.2067 18.604 15.372 18.732 15.516C18.8654 15.66 19.0174 15.772 19.188 15.852C19.364 15.932 19.5534 15.972 19.756 15.972C19.884 15.972 20.0147 15.948 20.148 15.9C20.2867 15.852 20.4174 15.7853 20.54 15.7C20.6627 15.6147 20.7667 15.516 20.852 15.404C20.9374 15.2867 20.9934 15.164 21.02 15.036ZM24.7233 16.58C24.4086 16.58 24.1233 16.524 23.8673 16.412C23.6113 16.2947 23.39 16.1373 23.2033 15.94C23.0166 15.7373 22.8726 15.5053 22.7713 15.244C22.67 14.9827 22.6193 14.708 22.6193 14.42C22.6193 14.1267 22.67 13.8493 22.7713 13.588C22.8726 13.3267 23.0166 13.0973 23.2033 12.9C23.39 12.6973 23.6113 12.54 23.8673 12.428C24.1286 12.3107 24.414 12.252 24.7233 12.252C25.038 12.252 25.3233 12.3107 25.5793 12.428C25.8353 12.54 26.0566 12.6973 26.2433 12.9C26.4353 13.0973 26.582 13.3267 26.6833 13.588C26.7846 13.8493 26.8353 14.1267 26.8353 14.42C26.8353 14.708 26.7846 14.9827 26.6833 15.244C26.582 15.5053 26.438 15.7373 26.2513 15.94C26.0646 16.1373 25.8406 16.2947 25.5793 16.412C25.3233 16.524 25.038 16.58 24.7233 16.58ZM23.3393 14.428C23.3393 14.716 23.4006 14.9773 23.5233 15.212C23.6513 15.4467 23.8193 15.6333 24.0273 15.772C24.2353 15.9053 24.4673 15.972 24.7233 15.972C24.9793 15.972 25.2113 15.9027 25.4193 15.764C25.6326 15.6253 25.8006 15.4387 25.9233 15.204C26.0513 14.964 26.1153 14.7 26.1153 14.412C26.1153 14.124 26.0513 13.8627 25.9233 13.628C25.8006 13.3933 25.6326 13.2067 25.4193 13.068C25.2113 12.9293 24.9793 12.86 24.7233 12.86C24.4673 12.86 24.2353 12.932 24.0273 13.076C23.8193 13.2147 23.6513 13.4013 23.5233 13.636C23.4006 13.8707 23.3393 14.1347 23.3393 14.428ZM29.5364 16.58C29.2217 16.58 28.9337 16.524 28.6724 16.412C28.4164 16.2947 28.1924 16.1347 28.0004 15.932C27.8137 15.7293 27.667 15.4973 27.5604 15.236C27.459 14.9747 27.4084 14.6973 27.4084 14.404C27.4084 14.0093 27.4964 13.6493 27.6724 13.324C27.8484 12.9987 28.0964 12.74 28.4164 12.548C28.7364 12.3507 29.107 12.252 29.5284 12.252C29.939 12.252 30.2964 12.3453 30.6004 12.532C30.9097 12.7133 31.139 12.9587 31.2884 13.268L30.6004 13.484C30.4937 13.2867 30.3444 13.1347 30.1524 13.028C29.9604 12.916 29.747 12.86 29.5124 12.86C29.2564 12.86 29.0217 12.9267 28.8084 13.06C28.6004 13.1933 28.435 13.3773 28.3124 13.612C28.1897 13.8413 28.1284 14.1053 28.1284 14.404C28.1284 14.6973 28.1897 14.964 28.3124 15.204C28.4404 15.4387 28.6084 15.6253 28.8164 15.764C29.0297 15.9027 29.2644 15.972 29.5204 15.972C29.6857 15.972 29.843 15.9427 29.9924 15.884C30.147 15.8253 30.2804 15.748 30.3924 15.652C30.5097 15.5507 30.5897 15.4413 30.6324 15.324L31.3204 15.532C31.235 15.7347 31.1044 15.916 30.9284 16.076C30.7577 16.2307 30.5524 16.3533 30.3124 16.444C30.0777 16.5347 29.819 16.58 29.5364 16.58ZM33.55 16.58C33.2034 16.58 32.878 16.524 32.574 16.412C32.27 16.2947 32.0087 16.1213 31.79 15.892L32.062 15.396C32.302 15.62 32.542 15.78 32.782 15.876C33.022 15.972 33.2674 16.02 33.518 16.02C33.806 16.02 34.0407 15.9667 34.222 15.86C34.4034 15.748 34.494 15.5853 34.494 15.372C34.494 15.2173 34.446 15.1027 34.35 15.028C34.2594 14.9533 34.1287 14.892 33.958 14.844C33.7874 14.7907 33.5847 14.732 33.35 14.668C33.062 14.5827 32.8194 14.492 32.622 14.396C32.4247 14.3 32.2754 14.18 32.174 14.036C32.0727 13.892 32.022 13.7107 32.022 13.492C32.022 13.2253 32.0914 13.0013 32.23 12.82C32.3687 12.6333 32.558 12.492 32.798 12.396C33.0434 12.3 33.3207 12.252 33.63 12.252C33.9394 12.252 34.2194 12.3 34.47 12.396C34.7207 12.492 34.9367 12.6333 35.118 12.82L34.798 13.308C34.6327 13.1373 34.4514 13.012 34.254 12.932C34.0567 12.8467 33.8354 12.804 33.59 12.804C33.446 12.804 33.3047 12.8227 33.166 12.86C33.0274 12.892 32.9127 12.9533 32.822 13.044C32.7314 13.1293 32.686 13.252 32.686 13.412C32.686 13.5453 32.7207 13.652 32.79 13.732C32.8647 13.8067 32.9714 13.8707 33.11 13.924C33.254 13.9773 33.4274 14.036 33.63 14.1C33.9447 14.1907 34.2167 14.2813 34.446 14.372C34.6807 14.4627 34.862 14.58 34.99 14.724C35.118 14.868 35.182 15.068 35.182 15.324C35.182 15.7187 35.0327 16.028 34.734 16.252C34.4354 16.4707 34.0407 16.58 33.55 16.58Z" fill="#1A1C1E"/>
<defs>
<clipPath id="clip0_251_1094">
<rect width="12.8" height="16" fill="white" transform="translate(0.5 1.5)"/>
</clipPath>
</defs>
</svg>
